<svg width="512"  fill="#393939" height="512" viewBox="0 0 512 512"  xmlns="http://www.w3.org/2000/svg">
<path d="M344.5 335.315C348.642 335.315 352 331.958 352 327.815C352 323.673 348.642 320.315 344.5 320.315C340.358 320.315 337 323.673 337 327.815C337 331.958 340.358 335.315 344.5 335.315Z" />
<path d="M370.5 335.315C374.642 335.315 378 331.958 378 327.815C378 323.673 374.642 320.315 370.5 320.315C366.358 320.315 363 323.673 363 327.815C363 331.958 366.358 335.315 370.5 335.315Z" />
<path d="M396.5 335.315C400.642 335.315 404 331.958 404 327.815C404 323.673 400.642 320.315 396.5 320.315C392.358 320.315 389 323.673 389 327.815C389 331.958 392.358 335.315 396.5 335.315Z" />
<path d="M422.5 335.315C426.642 335.315 430 331.958 430 327.815C430 323.673 426.642 320.315 422.5 320.315C418.358 320.315 415 323.673 415 327.815C415 331.958 418.358 335.315 422.5 335.315Z" />
<path d="M448.5 335.315C452.642 335.315 456 331.958 456 327.815C456 323.673 452.642 320.315 448.5 320.315C444.358 320.315 441 323.673 441 327.815C441 331.958 444.358 335.315 448.5 335.315Z" />
<path d="M378.5 359.315C382.642 359.315 386 355.958 386 351.815C386 347.673 382.642 344.315 378.5 344.315C374.358 344.315 371 347.673 371 351.815C371 355.958 374.358 359.315 378.5 359.315Z" />
<path d="M404.5 359.315C408.642 359.315 412 355.958 412 351.815C412 347.673 408.642 344.315 404.5 344.315C400.358 344.315 397 347.673 397 351.815C397 355.958 400.358 359.315 404.5 359.315Z" />
<path d="M430.5 359.315C434.642 359.315 438 355.958 438 351.815C438 347.673 434.642 344.315 430.5 344.315C426.358 344.315 423 347.673 423 351.815C423 355.958 426.358 359.315 430.5 359.315Z" />
<path d="M456.5 359.315C460.642 359.315 464 355.958 464 351.815C464 347.673 460.642 344.315 456.5 344.315C452.358 344.315 449 347.673 449 351.815C449 355.958 452.358 359.315 456.5 359.315Z" />
<path d="M12.5 271.562H148.911C155.804 271.562 161.411 265.955 161.411 259.062V233C161.411 228.858 158.053 225.5 153.911 225.5C149.769 225.5 146.411 228.858 146.411 233V256.562H125V175.947H146.411V198C146.411 202.142 149.769 205.5 153.911 205.5C158.053 205.5 161.411 202.142 161.411 198V173.446C161.411 166.553 155.804 160.946 148.911 160.946H12.5C5.607 160.946 0 166.553 0 173.446V259.061C0 265.954 5.607 271.562 12.5 271.562ZM85.5 175.946H110V245.222L85.5 219.328V175.946ZM15 175.946H70.5V214.814H15V175.946ZM15 229.814H74.771L100.078 256.561H15V229.814Z" />
<path d="M499.5 160.946H363.089C356.196 160.946 350.589 166.553 350.589 173.446V259.061C350.589 265.954 356.196 271.561 363.089 271.561H499.5C506.393 271.561 512 265.954 512 259.061V173.446C512 166.554 506.393 160.946 499.5 160.946ZM365.589 175.946H424.5V212.23L365.589 250.287V175.946ZM497 256.562H383.521L434.212 223.815H497V256.562ZM497 208.814H439.5V175.946H497V208.814Z" />
<path d="M500.634 379.872L481.261 309.354C478.586 299.616 469.664 292.814 459.565 292.814H315.935C326.169 289.759 333.651 280.262 333.651 269.048V263.24C333.651 256.117 330.524 249.333 325.275 244.669V205.495C325.275 180.931 305.291 160.946 280.726 160.946H231.272C206.708 160.946 186.723 180.93 186.723 205.495V244.669C181.474 249.333 178.347 256.117 178.347 263.24V269.048C178.347 280.262 185.83 289.76 196.064 292.814H52.435C42.336 292.814 33.414 299.615 30.739 309.354L11.366 379.872C5.003 380.448 0 385.805 0 392.314V430.314C0 437.207 5.607 442.814 12.5 442.814H135.07L132.742 456.204C131.921 460.928 133.22 465.742 136.306 469.411C139.393 473.081 143.913 475.185 148.708 475.185H363.292C368.087 475.185 372.607 473.081 375.694 469.411C378.78 465.742 380.079 460.928 379.258 456.204L376.93 442.814H499.5C506.393 442.814 512 437.207 512 430.314V392.314C512 385.805 506.997 380.448 500.634 379.872ZM466.797 313.328L485.062 379.815H365.977L364.146 369.284C363.289 364.356 361.487 359.75 358.942 355.642C359.61 354.52 360.001 353.215 360.001 351.815C360.001 347.673 356.643 344.315 352.501 344.315C351.327 344.315 350.221 344.592 349.231 345.073C346.038 342.699 342.461 340.787 338.569 339.477L298.438 325.973L290.271 318.409C289.796 317.969 289.285 317.58 288.753 317.226C293.764 315.03 298.197 311.792 301.803 307.815H459.566C462.932 307.814 465.905 310.082 466.797 313.328ZM201.724 205.495C201.724 189.202 214.98 175.946 231.273 175.946H280.727C297.02 175.946 310.276 189.201 310.276 205.495V244.301L297.601 252.361C289.607 257.444 282.933 264.499 278.3 272.762L274.337 279.831C273.895 280.619 273.059 281.109 272.156 281.109H239.23C238.371 281.109 237.582 280.676 237.121 279.951L230.796 270.013C226.624 263.456 221.259 257.899 214.853 253.496L201.724 244.474V205.495ZM193.348 263.24C193.348 261.326 193.906 259.522 194.892 257.979L206.357 265.858C211.092 269.112 215.057 273.219 218.141 278.066L224.465 288.004C227.694 293.079 233.214 296.108 239.229 296.108H272.155C278.477 296.108 284.326 292.682 287.42 287.166L291.383 280.097C294.807 273.99 299.74 268.775 305.649 265.018L316.993 257.805C318.051 259.385 318.651 261.254 318.651 263.24V269.048C318.651 274.45 314.256 278.845 308.854 278.845H303.979C300.237 278.845 297.067 281.604 296.551 285.31C295.324 294.12 289.052 301.577 280.575 304.309C275.695 305.88 272.319 310.189 271.922 315.211H240.077C239.68 310.189 236.304 305.88 231.426 304.309C222.947 301.577 216.676 294.12 215.449 285.31C214.933 281.603 211.763 278.844 208.021 278.844H203.146C197.744 278.844 193.349 274.449 193.349 269.047L193.348 263.24ZM45.203 313.328C46.095 310.082 49.069 307.815 52.435 307.815H210.207C213.703 311.67 217.974 314.832 222.798 317.022C221.993 317.518 221.237 318.098 220.567 318.776L213.399 326.028L173.433 339.477C160.071 343.974 150.27 355.395 147.855 369.285L146.024 379.815H26.937L45.203 313.328ZM15 427.814V394.814H143.416L141.851 403.814H33C28.858 403.814 25.5 407.172 25.5 411.314C25.5 415.456 28.858 418.814 33 418.814H139.243L137.678 427.814H15ZM364.215 459.756C364.05 459.952 363.756 460.186 363.292 460.186H336.732V415.6C336.732 399.497 323.632 386.397 307.529 386.397H295C290.858 386.397 287.5 389.755 287.5 393.897C287.5 398.039 290.858 401.397 295 401.397H307.53C315.362 401.397 321.733 407.768 321.733 415.6V460.186H190.268V415.6C190.268 407.768 196.639 401.397 204.471 401.397H260C264.142 401.397 267.5 398.039 267.5 393.897C267.5 389.755 264.142 386.397 260 386.397H204.471C188.368 386.397 175.268 399.497 175.268 415.6V460.186H148.708C148.244 460.186 147.95 459.952 147.785 459.756C147.62 459.56 147.44 459.231 147.52 458.774L162.633 371.854C164.105 363.392 170.076 356.433 178.216 353.694L219.871 339.677C220.982 339.303 221.989 338.674 222.813 337.841L230.352 330.213H280.938L289.423 338.071C290.201 338.792 291.122 339.339 292.127 339.677L333.783 353.694C341.924 356.433 347.894 363.392 349.366 371.854L364.479 458.774C364.56 459.23 364.38 459.56 364.215 459.756ZM497 427.814H374.322L372.757 418.814H479C483.142 418.814 486.5 415.456 486.5 411.314C486.5 407.172 483.142 403.814 479 403.814H370.149L368.584 394.814H497V427.814Z" />
<path d="M65 334.814H129C133.142 334.814 136.5 331.456 136.5 327.314C136.5 323.172 133.142 319.814 129 319.814H65C60.858 319.814 57.5 323.172 57.5 327.314C57.5 331.456 60.858 334.814 65 334.814Z" />
<path d="M152 334.814H170C174.142 334.814 177.5 331.456 177.5 327.314C177.5 323.172 174.142 319.814 170 319.814H152C147.858 319.814 144.5 323.172 144.5 327.314C144.5 331.456 147.858 334.814 152 334.814Z" />
<path d="M61 358.814H125C129.142 358.814 132.5 355.456 132.5 351.314C132.5 347.172 129.142 343.814 125 343.814H61C56.858 343.814 53.5 347.172 53.5 351.314C53.5 355.456 56.858 358.814 61 358.814Z" />
<path d="M499.5 36.8145H479C474.858 36.8145 471.5 40.1725 471.5 44.3145C471.5 48.4565 474.858 51.8145 479 51.8145H497V94.8145H365.589V51.8145H444C448.142 51.8145 451.5 48.4565 451.5 44.3145C451.5 40.1725 448.142 36.8145 444 36.8145H363.089C356.196 36.8145 350.589 42.4215 350.589 49.3145V134.929C350.589 141.822 356.196 147.429 363.089 147.429H499.5C506.393 147.429 512 141.822 512 134.929V49.3145C512 42.4225 506.393 36.8145 499.5 36.8145ZM497 132.43H365.589V109.815H497V132.43Z" />
<path d="M12.5 147.43H148.911C155.804 147.43 161.411 141.823 161.411 134.93V49.3145C161.411 42.4215 155.804 36.8145 148.911 36.8145H12.5C5.607 36.8145 0 42.4215 0 49.3145V134.929C0 141.822 5.607 147.43 12.5 147.43ZM130.956 51.8145H146.411V92.8145H130.956V51.8145ZM102.456 51.8145H115.956V92.8145H102.456V51.8145ZM73.956 51.8145H87.456V92.8145H73.956V51.8145ZM45.456 51.8145H58.956V92.8145H45.456V51.8145ZM15 51.8145H30.456V92.8145H15V51.8145ZM15 107.814H146.411V132.429H15V107.814Z" />
<path d="M187.794 147.43H324.205C331.098 147.43 336.705 141.823 336.705 134.93V49.3145C336.705 42.4215 331.098 36.8145 324.205 36.8145H187.794C180.901 36.8145 175.294 42.4215 175.294 49.3145V134.929C175.294 141.822 180.902 147.43 187.794 147.43ZM294.795 51.8145H321.706V121.823L294.795 94.9125V51.8145ZM190.294 51.8145H279.794V90.5205H190.294V51.8145ZM190.294 105.52H284.188L311.098 132.43H190.294V105.52Z" />
</svg>
