<svg width="512" height="512" viewBox="0 0 512 512" fill="#393939" xmlns="http://www.w3.org/2000/svg">
<g clip-path="url(#clip0_1_408)">
<path d="M8.533 119.467C10.797 119.468 12.968 118.57 14.568 116.969C16.168 115.368 17.067 113.197 17.066 110.934V25.6C17.069 20.889 20.888 17.07 25.599 17.067H110.932C115.645 17.067 119.465 13.247 119.465 8.534C119.465 3.821 115.646 0 110.933 0H25.6C11.468 0.015 0.0150008 11.468 8.34294e-07 25.6V110.933C-0.000999166 113.197 0.897001 115.368 2.498 116.968C4.099 118.568 6.27 119.468 8.533 119.467Z" />
<path d="M486.4 0H401.067C396.354 0 392.534 3.82 392.534 8.533C392.534 13.246 396.355 17.066 401.067 17.066H486.4C491.112 17.069 494.93 20.888 494.933 25.599V110.932C494.933 115.645 498.753 119.465 503.466 119.465C508.179 119.465 511.999 115.645 511.999 110.932V25.6C511.985 11.468 500.532 0.015 486.4 0Z" />
<path d="M503.467 392.533C501.203 392.532 499.032 393.43 497.432 395.031C495.831 396.632 494.933 398.803 494.934 401.066V486.4C494.931 491.112 491.112 494.93 486.401 494.933H401.068C396.355 494.933 392.535 498.753 392.535 503.466C392.535 508.179 396.356 511.999 401.068 511.999H486.4C500.532 511.984 511.985 500.531 512 486.399V401.066C512.001 398.802 511.103 396.631 509.502 395.031C507.901 393.431 505.73 392.532 503.467 392.533Z" />
<path d="M110.933 494.933H25.6C20.889 494.93 17.07 491.111 17.067 486.4V401.067C17.067 396.354 13.247 392.534 8.534 392.534C3.821 392.534 0 396.354 0 401.067V486.4C0.015 500.532 11.468 511.985 25.6 512H110.933C115.646 512 119.466 508.18 119.466 503.467C119.466 498.754 115.646 494.933 110.933 494.933Z" />
<path d="M503.467 162.133H417.047C416.512 145.652 413.094 129.393 406.95 114.091C389.433 78.5166 337.8 25.5996 267.342 25.5996H244.659C174.201 25.5996 122.567 78.5166 105.051 114.092C98.907 129.394 95.49 145.653 94.956 162.134H8.533C3.82 162.134 0 165.954 0 170.667C0 175.38 3.82 179.2 8.533 179.2H94.08C93.895 185.452 93.844 191.626 93.886 197.552C92.336 197.048 90.746 196.677 89.134 196.442C80.961 195.423 72.782 198.284 67.026 204.175C60.302 212.761 57.913 223.968 60.551 234.55C62.781 246.012 65.99 257.261 70.142 268.175L71.592 272.35C72.609 275.283 73.467 278.383 74.334 281.492C76.195 290.051 79.549 298.214 84.242 305.609C87.971 311.278 94.044 314.978 100.792 315.692C101.2 315.717 101.634 315.734 102.084 315.734C102.44 315.734 102.862 315.653 103.239 315.631C103.805 323.43 104.175 330.428 104.175 335.534C104.175 364.717 131.633 400.401 147.867 416.884C157.253 425.978 167.113 434.567 177.408 442.617C187.227 450.282 196.635 458.46 205.591 467.117C215.693 478.272 229.66 485.166 244.658 486.4H267.341C282.339 485.166 296.306 478.272 306.408 467.117C315.363 458.467 324.765 450.292 334.575 442.625C344.88 434.572 354.75 425.976 364.142 416.875C380.367 400.4 407.825 364.717 407.825 335.533C407.825 330.428 408.195 323.43 408.761 315.63C409.138 315.652 409.56 315.733 409.916 315.733C410.366 315.733 410.799 315.716 411.208 315.691C417.969 314.972 424.052 311.259 427.783 305.574C432.464 298.188 435.809 290.036 437.666 281.491C438.533 278.383 439.391 275.283 440.408 272.349L441.858 268.174C446.008 257.269 449.214 246.028 451.441 234.574C454.091 223.977 451.694 212.75 444.949 204.157C439.2 198.272 431.029 195.417 422.866 196.44C421.255 196.675 419.667 197.047 418.119 197.55C418.16 191.626 418.109 185.452 417.923 179.198H503.467C508.18 179.198 512 175.378 512 170.665C512 165.952 508.18 162.133 503.467 162.133ZM98.083 295.625C94.635 289.83 92.166 283.506 90.775 276.908C89.808 273.458 88.85 270.025 87.725 266.766L86.25 262.541C82.42 252.529 79.451 242.208 77.375 231.691C75.889 226.522 76.503 220.976 79.083 216.258C81.198 214.086 84.207 213.029 87.216 213.399C89.883 213.775 92.367 214.969 94.326 216.817C94.912 232.126 95.866 243.108 95.991 244.483C96.039 244.912 99.423 272.535 101.824 298.626C100.253 298.116 98.923 297.048 98.083 295.625ZM111.55 210.917C111.445 210.75 111.298 210.627 111.191 210.463C110.916 200.615 110.861 189.888 111.182 179.201H128V206.967L111.606 211.064C111.578 211.017 111.579 210.963 111.55 210.917ZM136.533 375.273C128.026 363.604 122.75 349.895 121.241 335.533C121.241 327.602 120.46 315.787 119.378 303.22C119.379 302.713 119.334 302.207 119.243 301.709C117.447 281.203 114.924 259.166 113.69 248.765L136.533 276.165V375.273ZM117.848 227.088L137.058 222.292L197.429 229.83L203.22 264.534H149.058L117.848 227.088ZM145.067 206.092V179.2H173.912L190.081 211.715L145.067 206.092ZM192.975 179.2H235.481L207.144 207.694L192.975 179.2ZM153.6 291.875L201.76 334.014L183.47 358.4H153.6V291.875ZM165.283 409.948C163.461 408.259 161.666 406.574 160.025 404.908C157.991 402.842 155.824 400.498 153.6 397.953V375.466H183.471L199.674 397.069L165.283 409.948ZM217.758 455.133C208.358 446.026 198.48 437.425 188.166 429.366C185.438 427.149 182.695 424.913 179.973 422.669L209.444 411.633L241.216 468.823C232.21 466.694 224.042 461.928 217.758 455.133ZM247.467 444.94L227.834 409.6H247.467V444.94ZM247.467 392.533H217.597L198.401 366.933L217.597 341.333H247.467V392.533ZM247.467 324.267H216.542L167.779 281.6H211.126L247.466 296.122L247.467 324.267ZM247.467 277.742L220.959 267.15L213.938 225.062L247.467 191.347V277.742ZM112.078 162.133C112.518 148.257 115.321 134.558 120.367 121.625C135.4 91.0996 182.433 42.6666 244.658 42.6666H267.341C329.566 42.6666 376.599 91.0996 391.633 121.625C396.675 134.559 399.477 148.258 399.918 162.133H256.007H112.078ZM366.933 179.2V206.092L321.919 211.715L338.088 179.2H366.933ZM264.533 324.267V296.122L300.874 281.6H344.221L295.458 324.267H264.533ZM313.6 366.933L294.404 392.533H264.534V341.333H294.404L313.6 366.933ZM264.533 277.742V191.348L298.062 225.063L291.041 267.151L264.533 277.742ZM276.52 179.2H319.026L304.858 207.694L276.52 179.2ZM264.533 444.94V409.6H284.166L264.533 444.94ZM323.817 429.375C313.511 437.433 303.639 446.031 294.242 455.133C287.957 461.93 279.788 466.699 270.779 468.831L302.555 411.633L332.025 422.668C329.297 424.917 326.549 427.156 323.817 429.375ZM358.4 397.954C356.178 400.496 354.015 402.837 351.983 404.9C350.339 406.569 348.541 408.256 346.716 409.948L312.326 397.07L328.529 375.467H358.4V397.954ZM358.4 358.4H328.529L310.239 334.014L358.399 291.875V358.4H358.4ZM362.942 264.533H308.78L314.571 229.829L374.942 222.291L394.152 227.087L362.942 264.533ZM392.757 301.706C392.666 302.206 392.62 302.713 392.622 303.221C391.539 315.793 390.759 327.604 390.759 335.534C389.25 349.896 383.975 363.605 375.467 375.275V276.165L398.31 248.765C397.057 259.337 394.545 281.294 392.757 301.706ZM400.815 210.456C400.706 210.623 400.557 210.748 400.45 210.917C400.421 210.963 400.422 211.017 400.394 211.063L384 206.966V179.2H400.816C401.14 189.896 401.088 200.623 400.815 210.456ZM424.783 213.4C427.781 213.035 430.778 214.085 432.891 216.242C435.496 220.967 436.116 226.534 434.616 231.717C432.543 242.226 429.577 252.538 425.749 262.542L424.274 266.767C423.149 270.025 422.191 273.459 421.224 276.909C419.836 283.494 417.375 289.805 413.941 295.592C413.098 297.029 411.759 298.108 410.175 298.626C412.579 272.508 415.971 244.812 416.041 244.2C416.154 242.921 417.098 232.037 417.679 216.812C419.638 214.968 422.12 213.776 424.783 213.4Z" />
</g>
<defs>
<clipPath id="clip0_1_408">
<rect width="512" height="512" fill="white"/>
</clipPath>
</defs>
</svg>
