<svg width="512" height="512" viewBox="0 0 512 512" fill="#393939" xmlns="http://www.w3.org/2000/svg">
<path d="M498.874 216.054L462.998 202.244C458.033 183.078 450.436 164.754 440.37 147.662L455.985 112.507C457.328 109.483 456.671 105.944 454.33 103.603L408.395 57.67C406.056 55.33 402.517 54.675 399.492 56.016L364.325 71.634C347.232 61.571 328.914 53.976 309.76 49.013L295.948 13.126C294.758 10.038 291.79 8 288.48 8H223.52C220.21 8 217.243 10.038 216.054 13.126L202.24 49.013C183.085 53.976 164.767 61.571 147.676 71.634L112.508 56.016C109.483 54.67 105.945 55.329 103.604 57.67L57.669 103.605C55.329 105.946 54.672 109.485 56.015 112.509L71.632 147.673C61.568 164.765 53.972 183.084 49.009 202.242L13.126 216.054C10.038 217.243 8 220.211 8 223.521V288.481C8 291.791 10.038 294.758 13.126 295.947L49.004 309.757C53.97 328.927 61.566 347.251 71.63 364.338L56.015 399.493C54.672 402.517 55.329 406.056 57.67 408.397L103.606 454.331C105.945 456.671 109.484 457.327 112.509 455.985L147.677 440.367C164.771 450.43 183.088 458.025 202.241 462.988L216.054 498.875C217.242 501.963 220.21 504.001 223.52 504.001H288.48C291.79 504.001 294.757 501.963 295.946 498.875L309.756 462.998C328.923 458.032 347.247 450.436 364.338 440.371L399.492 455.985C402.514 457.328 406.055 456.672 408.396 454.331L454.331 408.396C456.671 406.055 457.328 402.516 455.985 399.492L440.366 364.324C450.43 347.231 458.024 328.914 462.987 309.76L498.874 295.947C501.962 294.759 504 291.791 504 288.481V223.521C504 220.21 501.962 217.242 498.874 216.054ZM488 282.986L453.354 296.322C450.892 297.269 449.056 299.37 448.446 301.936C443.599 322.3 435.56 341.691 424.551 359.57C423.168 361.816 422.982 364.6 424.052 367.011L439.132 400.965L400.966 439.131L367.025 424.056C364.616 422.986 361.831 423.172 359.583 424.556C341.709 435.565 322.312 443.606 301.934 448.454C299.368 449.064 297.267 450.9 296.32 453.362L282.987 488H229.013L215.677 453.354C214.73 450.892 212.629 449.056 210.064 448.446C189.7 443.599 170.309 435.56 152.429 424.551C150.181 423.167 147.397 422.981 144.988 424.052L111.034 439.131L72.867 400.966L87.943 367.025C89.013 364.614 88.827 361.83 87.443 359.583C76.436 341.712 68.395 322.315 63.545 301.933C62.935 299.368 61.098 297.267 58.637 296.32L24 282.987V229.013L58.642 215.678C61.104 214.731 62.94 212.63 63.55 210.064C68.398 189.696 76.437 170.303 87.446 152.425C88.83 150.179 89.016 147.395 87.946 144.984L72.868 111.034L111.034 72.868L144.988 87.947C147.397 89.018 150.182 88.832 152.429 87.448C170.307 76.44 189.698 68.401 210.064 63.553C212.629 62.943 214.73 61.107 215.677 58.645L229.014 24H282.988L296.323 58.646C297.27 61.107 299.371 62.944 301.936 63.554C322.301 68.401 341.692 76.44 359.572 87.449C361.82 88.833 364.604 89.019 367.013 87.948L400.966 72.869L439.133 111.033L424.057 144.975C422.987 147.386 423.173 150.17 424.557 152.417C435.567 170.293 443.608 189.688 448.456 210.066C449.066 212.632 450.902 214.733 453.364 215.68L488 229.013V282.986ZM256 98.138C168.954 98.138 98.138 168.954 98.138 256C98.138 343.045 168.954 413.861 256 413.861C343.046 413.861 413.862 343.045 413.862 256C413.862 168.954 343.046 98.138 256 98.138ZM144.222 343.255L197.056 291.224L219.041 313.259C222.161 316.387 227.227 316.392 230.354 313.272C233.481 310.152 233.488 305.086 230.367 301.959L202.768 274.297C199.664 271.185 194.625 271.163 191.492 274.247L134.962 329.918C134.267 328.785 133.585 327.644 132.921 326.49L198.027 261.383L247.797 311.152L181.976 376.972C167.467 368.06 154.675 356.615 144.222 343.255ZM256 397.861C234.847 397.861 214.764 393.199 196.714 384.862L262.113 319.463C266.693 314.879 266.693 307.422 262.111 302.836L259.372 300.097L308.207 251.26L323.484 255.354C323.872 261.386 326.4 267.004 330.713 271.316C335.412 276.016 341.661 278.605 348.308 278.605C354.955 278.605 361.204 276.016 365.901 271.317C370.601 266.618 373.189 260.37 373.189 253.723C373.189 247.076 370.601 240.828 365.902 236.129C361.203 231.429 354.955 228.841 348.308 228.841C341.661 228.841 335.413 231.429 330.713 236.128C329.547 237.294 328.512 238.556 327.613 239.895L307.886 234.609C305.125 233.87 302.18 234.659 300.158 236.679L248.056 288.782L239.883 280.609L299.91 220.582C303.523 222.48 307.508 223.428 311.494 223.428C317.866 223.428 324.238 221.003 329.089 216.152C338.789 206.451 338.789 190.666 329.089 180.964C319.387 171.264 303.601 171.264 293.901 180.964C289.201 185.663 286.613 191.911 286.613 198.558C286.613 202.215 287.401 205.75 288.889 208.975L228.569 269.295L219.623 260.349L271.725 208.246C273.746 206.225 274.535 203.279 273.795 200.518L268.507 180.784C269.838 179.894 271.103 178.866 272.277 177.691C276.976 172.991 279.564 166.743 279.564 160.096C279.564 153.449 276.976 147.201 272.277 142.502C262.575 132.803 246.79 132.8 237.089 142.502C232.389 147.201 229.801 153.449 229.801 160.096C229.801 166.743 232.389 172.991 237.088 177.691C241.524 182.127 247.232 184.527 253.047 184.907L257.144 200.197L208.308 249.033L206.344 247.069C204.125 244.85 201.172 243.628 198.028 243.628C194.884 243.628 191.932 244.85 189.714 247.067L125.399 311.381C118.152 294.357 114.138 275.638 114.138 255.998C114.138 177.774 177.777 114.136 256 114.136C334.223 114.136 397.862 177.776 397.862 256C397.862 334.223 334.224 397.861 256 397.861ZM357.188 253.723C357.188 256.095 356.264 258.326 354.586 260.003C352.908 261.68 350.679 262.605 348.307 262.605C345.935 262.605 343.704 261.681 342.026 260.002C340.349 258.325 339.425 256.095 339.425 253.723C339.425 251.35 340.349 249.119 342.027 247.443C343.704 245.765 345.934 244.841 348.307 244.841C350.679 244.841 352.91 245.765 354.586 247.442C356.265 249.118 357.188 251.35 357.188 253.723ZM302.614 198.559C302.614 196.187 303.538 193.956 305.216 192.28C306.947 190.548 309.222 189.682 311.496 189.682C313.77 189.682 316.045 190.547 317.776 192.28C321.239 195.742 321.239 201.377 317.776 204.84C316.099 206.518 313.869 207.442 311.496 207.442C309.123 207.442 306.892 206.518 305.216 204.84C303.538 203.162 302.614 200.932 302.614 198.559ZM248.403 166.378C246.725 164.701 245.801 162.471 245.801 160.098C245.801 157.726 246.725 155.495 248.403 153.819C250.134 152.088 252.409 151.221 254.683 151.221C256.956 151.221 259.231 152.087 260.962 153.819H260.963C262.64 155.496 263.564 157.726 263.564 160.098C263.564 162.471 262.64 164.702 260.962 166.378C259.285 168.056 257.055 168.98 254.682 168.98C252.311 168.979 250.08 168.056 248.403 166.378Z" />
</svg>
