<svg width="484" height="484" viewBox="0 0 484 484" fill="#393939" xmlns="http://www.w3.org/2000/svg">
<path d="M294.938 330.859H189.062C169.249 330.859 153.141 314.751 153.141 294.938V189.062C153.141 169.249 169.249 153.141 189.062 153.141H294.938C314.751 153.141 330.859 169.249 330.859 189.062V294.938C330.859 314.751 314.751 330.859 294.938 330.859ZM189.062 164.484C175.526 164.484 164.484 175.526 164.484 189.062V294.938C164.484 308.474 175.526 319.516 189.062 319.516H294.938C308.474 319.516 319.516 308.474 319.516 294.938V189.062C319.516 175.526 308.474 164.484 294.938 164.484H189.062ZM294.938 300.609H189.062C185.962 300.609 183.391 298.038 183.391 294.938V189.062C183.391 185.962 185.962 183.391 189.062 183.391H294.938C298.038 183.391 300.609 185.962 300.609 189.062V294.938C300.609 298.038 298.038 300.609 294.938 300.609ZM194.734 289.266H289.266V194.734H194.734V289.266ZM242 270.359C226.346 270.359 213.641 257.654 213.641 242C213.641 226.346 226.346 213.641 242 213.641C257.654 213.641 270.359 226.346 270.359 242C270.359 257.654 257.654 270.359 242 270.359ZM242 224.984C232.622 224.984 224.984 232.622 224.984 242C224.984 251.378 232.622 259.016 242 259.016C251.378 259.016 259.016 251.378 259.016 242C259.016 232.622 251.378 224.984 242 224.984ZM326.171 75.0956C328.364 72.9025 328.364 69.2725 326.171 67.0794C303.634 44.5431 273.762 32.1406 242 32.1406C210.238 32.1406 180.366 44.5431 157.829 67.0794C155.636 69.2725 155.636 72.9025 157.829 75.0956C160.023 77.2888 163.653 77.2888 165.846 75.0956C186.264 54.6769 213.263 43.4844 242 43.4844C270.737 43.4844 297.736 54.6769 318.154 75.0956C319.289 76.23 320.726 76.7594 322.162 76.7594C323.599 76.7594 325.036 76.23 326.171 75.0956ZM304.844 96.4219C307.038 94.2288 307.038 90.5987 304.844 88.4056C287.98 71.6169 265.671 62.3906 242 62.3906C218.329 62.3906 196.02 71.6169 179.156 88.4056C176.963 90.5987 176.963 94.2288 179.156 96.4219C181.349 98.615 184.979 98.615 187.172 96.4219C201.919 81.7506 221.354 73.7344 242 73.7344C262.646 73.7344 282.157 81.8263 296.828 96.4219C297.963 97.5563 299.399 98.0856 300.836 98.0856C302.273 98.0856 303.71 97.5563 304.844 96.4219ZM208.574 117.824C217.497 108.9 229.371 103.984 242 103.984C254.629 103.984 266.502 108.9 275.426 117.824C277.619 120.017 281.249 120.017 283.442 117.824C285.636 115.631 285.636 112.001 283.442 109.808C272.401 98.7663 257.654 92.6406 242 92.6406C226.346 92.6406 211.599 98.7663 200.558 109.808C198.364 112.001 198.364 115.631 200.558 117.824C201.692 118.958 203.129 119.488 204.566 119.488C206.002 119.488 207.439 118.958 208.574 117.824ZM326.171 416.921C328.364 414.728 328.364 411.097 326.171 408.904C323.978 406.711 320.347 406.711 318.154 408.904C297.736 429.323 270.737 440.516 242 440.516C213.263 440.516 186.264 429.323 165.846 408.904C163.653 406.711 160.023 406.711 157.829 408.904C155.636 411.097 155.636 414.728 157.829 416.921C180.366 439.457 210.238 451.859 242 451.859C273.762 451.859 303.634 439.457 326.171 416.921ZM304.844 395.594C307.038 393.401 307.038 389.771 304.844 387.578C302.651 385.385 299.021 385.385 296.828 387.578C282.081 402.249 262.646 410.266 242 410.266C221.354 410.266 201.843 402.174 187.172 387.578C184.979 385.385 181.349 385.385 179.156 387.578C176.963 389.771 176.963 393.401 179.156 395.594C196.02 412.383 218.329 421.609 242 421.609C265.671 421.609 287.98 412.383 304.844 395.594ZM283.442 374.192C285.636 371.999 285.636 368.369 283.442 366.176C281.249 363.983 277.619 363.983 275.426 366.176C266.502 375.1 254.629 380.016 242 380.016C229.371 380.016 217.497 375.1 208.574 366.176C206.381 363.983 202.751 363.983 200.558 366.176C198.364 368.369 198.364 371.999 200.558 374.192C211.599 385.234 226.346 391.359 242 391.359C257.654 391.359 272.401 385.234 283.442 374.192ZM416.921 326.171C439.457 303.634 451.859 273.762 451.859 242C451.859 210.238 439.457 180.366 416.921 157.829C414.728 155.636 411.097 155.636 408.904 157.829C406.711 160.023 406.711 163.653 408.904 165.846C429.323 186.264 440.516 213.263 440.516 242C440.516 270.737 429.323 297.736 408.904 318.154C406.711 320.347 406.711 323.978 408.904 326.171C410.039 327.305 411.476 327.834 412.912 327.834C414.349 327.834 415.786 327.305 416.921 326.171ZM395.594 304.844C412.383 287.98 421.609 265.671 421.609 242C421.609 218.329 412.383 196.02 395.594 179.156C393.401 176.963 389.771 176.963 387.578 179.156C385.385 181.349 385.385 184.979 387.578 187.172C402.249 201.919 410.266 221.354 410.266 242C410.266 262.646 402.174 282.081 387.578 296.828C385.385 299.021 385.385 302.651 387.578 304.844C388.713 305.979 390.149 306.508 391.586 306.508C393.023 306.508 394.46 305.979 395.594 304.844ZM374.192 283.442C385.234 272.401 391.359 257.654 391.359 242C391.359 226.346 385.234 211.599 374.192 200.558C371.999 198.364 368.369 198.364 366.176 200.558C363.983 202.751 363.983 206.381 366.176 208.574C375.1 217.497 380.016 229.371 380.016 242C380.016 254.629 375.1 266.502 366.176 275.426C363.983 277.619 363.983 281.249 366.176 283.442C367.311 284.577 368.748 285.106 370.184 285.106C371.621 285.106 373.058 284.577 374.192 283.442ZM75.0956 326.171C77.2888 323.978 77.2888 320.347 75.0956 318.154C54.6769 297.736 43.4844 270.737 43.4844 242C43.4844 213.263 54.6769 186.264 75.0956 165.846C77.2888 163.653 77.2888 160.023 75.0956 157.829C72.9025 155.636 69.2725 155.636 67.0794 157.829C44.5431 180.366 32.1406 210.238 32.1406 242C32.1406 273.762 44.5431 303.634 67.0794 326.171C68.2137 327.305 69.6506 327.834 71.0875 327.834C72.5244 327.834 73.9613 327.305 75.0956 326.171ZM96.4219 304.844C98.615 302.651 98.615 299.021 96.4219 296.828C81.7506 282.081 73.7344 262.646 73.7344 242C73.7344 221.354 81.8263 201.843 96.4219 187.172C98.615 184.979 98.615 181.349 96.4219 179.156C94.2288 176.963 90.5987 176.963 88.4056 179.156C71.6169 196.02 62.3906 218.329 62.3906 242C62.3906 265.671 71.6169 287.98 88.4056 304.844C89.54 305.979 90.9769 306.508 92.4138 306.508C93.8506 306.508 95.2875 305.979 96.4219 304.844ZM117.824 283.442C120.017 281.249 120.017 277.619 117.824 275.426C108.9 266.502 103.984 254.629 103.984 242C103.984 229.371 108.9 217.497 117.824 208.574C120.017 206.381 120.017 202.751 117.824 200.558C115.631 198.364 112.001 198.364 109.808 200.558C98.7663 211.599 92.6406 226.346 92.6406 242C92.6406 257.654 98.7663 272.401 109.808 283.442C110.942 284.577 112.379 285.106 113.816 285.106C115.253 285.106 116.689 284.577 117.824 283.442Z" />
</svg>
