<svg width="512" height="512" viewBox="0 0 512 512" fill="#393939" xmlns="http://www.w3.org/2000/svg">
<g clip-path="url(#clip0_1_329)">
<path d="M97.9457 90.7802C101.003 90.7802 103.782 89.6684 105.867 87.5834C107.396 86.0543 143.945 50.2002 198.839 32.4122C272.076 8.50951 341.423 26.9919 404.655 87.0275C409.102 91.3361 416.19 91.0581 420.497 86.6102C422.582 84.3867 423.694 81.6073 423.555 78.6884C423.415 75.7696 422.304 72.9902 420.08 70.9062C381.724 34.6348 340.728 11.9823 297.925 3.64418C263.599 -3.02634 228.161 -0.524899 192.585 11.01C132.132 30.6051 91.831 70.2118 90.1634 71.8794C88.0784 73.9644 86.8281 76.7438 86.8281 79.8011C86.8281 82.8585 87.9399 85.6379 90.0249 87.7229C92.108 89.529 94.8883 90.7802 97.9457 90.7802Z" />
<path d="M446.207 236.421C434.811 163.044 405.905 110.374 360.183 80.079C293.755 36.0254 215.237 55.0646 212.04 55.8984C206.064 57.2881 202.312 63.4027 203.841 69.3789C205.23 75.355 211.345 79.1067 217.321 77.5785C220.24 76.8832 288.891 60.2069 347.259 98.8413C387.977 125.801 413.965 173.19 424.249 239.758C424.666 242.677 426.334 245.317 428.696 247.124C430.641 248.513 432.865 249.347 435.228 249.347C435.783 249.347 436.339 249.347 436.895 249.208C442.871 248.234 447.179 242.535 446.207 236.421Z" />
<path d="M88.0785 236.56C98.0842 119.548 175.769 92.5866 179.105 91.4748C181.884 90.5016 184.247 88.556 185.497 85.9161C186.887 83.2752 187.026 80.2179 186.053 77.4385C184.108 71.6018 177.715 68.405 171.878 70.3506C167.987 71.6018 76.9609 103.147 65.7049 234.753C65.427 237.672 66.4002 240.59 68.3458 242.953C70.2914 245.177 72.9322 246.566 75.9896 246.844H76.9628C79.6037 246.844 82.1051 245.871 84.1892 244.203C86.4108 242.258 87.8005 239.478 88.0785 236.56Z" />
<path d="M134.634 235.726C138.247 207.237 149.782 179.999 167.292 158.876C179.799 143.867 195.225 132.194 211.901 124.967C229.689 117.324 248.729 114.684 268.462 117.046C295.978 120.52 323.495 133.583 350.593 156.096C355.318 159.988 362.406 159.432 366.297 154.707C368.243 152.483 369.077 149.564 368.799 146.507C368.521 143.45 367.131 140.809 364.768 139.003C334.334 113.71 302.927 98.8403 271.102 94.9491C247.477 92.0303 224.547 95.2271 203.006 104.538C183.133 113.155 164.789 127.051 150.059 144.701C129.769 169.021 116.428 200.428 112.398 233.086C109.479 256.295 105.866 276.028 101.558 291.593C95.9992 311.744 89.4672 325.085 82.3802 331.06C80.1567 333.006 78.6276 335.646 78.3496 338.704C78.0717 341.623 79.045 344.541 80.8511 346.903C83.0746 349.544 86.2713 350.934 89.4672 350.934C91.9686 350.934 94.6095 350.1 96.6936 348.293C107.395 339.399 116.289 322.305 123.098 297.569C127.685 280.752 131.576 259.907 134.634 235.726Z" />
<path d="M359.071 276.583V276.445C357.959 266.3 356.848 255.738 355.874 246.705C355.458 243.092 355.18 240.869 354.901 238.645C351.844 210.712 348.786 184.168 324.466 162.489C310.847 150.26 292.92 141.922 274.02 138.725C258.456 136.223 242.474 137.196 228.021 141.922C211.9 147.064 197.864 156.236 186.191 169.16C170.765 186.392 160.481 209.461 155.756 237.95C155.617 238.506 155.617 239.062 155.478 239.479V239.896C153.115 266.578 145.75 302.155 136.3 332.59C127.545 360.662 118.512 380.119 111.564 385.955C109.34 387.901 107.811 390.542 107.533 393.599C107.255 396.518 108.229 399.436 110.035 401.799C111.98 404.022 114.621 405.551 117.678 405.829C120.597 406.107 123.515 405.135 125.878 403.328C139.914 391.654 151.866 358.301 157.702 339.401C167.708 307.299 175.352 269.916 177.853 241.844C181.884 217.663 190.361 198.346 202.868 184.31C211.762 174.304 222.463 167.355 234.831 163.464C246.088 159.851 258.317 159.017 270.546 161.101C285.277 163.603 299.313 169.995 309.736 179.445C327.663 195.427 330.165 217.801 332.805 241.426C333.222 244.623 333.5 247.68 333.778 249.626C335.029 260.466 336.001 269.916 336.975 279.087C341.977 327.31 347.258 377.201 368.521 424.034C370.328 428.203 374.497 430.566 378.666 430.566C380.195 430.566 381.724 430.288 383.253 429.592C388.811 427.091 391.313 420.421 388.811 414.862C368.938 370.945 363.936 323 359.071 276.583Z" />
<path d="M311.126 255.599C313.211 235.032 309.319 217.104 299.73 203.624C293.894 195.285 285.972 188.893 276.8 185.14C268.045 181.527 258.456 180.554 249.284 182.221C237.055 184.445 226.215 191.393 218.711 201.677C214.125 207.931 210.095 215.713 206.76 224.746C203.563 233.502 200.783 243.646 198.56 255.181C196.892 263.936 195.781 271.719 194.807 279.083C193 292.564 191.472 304.376 185.913 320.358C180.355 336.34 172.572 353.85 162.567 372.75C149.503 397.486 137.135 415.553 132.132 421.806C128.241 426.531 128.935 433.619 133.661 437.51C136.024 439.456 138.942 440.289 141.861 440.012C144.779 439.734 147.559 438.344 149.365 435.981C156.313 427.503 169.932 406.658 182.301 383.311C192.724 363.716 201.062 344.956 207.038 327.723C213.292 309.517 215.098 296.176 217.043 282.14C218.017 275.191 218.989 267.965 220.657 259.487C222.602 249.204 225.104 240.17 227.883 232.666C230.524 225.439 233.581 219.463 236.916 215.016C241.085 209.318 246.922 205.566 253.454 204.455C258.457 203.481 263.599 204.037 268.463 206.122C273.605 208.207 278.191 211.959 281.526 216.823C287.919 225.857 290.42 238.642 288.892 253.789C286.112 281.167 275.133 321.051 257.901 365.939C239.696 413.606 216.765 460.717 203.286 477.81C199.533 482.675 200.367 489.623 205.231 493.514C207.316 495.043 209.678 495.877 212.041 495.877C215.377 495.877 218.712 494.348 220.797 491.569C235.667 472.529 259.43 424.168 278.609 373.86C296.673 326.751 308.069 284.921 311.126 255.599Z" />
<path d="M406.738 282.837C404.514 248.789 402.151 213.491 390.339 186.947C387.838 181.389 381.167 178.748 375.609 181.249C370.05 183.751 367.409 190.421 369.91 195.98C380.056 218.771 382.279 251.985 384.363 284.227C386.726 319.664 388.95 353.156 401.317 375.809C402.707 378.45 405.07 380.395 407.988 381.229C409.1 381.507 410.073 381.646 411.185 381.646C412.992 381.646 414.798 381.229 416.465 380.257C419.106 378.867 421.052 376.504 421.886 373.586C422.72 370.667 422.442 367.75 420.912 365.109C410.907 346.764 408.961 315.773 406.738 282.837Z" />
<path d="M266.795 238.505C266.934 235.587 265.961 232.669 263.876 230.445C261.93 228.222 259.151 226.97 256.094 226.832C249.979 226.554 244.698 231.279 244.42 237.394C242.335 278.946 233.441 321.193 218.85 359.687C204.536 397.626 185.08 430.423 161.316 457.106C157.285 461.693 157.563 468.78 162.289 472.949C164.374 474.894 167.014 475.728 169.655 475.728C172.712 475.728 175.77 474.477 177.993 471.975C203.563 443.208 224.41 408.049 239.835 367.608C255.26 326.891 264.571 282.281 266.795 238.505Z" />
<path d="M331.138 370.527L330.026 364.968C329.331 360.938 326.551 357.602 322.66 356.213C319.881 355.24 316.824 355.379 314.044 356.63C311.403 357.881 309.319 360.243 308.346 363.023L307.93 364.273C300.147 386.23 292.503 407.771 282.915 429.311C272.214 453.632 260.541 475.033 247.339 494.628C245.671 497.129 245.115 500.048 245.671 502.966C246.227 505.885 247.895 508.386 250.396 510.054C252.342 511.305 254.427 512 256.65 512C260.264 512 263.738 510.332 265.962 507.135C279.859 486.568 292.088 464.054 303.483 438.345C307.792 428.617 311.961 418.333 316.408 406.521C321.272 425.42 327.943 445.849 340.728 468.502C342.118 471.143 344.619 472.949 347.399 473.783C350.317 474.616 353.235 474.2 355.876 472.809C358.517 471.28 360.323 468.918 361.157 466.139C361.991 463.22 361.574 460.302 360.184 457.661C343.229 427.227 337.392 399.712 331.138 370.527Z" />
</g>
<defs>
<clipPath id="clip0_1_329">
<rect width="512" height="512" fill="white"/>
</clipPath>
</defs>
</svg>
