<svg width="512" height="512" viewBox="0 0 512 512" fill="none" stroke="#393939" xmlns="http://www.w3.org/2000/svg">
<path d="M317.439 227.328C328.703 227.328 336.895 236.544 336.895 246.784C336.895 235.52 346.111 227.328 356.351 227.328"  stroke-width="15.36" stroke-miterlimit="10" stroke-linecap="round" stroke-linejoin="round"/>
<path d="M196.607 286.72C207.871 286.72 216.063 295.936 216.063 306.176C216.063 294.912 225.279 286.72 235.519 286.72"  stroke-width="15.36" stroke-miterlimit="10" stroke-linecap="round" stroke-linejoin="round"/>
<path d="M403.456 186.367C414.72 186.367 422.912 195.583 422.912 205.823C422.912 194.559 432.128 186.367 442.368 186.367"  stroke-width="15.36" stroke-miterlimit="10" stroke-linecap="round" stroke-linejoin="round"/>
<path d="M205.823 67.584C217.087 67.584 225.279 76.8 225.279 87.04C225.279 75.776 234.495 67.584 244.735 67.584"  stroke-width="15.36" stroke-miterlimit="10" stroke-linecap="round" stroke-linejoin="round"/>
<path d="M89.088 110.592C100.964 110.592 110.592 100.964 110.592 89.088C110.592 77.2117 100.964 67.584 89.088 67.584C77.2117 67.584 67.584 77.2117 67.584 89.088C67.584 100.964 77.2117 110.592 89.088 110.592Z"  stroke-width="15.36" stroke-miterlimit="10" stroke-linecap="round" stroke-linejoin="round"/>
<path d="M89.0879 35.8396V18.4316"  stroke-width="15.36" stroke-miterlimit="10" stroke-linecap="round" stroke-linejoin="round"/>
<path d="M89.0879 159.744V142.336"  stroke-width="15.36" stroke-miterlimit="10" stroke-linecap="round" stroke-linejoin="round"/>
<path d="M142.336 89.0879H159.744"  stroke-width="15.36" stroke-miterlimit="10" stroke-linecap="round" stroke-linejoin="round"/>
<path d="M18.4316 89.0879H35.8396"  stroke-width="15.36" stroke-miterlimit="10" stroke-linecap="round" stroke-linejoin="round"/>
<path d="M126.977 51.2001L139.265 38.9121"  stroke-width="15.36" stroke-miterlimit="10" stroke-linecap="round" stroke-linejoin="round"/>
<path d="M38.9121 139.265L51.2001 126.977"  stroke-width="15.36" stroke-miterlimit="10" stroke-linecap="round" stroke-linejoin="round"/>
<path d="M126.977 126.977L139.265 139.265"  stroke-width="15.36" stroke-miterlimit="10" stroke-linecap="round" stroke-linejoin="round"/>
<path d="M38.9121 38.9121L51.2001 51.2001"  stroke-width="15.36" stroke-miterlimit="10" stroke-linecap="round" stroke-linejoin="round"/>
<path d="M181.248 406.527H330.752"  stroke-width="15.36" stroke-miterlimit="10" stroke-linecap="round" stroke-linejoin="round"/>
<path d="M181.248 437.248H330.752"  stroke-width="15.36" stroke-miterlimit="10" stroke-linecap="round" stroke-linejoin="round"/>
<path d="M162.815 468.991H349.183"  stroke-width="15.36" stroke-miterlimit="10" stroke-linecap="round" stroke-linejoin="round"/>
<path d="M197.632 406.527V468.991"  stroke-width="15.36" stroke-miterlimit="10" stroke-linecap="round" stroke-linejoin="round"/>
<path d="M314.368 406.527V468.991"  stroke-width="15.36" stroke-miterlimit="10" stroke-linecap="round" stroke-linejoin="round"/>
<path d="M175.104 468.991V494.591"  stroke-width="15.36" stroke-miterlimit="10" stroke-linecap="round" stroke-linejoin="round"/>
<path d="M205.823 468.991V494.591"  stroke-width="15.36" stroke-miterlimit="10" stroke-linecap="round" stroke-linejoin="round"/>
<path d="M306.176 468.991V494.591"  stroke-width="15.36" stroke-miterlimit="10" stroke-linecap="round" stroke-linejoin="round"/>
<path d="M336.896 468.991V494.591"  stroke-width="15.36" stroke-miterlimit="10" stroke-linecap="round" stroke-linejoin="round"/>
<path d="M205.823 406.527V394.239"  stroke-width="15.36" stroke-miterlimit="10" stroke-linecap="round" stroke-linejoin="round"/>
<path d="M306.175 406.527V394.239"  stroke-width="15.36" stroke-miterlimit="10" stroke-linecap="round" stroke-linejoin="round"/>
<path d="M383.999 404.479V493.567"  stroke-width="15.36" stroke-miterlimit="10" stroke-linecap="round" stroke-linejoin="round"/>
<path d="M423.936 364.544C423.936 386.048 406.527 404.48 383.999 404.48C362.495 404.48 344.063 387.072 344.063 364.544C344.063 343.04 361.471 286.72 383.999 286.72C405.503 286.72 423.936 343.04 423.936 364.544Z"  stroke-width="15.36" stroke-miterlimit="10" stroke-linecap="round" stroke-linejoin="round"/>
<path d="M466.943 448.512V494.592"  stroke-width="15.36" stroke-miterlimit="10" stroke-linecap="round" stroke-linejoin="round"/>
<path d="M494.592 421.888C494.592 436.224 482.304 448.512 467.968 448.512C453.632 448.512 441.344 436.224 441.344 421.888C441.344 407.552 453.632 369.664 467.968 369.664C482.304 369.664 494.592 407.552 494.592 421.888Z"  stroke-width="15.36" stroke-miterlimit="10" stroke-linecap="round" stroke-linejoin="round"/>
<path d="M127.999 404.479V493.567"  stroke-width="15.36" stroke-miterlimit="10" stroke-linecap="round" stroke-linejoin="round"/>
<path d="M88.0635 364.544C88.0635 386.048 105.471 404.48 127.999 404.48C149.503 404.48 167.935 387.072 167.935 364.544C167.935 343.04 150.527 286.72 127.999 286.72C106.495 286.72 88.0635 343.04 88.0635 364.544Z"  stroke-width="15.36" stroke-miterlimit="10" stroke-linecap="round" stroke-linejoin="round"/>
<path d="M45.0557 448.512V494.592"  stroke-width="15.36" stroke-miterlimit="10" stroke-linecap="round" stroke-linejoin="round"/>
<path d="M18.4316 421.888C18.4316 436.224 30.7196 448.512 45.0556 448.512C59.3916 448.512 71.6796 436.224 71.6796 421.888C71.6796 407.552 59.3916 369.664 45.0556 369.664C29.6956 369.664 18.4316 407.552 18.4316 421.888Z"  stroke-width="15.36" stroke-miterlimit="10" stroke-linecap="round" stroke-linejoin="round"/>
<path d="M494.592 104.448C494.592 126.976 476.16 145.408 453.632 145.408C440.32 145.408 339.968 145.408 329.728 145.408C312.32 145.408 299.008 131.072 299.008 114.688C299.008 97.28 313.344 83.968 329.728 83.968C333.824 83.968 336.896 84.992 340.992 86.016C347.136 66.56 364.544 53.248 385.024 53.248C401.408 53.248 416.768 62.4641 424.96 75.776C432.128 68.608 442.368 64.5121 453.632 64.5121C476.16 62.4641 494.592 80.896 494.592 104.448Z"  stroke-width="15.36" stroke-miterlimit="10" stroke-linecap="round" stroke-linejoin="round"/>
<path d="M193.536 230.4C193.536 244.736 182.272 256 167.936 256C159.744 256 97.2797 256 91.1357 256C80.8957 256 71.6797 247.808 71.6797 236.544C71.6797 226.304 79.8717 217.088 91.1357 217.088C93.1837 217.088 96.2557 217.088 98.3037 218.112C101.376 205.824 112.64 197.632 125.952 197.632C136.192 197.632 145.408 202.752 150.528 210.944C154.624 206.848 160.768 203.776 167.936 203.776C182.272 204.8 193.536 216.064 193.536 230.4Z"  stroke-width="15.36" stroke-miterlimit="10" stroke-linecap="round" stroke-linejoin="round"/>
<path d="M18.4316 494.592H494.592"  stroke-width="15.36" stroke-miterlimit="10" stroke-linecap="round" stroke-linejoin="round"/>
</svg>
