<svg width="512" height="512" viewBox="0 0 512 512" fill="#393939" xmlns="http://www.w3.org/2000/svg">
<path d="M256 286.745C241.993 286.745 230.598 298.14 230.598 312.147C230.598 326.154 241.993 337.549 256 337.549C270.007 337.549 281.401 326.154 281.401 312.147C281.401 298.14 270.007 286.745 256 286.745ZM256 322.549C250.264 322.549 245.598 317.883 245.598 312.147C245.598 306.411 250.264 301.745 256 301.745C261.735 301.745 266.401 306.411 266.401 312.147C266.401 317.883 261.735 322.549 256 322.549Z" />
<path d="M94.824 219.486C94.824 215.344 91.466 211.986 87.324 211.986H7.5C3.358 211.986 0 215.344 0 219.486C0 223.628 3.358 226.986 7.5 226.986H87.324C91.466 226.986 94.824 223.628 94.824 219.486Z" />
<path d="M108.991 96.2253C110.455 97.6903 112.375 98.4223 114.294 98.4223C116.213 98.4223 118.133 97.6903 119.597 96.2253C122.526 93.2963 122.526 88.5473 119.597 85.6193L63.1543 29.1743C60.2263 26.2453 55.4773 26.2453 52.5483 29.1743C49.6193 32.1033 49.6193 36.8523 52.5483 39.7803L108.991 96.2253Z" />
<path d="M504.5 211.986H424.676C420.533 211.986 417.176 215.344 417.176 219.486C417.176 223.628 420.533 226.986 424.676 226.986H504.5C508.643 226.986 512 223.628 512 219.486C512 215.344 508.643 211.986 504.5 211.986Z" />
<path d="M397.705 98.4223C399.624 98.4223 401.544 97.6903 403.009 96.2253L459.453 39.7813C462.382 36.8523 462.382 32.1033 459.453 29.1753C456.523 26.2463 451.775 26.2463 448.846 29.1753L392.402 85.6193C389.473 88.5483 389.473 93.2973 392.402 96.2253C393.866 97.6903 395.786 98.4223 397.705 98.4223Z" />
<path d="M449.58 424.686H424.668V385.633C424.668 381.491 421.311 378.133 417.168 378.133H400.355V281.518C400.355 277.376 396.998 274.018 392.855 274.018C388.712 274.018 385.355 277.376 385.355 281.518V378.133H126.645V190.195C126.645 118.868 184.674 60.8398 256 60.8398C327.327 60.8398 385.355 118.869 385.355 190.195V257.477C385.355 261.619 388.712 264.977 392.855 264.977C396.998 264.977 400.355 261.619 400.355 257.477V190.195C400.355 110.597 335.597 45.8398 256 45.8398C176.403 45.8398 111.645 110.598 111.645 190.195V378.133H94.8319C90.6899 378.133 87.3319 381.491 87.3319 385.633V424.686H62.4199C58.2779 424.686 54.9199 428.044 54.9199 432.186V477.523C54.9199 481.665 58.2779 485.023 62.4199 485.023H100.763C104.905 485.023 108.263 481.665 108.263 477.523C108.263 473.381 104.905 470.023 100.763 470.023H69.9199V439.686H442.08V470.023H127.954C123.812 470.023 120.454 473.381 120.454 477.523C120.454 481.665 123.812 485.023 127.954 485.023H449.58C453.723 485.023 457.08 481.665 457.08 477.523V432.186C457.08 428.044 453.723 424.686 449.58 424.686ZM102.332 424.686V393.133H409.668V424.686H102.332Z" />
<path d="M291.09 106.932C287.95 103.432 283.453 101.424 278.751 101.424H233.249C228.547 101.424 224.05 103.431 220.911 106.931C217.772 110.431 216.264 115.119 216.773 119.793L222.919 176.175C223.368 180.293 227.066 183.272 231.188 182.818C235.306 182.369 238.28 178.667 237.831 174.549L231.684 118.167C231.621 117.59 231.863 117.185 232.077 116.947C232.291 116.708 232.668 116.424 233.248 116.424H278.75C279.331 116.424 279.708 116.708 279.922 116.947C280.135 117.185 280.377 117.59 280.314 118.167L265.92 250.199C265.367 255.272 261.103 259.097 256 259.097C250.897 259.097 246.632 255.272 246.08 250.199L240.336 197.51C239.887 193.392 236.186 190.423 232.067 190.867C227.949 191.316 224.975 195.018 225.424 199.136L231.168 251.825C232.552 264.522 243.228 274.097 256.001 274.097C268.774 274.097 279.448 264.522 280.833 251.825L295.228 119.793C295.736 115.12 294.229 110.432 291.09 106.932Z" />
</svg>
