<svg width="512" height="512" viewBox="0 0 512 512" fill="#393939" xmlns="http://www.w3.org/2000/svg">
<g clip-path="url(#clip0_1_280)">
<path d="M46.6907 425.958C43.7657 423.025 39.0177 423.02 36.0847 425.945C31.7667 430.253 29.3877 435.981 29.3877 442.076C29.3877 448.17 31.7657 453.898 36.0847 458.206C37.5487 459.667 39.4647 460.396 41.3817 460.396C43.3037 460.396 45.2267 459.662 46.6917 458.193C49.6177 455.26 49.6117 450.511 46.6787 447.587C45.2017 446.113 44.3877 444.156 44.3877 442.076C44.3877 439.995 45.2007 438.038 46.6787 436.564C49.6107 433.639 49.6167 428.89 46.6907 425.958Z" />
<path d="M25.239 406.852C22.314 403.918 17.565 403.913 14.633 406.837C5.196 416.249 0 428.763 0 442.075C0 455.388 5.196 467.902 14.632 477.313C16.096 478.773 18.012 479.502 19.928 479.502C21.851 479.502 23.773 478.768 25.238 477.298C28.163 474.365 28.157 469.617 25.224 466.692C18.631 460.116 15 451.374 15 442.075C15 432.777 18.631 424.035 25.225 417.459C28.158 414.533 28.164 409.785 25.239 406.852Z" />
<path d="M465.308 425.958C462.383 428.891 462.389 433.64 465.322 436.564C466.799 438.038 467.612 439.995 467.612 442.076C467.612 444.156 466.799 446.113 465.322 447.587C462.389 450.512 462.383 455.261 465.308 458.193C466.773 459.662 468.695 460.396 470.618 460.396C472.534 460.396 474.451 459.667 475.914 458.206C480.233 453.898 482.611 448.17 482.611 442.076C482.611 435.981 480.233 430.253 475.914 425.945C472.981 423.018 468.232 423.024 465.308 425.958Z" />
<path d="M486.761 406.852C483.836 409.785 483.842 414.533 486.775 417.458C493.369 424.034 497 432.776 497 442.074C497 451.373 493.369 460.115 486.775 466.691C483.842 469.617 483.836 474.365 486.761 477.297C488.226 478.767 490.148 479.501 492.071 479.501C493.987 479.501 495.904 478.772 497.367 477.312C506.803 467.901 511.999 455.386 511.999 442.074C511.999 428.762 506.803 416.248 497.367 406.837C494.434 403.913 489.686 403.917 486.761 406.852Z" />
<path d="M256.019 165.208C253.925 165.208 251.926 166.083 250.506 167.623C245.477 173.074 201.368 221.7 201.368 249.858C201.368 279.993 225.884 304.508 256.018 304.508C286.152 304.508 310.668 279.992 310.668 249.858C310.668 221.7 266.56 173.074 261.53 167.623C260.111 166.083 258.113 165.208 256.019 165.208ZM256.019 289.509C234.156 289.509 216.369 271.722 216.369 249.859C216.369 234.728 238.803 203.806 256.019 183.965C273.235 203.806 295.669 234.728 295.669 249.859C295.669 271.722 277.882 289.509 256.019 289.509Z" />
<path d="M489.522 133.949C479.757 133.949 471.426 140.209 468.331 148.927H351.345C332.525 128.307 307.122 113.794 278.496 108.746V77.4531H362.614C375.008 77.4531 385.092 67.3701 385.092 54.9751C385.092 42.5801 375.009 32.4971 362.614 32.4971H204.168C200.026 32.4971 196.668 35.8541 196.668 39.9971C196.668 44.1401 200.026 47.4971 204.168 47.4971H362.614C366.737 47.4971 370.092 50.8511 370.092 54.9751C370.092 59.0991 366.738 62.4531 362.614 62.4531H149.423C145.3 62.4531 141.945 59.0991 141.945 54.9751C141.945 50.8511 145.299 47.4971 149.423 47.4971H168.971C173.113 47.4971 176.471 44.1401 176.471 39.9971C176.471 35.8541 173.113 32.4971 168.971 32.4971H149.423C137.029 32.4971 126.945 42.5801 126.945 54.9751C126.945 67.3701 137.028 77.4531 149.423 77.4531H233.541V108.746C204.915 113.794 179.512 128.307 160.692 148.927H99.939C95.797 148.927 92.439 152.284 92.439 156.427C92.439 160.57 95.797 163.927 99.939 163.927H148.896C135.04 184.494 126.945 209.25 126.945 235.86C126.945 262.866 135.282 287.962 149.518 308.709H44.955V163.926H64.928C69.07 163.926 72.428 160.569 72.428 156.426C72.428 152.283 69.07 148.926 64.928 148.926H43.668C40.573 140.208 32.243 133.948 22.477 133.948C10.083 133.949 0 144.032 0 156.426V316.207C0 328.602 10.083 338.685 22.478 338.685C32.243 338.685 40.574 332.425 43.669 323.707H161.536C183.526 347.342 214.253 362.743 248.519 364.716V404.647H226.014C221.872 404.647 218.514 408.004 218.514 412.147V434.575H68.152C64.01 434.575 60.652 437.932 60.652 442.075C60.652 446.218 64.01 449.575 68.152 449.575H218.513V472.002C218.513 476.145 221.871 479.502 226.013 479.502H286.024C290.166 479.502 293.524 476.145 293.524 472.002V449.575H443.848C447.99 449.575 451.348 446.218 451.348 442.075C451.348 437.932 447.99 434.575 443.848 434.575H293.524V412.147C293.524 408.004 290.166 404.647 286.024 404.647H263.519V364.716C297.786 362.743 328.512 347.341 350.502 323.707H409.05C413.192 323.707 416.55 320.35 416.55 316.207C416.55 312.064 413.192 308.707 409.05 308.707H362.519C376.755 287.96 385.092 262.865 385.092 235.858C385.092 209.248 376.997 184.493 363.141 163.925H467.045V308.706H443.727C439.585 308.706 436.227 312.063 436.227 316.206C436.227 320.349 439.585 323.706 443.727 323.706H468.332C471.427 332.424 479.757 338.684 489.523 338.684C501.917 338.684 512.001 328.601 512.001 316.206V156.426C512 144.032 501.917 133.949 489.522 133.949ZM22.478 323.685C18.355 323.685 15 320.331 15 316.207V156.426C15 152.303 18.354 148.948 22.478 148.948C26.602 148.948 29.956 152.302 29.956 156.426V316.207C29.955 320.331 26.601 323.685 22.478 323.685ZM278.524 464.502H233.513V419.648H278.524V464.502ZM248.541 77.4531H263.496V107C261.021 106.858 258.528 106.786 256.018 106.786C253.508 106.786 251.015 106.858 248.54 107V77.4531H248.541ZM256.019 349.932C193.119 349.932 141.946 298.759 141.946 235.859C141.946 172.959 193.119 121.786 256.019 121.786C318.919 121.786 370.092 172.959 370.092 235.859C370.092 298.759 318.919 349.932 256.019 349.932ZM497 316.208C497 320.331 493.646 323.686 489.522 323.686C485.398 323.686 482.044 320.332 482.044 316.208V156.426C482.044 152.303 485.398 148.948 489.522 148.948C493.646 148.948 497 152.302 497 156.426V316.208Z" />
</g>
<defs>
<clipPath id="clip0_1_280">
<rect width="512" height="512" fill="white"/>
</clipPath>
</defs>
</svg>
