<svg version="1.1" id="Capa_1" xmlns="http://www.w3.org/2000/svg" xmlns:xlink="http://www.w3.org/1999/xlink" x="0px" y="0px" viewBox="0 0 512 512" style="enable-background:new 0 0 512 512;" xml:space="preserve">
<g>
	<path style="fill:none;stroke:#000000;stroke-width:15;stroke-linecap:round;stroke-linejoin:round;stroke-miterlimit:10;" d="&#10;&#9;&#9;M224.387,287.062c-3.768-26.343-26.424-46.594-53.809-46.594c-7.161,0-13.999,1.385-20.261,3.901&#10;&#9;&#9;c-2.42,0.973-5.179-0.026-6.355-2.354c-5.116-10.131-15.619-17.079-27.744-17.079c-13.405,0-24.827,8.492-29.18,20.39&#10;&#9;&#9;c-0.79,2.161-3.016,3.403-5.303,3.148c-1.427-0.159-2.877-0.241-4.346-0.241c-21.444,0-38.828,17.384-38.828,38.828"/>
	<path style="fill:none;stroke:#000000;stroke-width:15;stroke-linecap:round;stroke-linejoin:round;stroke-miterlimit:10;" d="&#10;&#9;&#9;M349.188,85.157L349.188,85.157c0-25.734,20.861-46.595,46.594-46.595h0c25.733,0,46.594,20.861,46.594,46.594v201.907"/>
	<path style="fill:none;stroke:#000000;stroke-width:15;stroke-linecap:round;stroke-linejoin:round;stroke-miterlimit:10;" d="&#10;&#9;&#9;M473.437,179.487l0-94.331c0-42.888-34.768-77.655-77.655-77.656h0c-42.888,0-77.656,34.768-77.656,77.656v0.001"/>
	
		<line style="fill:none;stroke:#000000;stroke-width:15;stroke-linecap:round;stroke-linejoin:round;stroke-miterlimit:10;" x1="473.438" y1="287.062" x2="473.437" y2="215.487"/>
	<path style="fill:none;stroke:#000000;stroke-width:15;stroke-linecap:round;stroke-linejoin:round;stroke-miterlimit:10;" d="&#10;&#9;&#9;M100.569,448.729l-42.012,50.414c-2.829,3.394-7.019,5.357-11.437,5.357h0c-11.067,0-18.266-11.647-13.316-21.546l30.555-61.111"/>
	<path style="fill:none;stroke:#000000;stroke-width:15;stroke-linecap:round;stroke-linejoin:round;stroke-miterlimit:10;" d="&#10;&#9;&#9;M411.431,448.729l42.012,50.414c2.829,3.394,7.019,5.357,11.437,5.357h0c11.067,0,18.266-11.647,13.316-21.546l-30.555-61.111"/>
	<path style="fill:none;stroke:#000000;stroke-width:15;stroke-linecap:round;stroke-linejoin:round;stroke-miterlimit:10;" d="&#10;&#9;&#9;M38.562,333.656v19.25c0,57.99,47.01,105,105,105h224.875c57.99,0,105-47.01,105-105v-19.25"/>
	<path style="fill:none;stroke:#000000;stroke-width:15;stroke-linecap:round;stroke-linejoin:round;stroke-miterlimit:10;" d="&#10;&#9;&#9;M86.131,333.656H32.5c-13.807,0-25-11.193-25-25v-6.594c0-8.284,6.716-15,15-15h467c8.284,0,15,6.716,15,15v6.594&#10;&#9;&#9;c0,13.807-11.193,25-25,25H121.131"/>
	<path style="fill:none;stroke:#000000;stroke-width:15;stroke-linecap:round;stroke-linejoin:round;stroke-miterlimit:10;" d="&#10;&#9;&#9;M395.781,131.75v-13.595c0-18.225-14.774-32.998-32.998-32.998H304.53c-18.225,0-32.998,14.774-32.998,32.998v13.595"/>
	
		<line style="fill:none;stroke:#000000;stroke-width:15;stroke-linecap:round;stroke-linejoin:round;stroke-miterlimit:10;" x1="338.151" y1="131.75" x2="411.312" y2="131.75"/>
	
		<line style="fill:none;stroke:#000000;stroke-width:15;stroke-linecap:round;stroke-linejoin:round;stroke-miterlimit:10;" x1="256" y1="131.75" x2="303.151" y2="131.75"/>
	
		<line style="fill:none;stroke:#000000;stroke-width:15;stroke-linecap:round;stroke-linejoin:round;stroke-miterlimit:10;" x1="395.781" y1="38.562" x2="395.781" y2="7.5"/>
	
		<line style="fill:none;stroke:#000000;stroke-width:15;stroke-linecap:round;stroke-linejoin:round;stroke-miterlimit:10;" x1="362.834" y1="52.209" x2="340.87" y2="30.245"/>
	
		<line style="fill:none;stroke:#000000;stroke-width:15;stroke-linecap:round;stroke-linejoin:round;stroke-miterlimit:10;" x1="428.729" y1="52.209" x2="450.693" y2="30.245"/>
	
		<line style="fill:none;stroke:#000000;stroke-width:15;stroke-linecap:round;stroke-linejoin:round;stroke-miterlimit:10;" x1="442.375" y1="85.156" x2="473.437" y2="85.156"/>
	
		<line style="fill:none;stroke:#000000;stroke-width:15;stroke-linecap:round;stroke-linejoin:round;stroke-miterlimit:10;" x1="287.062" y1="162.812" x2="287.062" y2="178.344"/>
	
		<line style="fill:none;stroke:#000000;stroke-width:15;stroke-linecap:round;stroke-linejoin:round;stroke-miterlimit:10;" x1="349.188" y1="162.812" x2="349.188" y2="178.344"/>
	
		<line style="fill:none;stroke:#000000;stroke-width:15;stroke-linecap:round;stroke-linejoin:round;stroke-miterlimit:10;" x1="380.25" y1="178.344" x2="380.25" y2="193.875"/>
	
		<line style="fill:none;stroke:#000000;stroke-width:15;stroke-linecap:round;stroke-linejoin:round;stroke-miterlimit:10;" x1="287.062" y1="224.938" x2="287.062" y2="240.469"/>
	
		<line style="fill:none;stroke:#000000;stroke-width:15;stroke-linecap:round;stroke-linejoin:round;stroke-miterlimit:10;" x1="318.125" y1="178.344" x2="318.125" y2="193.875"/>
	
		<line style="fill:none;stroke:#000000;stroke-width:15;stroke-linecap:round;stroke-linejoin:round;stroke-miterlimit:10;" x1="349.188" y1="209.406" x2="349.188" y2="221.084"/>
	<path style="fill:none;stroke:#000000;stroke-width:15;stroke-linecap:round;stroke-linejoin:round;stroke-miterlimit:10;" d="&#10;&#9;&#9;M442.375,233.55c-6.725-4.791-14.816-7.83-23.645-8.482c-20.631-1.521-38.679,10.402-46.288,27.911&#10;&#9;&#9;c-1.148,2.642-4.252,3.738-6.84,2.473c-4.976-2.432-10.655-3.649-16.649-3.265c-16.342,1.048-29.621,14.258-30.747,30.594&#10;&#9;&#9;c-0.1,1.447-0.106,2.876-0.025,4.281"/>
</g>
<g>
</g>
<g>
</g>
<g>
</g>
<g>
</g>
<g>
</g>
<g>
</g>
<g>
</g>
<g>
</g>
<g>
</g>
<g>
</g>
<g>
</g>
<g>
</g>
<g>
</g>
<g>
</g>
<g>
</g>
</svg>