<?xml version="1.0" encoding="iso-8859-1"?>
<!-- Generator: Adobe Illustrator 19.0.0, SVG Export Plug-In . SVG Version: 6.00 Build 0)  -->
<svg version="1.1" id="Capa_1" xmlns="http://www.w3.org/2000/svg" xmlns:xlink="http://www.w3.org/1999/xlink" x="0px" y="0px"
	 viewBox="0 0 512 512" style="enable-background:new 0 0 512 512;" xml:space="preserve">
<g>
	<g>
		<path d="M67.76,295.331c-1.4-1.391-3.33-2.191-5.3-2.191c-1.98,0-3.91,0.8-5.31,2.191c-1.39,1.4-2.19,3.33-2.19,5.309
			c0,1.97,0.8,3.91,2.19,5.3c1.4,1.4,3.33,2.2,5.31,2.2c1.97,0,3.9-0.8,5.3-2.2c1.4-1.39,2.2-3.33,2.2-5.3
			C69.96,298.66,69.16,296.73,67.76,295.331z"/>
	</g>
</g>
<g>
	<g>
		<path d="M499.5,274.023h-20.293v-14.382c0-6.893-5.607-12.5-12.5-12.5h-5.422V209.05h29.255c3.681,0,7.002-1.599,9.113-4.387
			c2.11-2.788,2.748-6.419,1.748-9.961l-16.518-58.547c-1.652-5.858-7.489-10.276-13.576-10.276h-35.045
			c-6.087,0-11.923,4.417-13.576,10.276l-16.517,58.548c-0.999,3.542-0.362,7.173,1.748,9.961c2.11,2.788,5.432,4.387,9.113,4.387
			h29.254v38.091h-5.421c-6.893,0-12.5,5.607-12.5,12.5v14.382h-17.385v-19.757c0-6.893-5.607-12.5-12.5-12.5H196
			c-4.142,0-7.5,3.358-7.5,7.5c0,4.142,3.358,7.5,7.5,7.5h199.979v55.487h-10.505v-10.952c0-12.407-10.093-22.5-22.5-22.5h-77.77
			c-12.407,0-22.5,10.093-22.5,22.5v10.952h-10.293v-10.952c0-12.407-10.093-22.5-22.5-22.5h-77.77c-12.407,0-22.5,10.093-22.5,22.5
			v10.952h-13.62v-55.487h45.978c4.142,0,7.5-3.358,7.5-7.5c0-4.142-3.358-7.5-7.5-7.5h-48.478c-6.893,0-12.5,5.607-12.5,12.5
			v19.757H83.636v-14.381c0-6.893-5.607-12.5-12.5-12.5h-5.421V209.05h29.254c3.681,0,7.002-1.599,9.113-4.387
			c2.11-2.788,2.748-6.419,1.748-9.961l-16.517-58.547c-1.652-5.858-7.489-10.276-13.576-10.276H40.692
			c-6.087,0-11.923,4.417-13.576,10.276L10.6,194.702c-0.999,3.542-0.362,7.173,1.748,9.961c2.11,2.788,5.432,4.387,9.113,4.387
			h29.254v38.092h-5.42c-6.893,0-12.5,5.607-12.5,12.5v14.381H12.5c-6.893,0-12.5,5.607-12.5,12.5v34.425v55.93
			c0,6.893,5.607,12.5,12.5,12.5h50.82v48.431c0,6.893,5.607,12.5,12.5,12.5h34.355c6.893,0,12.5-5.607,12.5-12.5v-24.138H309
			c4.142,0,7.5-3.358,7.5-7.5c0-4.142-3.358-7.5-7.5-7.5H120.175c-6.893,0-12.5,5.607-12.5,12.5v24.138H78.32v-66.24h355.361v66.24
			h-29.355v-24.138c0-6.893-5.607-12.5-12.5-12.5H345c-4.142,0-7.5,3.358-7.5,7.5c0,4.142,3.358,7.5,7.5,7.5h44.326v24.138
			c0,6.893,5.607,12.5,12.5,12.5h34.355c6.892,0,12.5-5.607,12.5-12.5v-48.431H499.5c6.893,0,12.5-5.607,12.5-12.5v-90.355
			C512,279.631,506.393,274.023,499.5,274.023z M421.939,194.05l15-53.172h33.691l15.001,53.172H421.939z M443.364,262.142h20.843
			v11.284h-20.843V262.142z M277.705,301.302c0-4.136,3.365-7.5,7.5-7.5h77.77c4.136,0,7.5,3.364,7.5,7.5v10.952h-92.77V301.302z
			 M152.141,293.802h77.77c4.135,0,7.5,3.364,7.5,7.5v10.952h-92.77v-10.952h0C144.641,297.166,148.006,293.802,152.141,293.802z
			 M26.369,194.05l15-53.171h33.69L90.06,194.05H26.369z M47.794,262.142h20.842v11.284H47.794V262.142z M72.19,334.753v19.857
			c-5.127,1.559-8.871,6.328-8.871,11.958v7.81H15v-45.93h58.096C72.51,330.45,72.19,332.564,72.19,334.753z M15,313.448v-24.425
			h86.021v23.23H94.69c-2.525,0-4.951,0.424-7.219,1.195H15z M424.81,354.069H87.19v-19.315c0-4.135,3.365-7.5,7.5-7.5h322.62
			c4.135,0,7.5,3.365,7.5,7.5V354.069z M497,374.378h-48.319v-7.81c0-5.63-3.743-10.399-8.871-11.958v-19.857
			c0-2.189-0.32-4.303-0.906-6.305H497V374.378z M497,313.448h-72.471c-2.268-0.771-4.694-1.195-7.219-1.195h-6.33v-23.23H497
			V313.448z"/>
	</g>
</g>
<g>
	<g>
		<path d="M454.85,295.34c-1.4-1.4-3.33-2.2-5.31-2.2c-1.97,0-3.9,0.8-5.3,2.2c-1.4,1.39-2.2,3.32-2.2,5.3c0,1.97,0.8,3.9,2.2,5.3
			c1.39,1.4,3.33,2.2,5.3,2.2c1.98,0,3.91-0.8,5.31-2.2c1.39-1.4,2.19-3.33,2.19-5.3C457.04,298.67,456.24,296.73,454.85,295.34z"/>
	</g>
</g>
<g>
	<g>
		<path d="M367.108,101.5c4.142,0,7.5-3.358,7.5-7.5V74.191c0-6.893-5.607-12.5-12.5-12.5H149.892c-6.893,0-12.5,5.607-12.5,12.5
			v111.208c0,6.893,5.607,12.5,12.5,12.5h212.216c6.893,0,12.5-5.607,12.5-12.5V128c0-4.142-3.358-7.5-7.5-7.5
			c-4.142,0-7.5,3.358-7.5,7.5v21.226l-35.457-61.412c-1.34-2.32-3.816-3.75-6.495-3.75c-2.68,0-5.155,1.43-6.495,3.75
			l-31.914,55.278l-22.258-38.552c-0.011-0.019-0.025-0.035-0.036-0.054c-0.635-1.081-1.546-2.02-2.709-2.691
			c-3.588-2.072-8.174-0.842-10.245,2.745l-45.241,78.36h-46.366V76.691h207.216V94C359.608,98.142,362.966,101.5,367.108,101.5z
			 M317.656,106.564l41.952,72.662v3.674h-86.023L317.656,106.564z M250.494,123.29l20.093,34.802L256.264,182.9h-40.186
			L250.494,123.29z"/>
	</g>
</g>
<g>
	<g>
		<path d="M192.681,85.259c-14.017-0.001-25.421,11.403-25.421,25.421c0,14.017,11.404,25.42,25.421,25.42
			c14.017,0,25.42-11.403,25.42-25.42C218.101,96.662,206.698,85.259,192.681,85.259z M192.681,121.1
			c-5.746,0-10.421-4.675-10.421-10.42c0-5.747,4.675-10.421,10.421-10.421c5.745-0.001,10.42,4.674,10.42,10.421
			C203.101,116.426,198.426,121.1,192.681,121.1z"/>
	</g>
</g>
<g>
</g>
<g>
</g>
<g>
</g>
<g>
</g>
<g>
</g>
<g>
</g>
<g>
</g>
<g>
</g>
<g>
</g>
<g>
</g>
<g>
</g>
<g>
</g>
<g>
</g>
<g>
</g>
<g>
</g>
</svg>
