<svg id="Capa_1" enable-background="new 0 0 512 512" height="512" viewBox="0 0 512 512" width="512" xmlns="http://www.w3.org/2000/svg"><g><circle cx="457.393" cy="254.696" r="10"/><path d="m501.98 93.6h-34.568v-33.399c0-3.027-1.369-5.893-3.725-7.795-2.355-1.902-5.443-2.638-8.404-2l-199.527 42.963-199.035-42.962c-2.959-.637-6.051.095-8.407 1.998-2.357 1.902-3.727 4.768-3.727 7.796v33.399h-34.567c-5.534 0-10.02 4.486-10.02 10.019v348.18c0 5.534 4.486 10.02 10.02 10.02h491.96c5.534 0 10.02-4.486 10.02-10.02v-348.18c0-5.533-4.486-10.019-10.02-10.019zm-437.354-20.986 181.113 39.094.232 327.681-181.345-39.096zm-44.587 41.025h24.548v294.744c0 4.72 3.294 8.8 7.908 9.795l109.48 23.603h-141.936zm471.922 328.141h-141.936l109.48-23.603c4.614-.995 7.908-5.074 7.908-9.795v-108.545c0-5.534-4.486-10.02-10.02-10.02s-10.02 4.486-10.02 10.02v100.456l-181.363 39.1-.232-327.683 181.595-39.102v137.303c0 5.534 4.486 10.02 10.02 10.02s10.02-4.486 10.02-10.02v-96.272h24.548z"/><path d="m97.455 202.324 111.82 24.137c6.148 1.326 12.134-3.513 12.134-9.794v-50.098c0-4.719-3.293-8.798-7.906-9.794l-111.82-24.137c-2.958-.639-6.051.095-8.407 1.998-2.357 1.902-3.727 4.768-3.727 7.796v50.098c0 4.719 3.293 8.799 7.906 9.794zm12.134-47.479 91.781 19.811v29.597l-91.781-19.811z"/><path d="m97.455 252.422 111.82 24.137c5.422 1.169 10.88-2.445 11.947-7.878 1.037-5.281-2.461-10.575-7.719-11.71l-111.82-24.137c-5.409-1.164-10.741 2.271-11.908 7.68s2.271 10.74 7.68 11.908z"/><path d="m213.503 307.068-111.82-24.137c-5.409-1.165-10.741 2.271-11.908 7.68s2.271 10.74 7.68 11.908l111.82 24.137c5.422 1.169 10.88-2.445 11.947-7.878 1.036-5.281-2.461-10.574-7.719-11.71z"/><path d="m213.503 357.166-111.82-24.137c-5.409-1.165-10.741 2.271-11.908 7.68s2.271 10.74 7.68 11.908l111.82 24.137c5.422 1.169 10.88-2.445 11.947-7.878 1.036-5.281-2.461-10.574-7.719-11.71z"/><path d="m411.319 132.638-111.819 24.137c-5.267 1.137-8.743 6.426-7.719 11.71 1.054 5.435 6.534 9.046 11.947 7.878l111.82-24.137c5.409-1.168 8.847-6.499 7.68-11.908-1.168-5.409-6.5-8.844-11.909-7.68z"/><path d="m411.319 182.736-111.819 24.137c-5.267 1.137-8.743 6.426-7.719 11.71 1.054 5.435 6.534 9.046 11.947 7.878l111.82-24.137c5.409-1.168 8.847-6.499 7.68-11.908-1.168-5.41-6.5-8.847-11.909-7.68z"/><path d="m419.727 234.832c-2.357-1.903-5.447-2.635-8.407-1.998l-111.82 24.137c-4.613.996-7.906 5.075-7.906 9.794v100.195c0 6.281 5.986 11.12 12.134 9.794l111.82-24.137c4.613-.996 7.906-5.075 7.906-9.794v-100.195c-.001-3.028-1.371-5.894-3.727-7.796zm-16.313 99.904-91.781 19.811v-79.695l91.781-19.811z"/></g></svg>