<?xml version="1.0" encoding="UTF-8" standalone="no"?>
<!-- Created with Inkscape (http://www.inkscape.org/) -->

<svg
   version="1.1"
   id="svg4767"
   xml:space="preserve"
   width="682.66669"
   height="682.66669"
   stroke="#000000"
   viewBox="0 0 682.66669 682.66669"
   xmlns="http://www.w3.org/2000/svg"

   xmlns:svg="http://www.w3.org/2000/svg"><defs
     id="defs4771"><clipPath
       clipPathUnits="userSpaceOnUse"
       id="clipPath4781"><path
         d="M 0,512 H 512 V 0 H 0 Z"
         id="path4779" /></clipPath></defs><g
     id="g4773"
     transform="matrix(1.3333333,0,0,-1.3333333,0,682.66667)"><g
       id="g4775"><g
         id="g4777"
         clip-path="url(#clipPath4781)"><g
           id="g4783"
           transform="translate(179.5615,283.5532)"><path
             d="m 0,0 -31.526,5.857 c -8.706,1.617 -14.452,9.985 -12.835,18.691 l 11.714,63.05 c 1.617,8.705 9.985,14.451 18.69,12.834 L 324.938,37.475 261.222,-36.393 c -5.587,-6.476 -14.193,-9.498 -22.602,-7.936 L 31.525,-5.856"
             style="fill:none;stroke-width:15;stroke-linecap:round;stroke-linejoin:round;stroke-miterlimit:10;stroke-dasharray:none;stroke-opacity:1"
             id="path4785" /></g><g
           id="g4787"
           transform="translate(155.9165,287.9458)"><path
             d="m 0,0 -2.928,-15.762 c -1.617,-8.706 4.129,-17.074 12.834,-18.691 l 283.726,-52.709 c 8.706,-1.617 17.074,4.129 18.691,12.835 l 14.641,78.812"
             style="fill:none;stroke-width:15;stroke-linecap:round;stroke-linejoin:round;stroke-miterlimit:10;stroke-dasharray:none;stroke-opacity:1"
             id="path4789" /></g><g
           id="g4791"
           transform="translate(215.9194,241.4707)"><path
             d="M 0,0 V -30.228"
             style="fill:none;stroke-width:15;stroke-linecap:round;stroke-linejoin:round;stroke-miterlimit:10;stroke-dasharray:none;stroke-opacity:1"
             id="path4793" /></g><g
           id="g4795"
           transform="translate(183.855,212.0781)"><path
             d="M 0,0 V 35.906"
             style="fill:none;stroke-width:15;stroke-linecap:round;stroke-linejoin:round;stroke-miterlimit:10;stroke-dasharray:none;stroke-opacity:1"
             id="path4797" /></g><g
           id="g4799"
           transform="translate(223.9355,191.8711)"><path
             d="m 0,0 c 0,-13.282 -10.767,-24.048 -24.048,-24.048 -13.282,0 -24.049,10.766 -24.049,24.048 0,13.281 10.767,24.048 24.049,24.048 C -10.767,24.048 0,13.281 0,0 Z"
             style="fill:none;stroke-width:15;stroke-linecap:round;stroke-linejoin:round;stroke-miterlimit:10;stroke-dasharray:none;stroke-opacity:1"
             id="path4801" /></g><g
           id="g4803"
           transform="translate(39.5645,119.7256)"><path
             d="m 0,0 h 128.258 c 17.709,0 32.065,14.356 32.065,32.065 V 48.097 H 0"
             style="fill:none;stroke-width:15;stroke-linecap:round;stroke-linejoin:round;stroke-miterlimit:10;stroke-dasharray:none;stroke-opacity:1"
             id="path4805" /></g><g
           id="g4807"
           transform="translate(23.5322,63.6128)"><path
             d="M 0,0 H -16.032 V 128.258 H 0 c 8.854,0 16.032,-7.178 16.032,-16.032 V 16.032 C 16.032,7.178 8.854,0 0,0 Z"
             style="fill:none;stroke-width:15;stroke-linecap:round;stroke-linejoin:round;stroke-miterlimit:10;stroke-dasharray:none;stroke-opacity:1"
             id="path4809" /></g><g
           id="g4811"
           transform="translate(111.7095,368.2256)"><path
             d="M 0,0 C 0,26.563 21.534,48.097 48.097,48.097"
             style="fill:none;stroke-width:15;stroke-linecap:round;stroke-linejoin:round;stroke-miterlimit:10;stroke-dasharray:none;stroke-opacity:1"
             id="path4813" /></g><g
           id="g4815"
           transform="translate(79.645,368.2256)"><path
             d="M 0,0 C 0,44.272 35.89,80.162 80.162,80.162"
             style="fill:none;stroke-width:15;stroke-linecap:round;stroke-linejoin:round;stroke-miterlimit:10;stroke-dasharray:none;stroke-opacity:1"
             id="path4817" /></g></g></g></g></svg>
