<?xml version="1.0" encoding="UTF-8"?>
<svg xmlns="http://www.w3.org/2000/svg" xmlns:xlink="http://www.w3.org/1999/xlink" version="1.1" id="Capa_1" x="0px" y="0px" viewBox="0 0 512 512" style="enable-background:new 0 0 512 512;" xml:space="preserve" width="512" height="512">
<g>
	<path style="fill:none;stroke:#000000;stroke-width:15;stroke-linecap:round;stroke-linejoin:round;stroke-miterlimit:10;" d="&#10;&#9;&#9;M325.871,224.298h34.227c10.836,0,19.621,8.785,19.621,19.621v97.56H55.946v-97.56c0-10.836,8.785-19.621,19.621-19.621h215.3"/>
	
		<polyline style="fill:none;stroke:#000000;stroke-width:15;stroke-linecap:round;stroke-linejoin:round;stroke-miterlimit:10;" points="&#10;&#9;&#9;129.386,419.939 379.719,419.939 379.719,341.479 55.946,341.479 55.946,419.939 94.382,419.939 &#9;"/>
	<path style="fill:none;stroke:#000000;stroke-width:15;stroke-linecap:round;stroke-linejoin:round;stroke-miterlimit:10;" d="&#10;&#9;&#9;M55.946,419.939H23.584c-8.883,0-16.084-7.201-16.084-16.084V290.382c0-8.883,7.201-16.084,16.084-16.084h16.278&#10;&#9;&#9;c8.883,0,16.084,7.201,16.084,16.084V419.939z"/>
	<path style="fill:none;stroke:#000000;stroke-width:15;stroke-linecap:round;stroke-linejoin:round;stroke-miterlimit:10;" d="&#10;&#9;&#9;M379.719,419.939h32.362c8.883,0,16.084-7.201,16.084-16.084V290.382c0-8.883-7.201-16.084-16.084-16.084h-16.278&#10;&#9;&#9;c-8.883,0-16.084,7.201-16.084,16.084V419.939z"/>
	
		<line style="fill:none;stroke:#000000;stroke-width:15;stroke-linecap:round;stroke-linejoin:round;stroke-miterlimit:10;" x1="42.475" y1="421.705" x2="42.475" y2="451.74"/>
	
		<line style="fill:none;stroke:#000000;stroke-width:15;stroke-linecap:round;stroke-linejoin:round;stroke-miterlimit:10;" x1="393.189" y1="421.705" x2="393.189" y2="451.74"/>
	<path style="fill:none;stroke:#000000;stroke-width:15;stroke-linecap:round;stroke-linejoin:round;stroke-miterlimit:10;" d="&#10;&#9;&#9;M188.562,341.479h-94.18v-40.67c0-4.066,2.357-7.78,6.064-9.451c7.62-3.434,22.034-8.47,41.026-8.47s33.406,5.037,41.026,8.47&#10;&#9;&#9;c3.707,1.671,6.064,5.385,6.064,9.451V341.479z"/>
	<path style="fill:none;stroke:#000000;stroke-width:15;stroke-linecap:round;stroke-linejoin:round;stroke-miterlimit:10;" d="&#10;&#9;&#9;M247.103,341.479h94.18v-40.67c0-4.066-2.357-7.78-6.064-9.451c-7.62-3.434-22.034-8.47-41.026-8.47&#10;&#9;&#9;c-18.992,0-33.406,5.037-41.026,8.47c-3.707,1.671-6.064,5.385-6.064,9.451V341.479z"/>
	<path style="fill:none;stroke:#000000;stroke-width:15;stroke-linecap:round;stroke-linejoin:round;stroke-miterlimit:10;" d="&#10;&#9;&#9;M217.832,91.809L217.832,91.809c-34.205,0-61.934,27.729-61.934,61.934v0c0,7.233,5.864,13.097,13.098,13.097h97.672&#10;&#9;&#9;c7.234,0,13.097-5.864,13.097-13.097v0C279.766,119.538,252.037,91.809,217.832,91.809z"/>
	<path style="fill:none;stroke:#000000;stroke-width:15;stroke-linecap:round;stroke-linejoin:round;stroke-miterlimit:10;" d="&#10;&#9;&#9;M217.832,90.809V73.08c0-7.08,5.74-12.82,12.82-12.82h46.112c104.775,0,189.712,84.937,189.712,189.712v167.966"/>
	<path style="fill:none;stroke:#000000;stroke-width:15;stroke-linecap:round;stroke-linejoin:round;stroke-miterlimit:10;" d="&#10;&#9;&#9;M504.5,451.74H393.189v-9.603c0-12.26,9.939-22.198,22.198-22.198h66.914c12.26,0,22.198,9.939,22.198,22.198V451.74z"/>
</g>















</svg>
