<?xml version="1.0" encoding="UTF-8" standalone="no"?>
<!-- Created with Inkscape (http://www.inkscape.org/) -->

<svg
   version="1.1"
   id="svg1674"
   xml:space="preserve"
   width="682.66669"
   height="682.66669"
   viewBox="0 0 682.66669 682.66669"
   xmlns="http://www.w3.org/2000/svg"
   xmlns:svg="http://www.w3.org/2000/svg"><defs
     id="defs1678"><clipPath
       clipPathUnits="userSpaceOnUse"
       id="clipPath1688"><path
         d="M 0,512 H 512 V 0 H 0 Z"
         id="path1686" /></clipPath></defs><g
     id="g1680"
     transform="matrix(1.3333333,0,0,-1.3333333,0,682.66667)"><g
       id="g1682"><g
         id="g1684"
         clip-path="url(#clipPath1688)"><g
           id="g1690"
           transform="translate(379.6807,176.8936)"><path
             d="m 0,0 -55.027,12.114 h -49.198 L -159.252,0 c -20.555,-6.052 -34.667,-24.918 -34.667,-46.345 v -106.517 c 0,-9.13 7.401,-16.532 16.532,-16.532 H 18.135 c 9.13,0 16.531,7.402 16.531,16.532 V -46.345 C 34.666,-24.918 20.554,-6.052 0,0 Z"
             style="fill:none;stroke:#000000;stroke-width:15;stroke-linecap:round;stroke-linejoin:round;stroke-miterlimit:10;stroke-dasharray:none;stroke-opacity:1"
             id="path1692" /></g><g
           id="g1694"
           transform="translate(355.5312,309.793)"><path
             d="m 0,0 c 0,12.598 -10.06,22.891 -22.654,23.18 -13.077,0.3 -14.077,9.403 -27.388,9.403 h -22.719 c -21.101,0 -38.208,-17.107 -38.208,-38.209 l 0.037,-34.492 c 0.074,-30.633 24.966,-58.031 55.599,-57.957 h 10e-4 C -24.699,-98.001 0.073,-70.484 0,-39.851 Z"
             style="fill:none;stroke:#000000;stroke-width:15;stroke-linecap:round;stroke-linejoin:round;stroke-miterlimit:10;stroke-dasharray:none;stroke-opacity:1"
             id="path1696" /></g><g
           id="g1698"
           transform="translate(414.3467,53.7095)"><path
             d="m 0,0 c 0,30.911 -25.059,55.969 -55.97,55.969 h -116.645 c -30.911,0 -55.97,-25.058 -55.97,-55.969"
             style="fill:none;stroke:#000000;stroke-width:15;stroke-linecap:round;stroke-linejoin:round;stroke-miterlimit:10;stroke-dasharray:none;stroke-opacity:1"
             id="path1700" /></g><g
           id="g1702"
           transform="translate(324.6533,189.0078)"><path
             d="M 0,0 V 0 28.979"
             style="fill:none;stroke:#000000;stroke-width:15;stroke-linecap:round;stroke-linejoin:round;stroke-miterlimit:10;stroke-dasharray:none;stroke-opacity:1"
             id="path1704" /></g><g
           id="g1706"
           transform="translate(275.4561,218.0127)"><path
             d="M 0,0 V -29.005"
             style="fill:none;stroke:#000000;stroke-width:15;stroke-linecap:round;stroke-linejoin:round;stroke-miterlimit:10;stroke-dasharray:none;stroke-opacity:1"
             id="path1708" /></g><g
           id="g1710"
           transform="translate(443.5518,198.0894)"><path
             d="M 0,0 V 48.327 C 0,65.302 -13.762,79.063 -30.736,79.063 H -88.021"
             style="fill:none;stroke:#000000;stroke-width:15;stroke-linecap:round;stroke-linejoin:round;stroke-miterlimit:10;stroke-dasharray:none;stroke-opacity:1"
             id="path1712" /></g><g
           id="g1714"
           transform="translate(414.3467,84.1533)"><path
             d="m 0,0 c 16.264,0.798 29.205,14.236 29.205,30.697 v 53.24"
             style="fill:none;stroke:#000000;stroke-width:15;stroke-linecap:round;stroke-linejoin:round;stroke-miterlimit:10;stroke-dasharray:none;stroke-opacity:1"
             id="path1716" /></g><g
           id="g1718"
           transform="translate(80.7183,277.1523)"><path
             d="m 0,0 h -42.461 c -16.976,0 -30.736,-13.761 -30.736,-30.736 v -131.566 c 0,-16.975 13.76,-30.736 30.736,-30.736 h 147.504"
             style="fill:none;stroke:#000000;stroke-width:15;stroke-linecap:round;stroke-linejoin:round;stroke-miterlimit:10;stroke-dasharray:none;stroke-opacity:1"
             id="path1720" /></g><g
           id="g1722"
           transform="translate(244.5913,277.1523)"><path
             d="M 0,0 H -133.874"
             style="fill:none;stroke:#000000;stroke-width:15;stroke-linecap:round;stroke-linejoin:round;stroke-miterlimit:10;stroke-dasharray:none;stroke-opacity:1"
             id="path1724" /></g><g
           id="g1726"
           transform="translate(45.2168,84.1143)"><path
             d="m 0,0 v -66.801 c 0,-5.42 4.394,-9.813 9.813,-9.813 h 17.18 c 5.419,0 9.813,4.393 9.813,9.813 V 0"
             style="fill:none;stroke:#000000;stroke-width:15;stroke-linecap:round;stroke-linejoin:round;stroke-miterlimit:10;stroke-dasharray:none;stroke-opacity:1"
             id="path1728" /></g><g
           id="g1730"
           transform="translate(140.5645,348.4946)"><path
             d="m 0,0 -55.028,-12.115 c -20.554,-6.052 -34.666,-24.918 -34.666,-46.344 v -12.883"
             style="fill:none;stroke:#000000;stroke-width:15;stroke-linecap:round;stroke-linejoin:round;stroke-miterlimit:10;stroke-dasharray:none;stroke-opacity:1"
             id="path1732" /></g><g
           id="g1734"
           transform="translate(256.0249,331.4434)"><path
             d="M 0,0 C -3.463,2.081 -7.225,3.756 -11.235,4.937 L -66.263,17.051"
             style="fill:none;stroke:#000000;stroke-width:15;stroke-linecap:round;stroke-linejoin:round;stroke-miterlimit:10;stroke-dasharray:none;stroke-opacity:1"
             id="path1736" /></g><g
           id="g1738"
           transform="translate(140.5645,370.1978)"><path
             d="m 0,0 v -21.703 c 0,-13.586 11.013,-24.599 24.599,-24.599 13.585,0 24.598,11.013 24.598,24.599 V 0"
             style="fill:none;stroke:#000000;stroke-width:15;stroke-linecap:round;stroke-linejoin:round;stroke-miterlimit:10;stroke-dasharray:none;stroke-opacity:1"
             id="path1740" /></g><g
           id="g1742"
           transform="translate(227.0747,437.1729)"><path
             d="m 0,0 c 0,0 -12.085,3.604 -21.229,13.743 -5.45,6.043 -14.262,7.629 -21.347,3.626 C -60.896,7.021 -94.431,-7.109 -123.823,6.623 v 18.069 c 0,23.547 19.088,42.635 42.635,42.635 h 25.35 c 5.626,0 11.097,-1.844 15.575,-5.249 4.318,-3.283 9.562,-5.118 14.985,-5.243 C -11.225,56.513 0,45.028 0,30.971 Z"
             style="fill:none;stroke:#000000;stroke-width:15;stroke-linecap:round;stroke-linejoin:round;stroke-miterlimit:10;stroke-dasharray:none;stroke-opacity:1"
             id="path1744" /></g><g
           id="g1746"
           transform="translate(103.2515,443.7954)"><path
             d="m 0,0 v -19.965 c 0,-6.827 5.535,-12.363 12.363,-12.363 0.279,-13.018 5.75,-25.548 15.633,-34.058 7.957,-6.851 19.141,-15.39 33.916,-15.554 14.774,0.164 25.959,8.703 33.915,15.554 9.883,8.51 15.354,21.04 15.633,34.058 6.828,0 12.363,5.536 12.363,12.363 v 13.342"
             style="fill:none;stroke:#000000;stroke-width:15;stroke-linecap:round;stroke-linejoin:round;stroke-miterlimit:10;stroke-dasharray:none;stroke-opacity:1"
             id="path1748" /></g><g
           id="g1750"
           transform="translate(487.9102,504.333)"><path
             d="m 0,0 h -127.511 c -9.15,0 -16.569,-7.418 -16.569,-16.569 v -65.475 c 0,-9.151 7.419,-16.569 16.569,-16.569 h 45.277 c 9.007,0 16.31,-7.303 16.31,-16.31 v -22.758 c 0,-4.392 5.576,-6.274 8.237,-2.78 l 26.98,35.42 c 3.085,4.051 7.884,6.428 12.975,6.428 H 0 c 9.15,0 16.569,7.418 16.569,16.569 v 65.475 C 16.569,-7.418 9.15,0 0,0 Z"
             style="fill:none;stroke:#000000;stroke-width:15;stroke-linecap:round;stroke-linejoin:round;stroke-miterlimit:10;stroke-dasharray:none;stroke-opacity:1"
             id="path1752" /></g></g></g></g></svg>
