<?xml version="1.0" encoding="UTF-8"?>
<svg xmlns="http://www.w3.org/2000/svg" xmlns:xlink="http://www.w3.org/1999/xlink" version="1.1" id="Capa_1" x="0px" y="0px" viewBox="0 0 512 512" style="enable-background:new 0 0 512 512;" xml:space="preserve" width="512" height="512">
<g>
	<path style="fill:none;stroke:#000000;stroke-width:15;stroke-linecap:round;stroke-linejoin:round;stroke-miterlimit:10;" d="&#10;&#9;&#9;M291,146h183.5c16.569,0,30,13.431,30,30v106.192"/>
	<path style="fill:none;stroke:#000000;stroke-width:15;stroke-linecap:round;stroke-linejoin:round;stroke-miterlimit:10;" d="&#10;&#9;&#9;M504.5,317.192V336c0,16.569-13.431,30-30,30h-437c-16.569,0-30-13.431-30-30V176c0-16.569,13.431-30,30-30H256"/>
	
		<polyline style="fill:none;stroke:#000000;stroke-width:15;stroke-linecap:round;stroke-linejoin:round;stroke-miterlimit:10;" points="&#10;&#9;&#9;37.5,210.801 37.5,176 474.5,176 474.5,336 37.5,336 37.5,245.801 &#9;"/>
	
		<circle style="fill:none;stroke:#000000;stroke-width:15;stroke-linecap:round;stroke-linejoin:round;stroke-miterlimit:10;" cx="67.5" cy="206" r="0"/>
	
		<circle style="fill:none;stroke:#000000;stroke-width:15;stroke-linecap:round;stroke-linejoin:round;stroke-miterlimit:10;" cx="67.5" cy="306" r="0"/>
	
		<circle style="fill:none;stroke:#000000;stroke-width:15;stroke-linecap:round;stroke-linejoin:round;stroke-miterlimit:10;" cx="444.5" cy="206" r="0"/>
	
		<circle style="fill:none;stroke:#000000;stroke-width:15;stroke-linecap:round;stroke-linejoin:round;stroke-miterlimit:10;" cx="444.5" cy="306" r="0"/>
	<g>
		<g>
			<path style="fill:none;stroke:#000000;stroke-width:15;stroke-linecap:round;stroke-linejoin:round;stroke-miterlimit:10;" d="&#10;&#9;&#9;&#9;&#9;M84.594,283.5l20.531-53.909c0.25-0.657,0.88-1.091,1.584-1.091l0,0c0.705,0,1.336,0.437,1.585,1.096l20.343,53.904"/>
			
				<line style="fill:none;stroke:#000000;stroke-width:15;stroke-linecap:round;stroke-linejoin:round;stroke-miterlimit:10;" x1="91.126" y1="269.802" x2="122.209" y2="269.802"/>
		</g>
		<g>
			<path style="fill:none;stroke:#000000;stroke-width:15;stroke-linecap:round;stroke-linejoin:round;stroke-miterlimit:10;" d="&#10;&#9;&#9;&#9;&#9;M186.18,241.163c0,6.994-5.669,12.685-12.663,12.685h-15.986V228.5h15.986C180.511,228.5,186.18,234.169,186.18,241.163z"/>
			<path style="fill:none;stroke:#000000;stroke-width:15;stroke-linecap:round;stroke-linejoin:round;stroke-miterlimit:10;" d="&#10;&#9;&#9;&#9;&#9;M191.122,268.654c0,8.181-6.632,14.846-14.813,14.846h-18.777v-29.652h18.777C184.49,253.848,191.122,260.473,191.122,268.654z"/>
		</g>
		<g>
			<path style="fill:none;stroke:#000000;stroke-width:15;stroke-linecap:round;stroke-linejoin:round;stroke-miterlimit:10;" d="&#10;&#9;&#9;&#9;&#9;M260.802,233.197c-4.389-2.965-9.68-4.697-15.376-4.697c-15.188,0-27.5,12.312-27.5,27.5s12.312,27.5,27.5,27.5&#10;&#9;&#9;&#9;&#9;c6.168,0,11.242-2.031,15.093-5.46c0.797-0.71,1.541-1.479,2.232-2.303"/>
		</g>
		<g>
			
				<polyline style="fill:none;stroke:#000000;stroke-width:15;stroke-linecap:round;stroke-linejoin:round;stroke-miterlimit:10;" points="&#10;&#9;&#9;&#9;&#9;285.398,228.67 297.081,228.67 297.081,283.33 &#9;&#9;&#9;"/>
		</g>
		<g>
			<path style="fill:none;stroke:#000000;stroke-width:15;stroke-linecap:round;stroke-linejoin:round;stroke-miterlimit:10;" d="&#10;&#9;&#9;&#9;&#9;M356.925,283.33h-27.402l19.14-27.146c4.09-6.162,6.532-10.469,5.766-16.199c-0.887-6.635-6.778-11.315-13.543-11.315&#10;&#9;&#9;&#9;&#9;c-6.687,0-12.26,4.77-13.501,11.093"/>
		</g>
		<g>
			
				<line style="fill:none;stroke:#000000;stroke-width:15;stroke-linecap:round;stroke-linejoin:round;stroke-miterlimit:10;" x1="388.715" y1="228.5" x2="427.406" y2="283.5"/>
			
				<line style="fill:none;stroke:#000000;stroke-width:15;stroke-linecap:round;stroke-linejoin:round;stroke-miterlimit:10;" x1="424.684" y1="228.5" x2="385.938" y2="283.5"/>
		</g>
	</g>
</g>















</svg>
