<?xml version="1.0" encoding="UTF-8" standalone="no"?>
<!-- Created with Inkscape (http://www.inkscape.org/) -->

<svg
   version="1.1"
   id="svg4911"
   xml:space="preserve"
   width="682.66669"
   height="682.66669"
   viewBox="0 0 682.66669 682.66669"
   xmlns="http://www.w3.org/2000/svg"
   xmlns:svg="http://www.w3.org/2000/svg"><defs
     id="defs4915"><clipPath
       clipPathUnits="userSpaceOnUse"
       id="clipPath4925"><path
         d="M 0,512 H 512 V 0 H 0 Z"
         id="path4923" /></clipPath></defs><g
     id="g4917"
     transform="matrix(1.3333333,0,0,-1.3333333,0,682.66667)"><g
       id="g4919"><g
         id="g4921"
         clip-path="url(#clipPath4925)"><g
           id="g4927"
           transform="translate(376.2959,401.7139)"><path
             d="m 0,0 c 17.129,-24.037 27.204,-53.449 27.204,-85.214 0,-81.185 -65.814,-147 -147,-147 -81.185,0 -147,65.815 -147,147 0,81.186 65.815,147 147,147 36.802,0 70.444,-13.523 96.23,-35.872"
             style="fill:none;stroke:#000000;stroke-width:15;stroke-linecap:round;stroke-linejoin:round;stroke-miterlimit:10;stroke-dasharray:none;stroke-opacity:1"
             id="path4929" /></g><g
           id="g4931"
           transform="translate(295.1016,55.6328)"><path
             d="m 0,0 c -6.801,-15.874 -12.139,-28.14 -13.146,-30.012 -1.369,-2.544 -4.636,-8.384 -11.115,-12.797 -2.877,-1.959 -7.817,-5.324 -14.802,-5.324 -6.986,0 -11.927,3.365 -14.804,5.324 -6.22,4.237 -9.529,9.653 -11.114,12.797 -15.95,37.481 -31.899,74.96 -47.848,112.441 -1.202,1.951 -3.105,4.547 -5.981,7.028 -2.159,1.862 -4.265,3.143 -5.98,4.016 -64.868,37.298 -104.432,104.81 -101.677,174.685 0.791,20.061 5.048,39.75 12.25,58.321"
             style="fill:none;stroke:#000000;stroke-width:15;stroke-linecap:round;stroke-linejoin:round;stroke-miterlimit:10;stroke-dasharray:none;stroke-opacity:1"
             id="path4933" /></g><g
           id="g4935"
           transform="translate(96.5059,413.5078)"><path
             d="M 0,0 C 32.729,53.096 91.197,91.008 159.532,90.992 263.416,90.969 344.437,3.303 346.935,-91.725 c 1.827,-69.507 -38.534,-136.182 -103.67,-172.677 -1.462,-0.919 -3.222,-2.216 -4.984,-4.016 -2.486,-2.54 -4.037,-5.118 -4.984,-7.028 -2.837,-7.126 -11.666,-28.202 -20.993,-50.229"
             style="fill:none;stroke:#000000;stroke-width:15;stroke-linecap:round;stroke-linejoin:round;stroke-miterlimit:10;stroke-dasharray:none;stroke-opacity:1"
             id="path4937" /></g><g
           id="g4939"
           transform="translate(293.6592,379.9551)"><path
             d="m 0,0 c 0,-20.623 -16.637,-37.342 -37.159,-37.342 -20.523,0 -37.159,16.719 -37.159,37.342 0,20.624 16.636,37.342 37.159,37.342 C -16.637,37.342 0,20.624 0,0 Z"
             style="fill:none;stroke:#000000;stroke-width:15;stroke-linecap:round;stroke-linejoin:round;stroke-miterlimit:10;stroke-dasharray:none;stroke-opacity:1"
             id="path4941" /></g><g
           id="g4943"
           transform="translate(226.0176,299.6133)"><path
             d="M 0,0 C 7.776,4.617 18.018,8.5 30.448,8.421 58.363,8.244 74.94,-11.771 78.01,-15.477 79.487,-17.261 91.114,-32.665 92.756,-54.192 94.038,-71.012 83.021,-83.965 66.41,-83.891 L -5.396,-83.91 c -16.681,-0.055 -27.414,6.041 -26.434,29.418 0.293,4.779 0.973,16.293 7.196,28.56"
             style="fill:none;stroke:#000000;stroke-width:15;stroke-linecap:round;stroke-linejoin:round;stroke-miterlimit:10;stroke-dasharray:none;stroke-opacity:1"
             id="path4945" /></g></g></g></g></svg>
