<svg xmlns="http://www.w3.org/2000/svg" width="17" height="19" viewBox="0 0 17 19" fill="none" stroke="white" >
    <path d="M14.875 8.0835C14.875 13.0418 8.5 17.2918 8.5 17.2918C8.5 17.2918 2.125 13.0418 2.125 8.0835C2.125 6.39274 2.79665 4.77123 3.99219 3.57569C5.18774 2.38015 6.80924 1.7085 8.5 1.7085C10.1908 1.7085 11.8123 2.38015 13.0078 3.57569C14.2033 4.77123 14.875 6.39274 14.875 8.0835Z" stroke-width="2" stroke-linecap="round" stroke-linejoin="round"/>
    <path d="M8.5 10.2085C9.6736 10.2085 10.625 9.2571 10.625 8.0835C10.625 6.90989 9.6736 5.9585 8.5 5.9585C7.32639 5.9585 6.375 6.90989 6.375 8.0835C6.375 9.2571 7.32639 10.2085 8.5 10.2085Z"  stroke-width="2" stroke-linecap="round" stroke-linejoin="round"/>
</svg>
