<svg id="Capa_1" enable-background="new 0 0 512 512" height="512" viewBox="0 0 512 512" width="512" xmlns="http://www.w3.org/2000/svg"><g><circle cx="422.11" cy="393.384" r="7.5"/><path d="m504.5 466h-6.305v-411.719c0-12.837-10.444-23.282-23.282-23.282h-59.863c-4.143 0-7.5 3.358-7.5 7.5s3.357 7.5 7.5 7.5h59.863c4.566 0 8.282 3.715 8.282 8.282v64.347h-88.117c-7.211 0-13.077 5.866-13.077 13.077v96.17c0 7.21 5.866 13.076 13.077 13.076h88.117v225.049h-22.465v-148.119c0-8.886-7.228-16.115-16.114-16.115h-64.833c-8.886 0-16.114 7.229-16.114 16.115v76.248c0 4.142 3.357 7.5 7.5 7.5 4.142 0 7.5-3.358 7.5-7.5v-76.248c0-.615.5-1.115 1.114-1.115h64.833c.614 0 1.114.5 1.114 1.115v148.119h-67.061v-41.872c0-4.142-3.358-7.5-7.5-7.5-4.143 0-7.5 3.358-7.5 7.5v41.872h-26.646v-411.719c0-4.566 3.716-8.282 8.282-8.282h39.744c4.143 0 7.5-3.358 7.5-7.5s-3.357-7.5-7.5-7.5h-39.744c-12.838 0-23.282 10.444-23.282 23.282v18.369l-314.212 242.451c-4.783 3.73-5.642 10.655-1.912 15.438l15.597 20.008c2.17 2.783 5.42 4.236 8.696 4.236 2.356 0 4.725-.751 6.714-2.302l11.281-8.708v122.227h-40.687c-4.143 0-7.5 3.358-7.5 7.5s3.357 7.5 7.5 7.5h497c4.143 0 7.5-3.358 7.5-7.5s-3.357-7.5-7.5-7.5zm-21.305-332.372v38.662h-86.194v-38.662zm-86.194 92.324v-38.662h86.194v38.662zm-333.814 130.026h258.837v24.101h-258.837zm258.836-15h-90.877v-138.423l90.877-70.144zm-105.877 0h-72.71v-69.729c0-.32-.027-.634-.066-.944l72.776-56.172zm-58.714 54.101v70.921h-40.347v-70.922h40.347zm15 0h40.347v70.921h-40.347zm55.346 0h40.347v70.921h-40.347zm55.347 0h38.898v70.921h-38.898zm-252.247-56.894-10.679-13.698 301.824-232.966v22.038c-.292.168-.578.349-.852.56zm97.558-56.353v59.146h-65.25v-8.628c0-.05-.007-.098-.007-.148zm-65.249 113.247h38.898v70.921h-38.898z"/></g></svg>