<?xml version="1.0" encoding="UTF-8" standalone="no"?>
<!-- Created with Inkscape (http://www.inkscape.org/) -->

<svg
   version="1.1"
   id="svg4425"
   xml:space="preserve"
   width="682.66669"
   height="682.66669"
   viewBox="0 0 682.66669 682.66669"
   xmlns="http://www.w3.org/2000/svg"
   xmlns:svg="http://www.w3.org/2000/svg"><defs
     id="defs4429"><clipPath
       clipPathUnits="userSpaceOnUse"
       id="clipPath4447"><path
         d="M 0,512 H 512 V 0 H 0 Z"
         id="path4445" /></clipPath></defs><g
     id="g4431"
     transform="matrix(1.3333333,0,0,-1.3333333,0,682.66667)"><g
       id="g4433"
       transform="translate(138.7305,336.6934)"><path
         d="M 0,0 V 122.977"
         style="fill:none;stroke:#000000;stroke-width:15;stroke-linecap:round;stroke-linejoin:round;stroke-miterlimit:10;stroke-dasharray:none;stroke-opacity:1"
         id="path4435" /></g><g
       id="g4437"
       transform="translate(322,427.4297)"><path
         d="M 0,0 V -51.26"
         style="fill:none;stroke:#000000;stroke-width:15;stroke-linecap:round;stroke-linejoin:round;stroke-miterlimit:10;stroke-dasharray:none;stroke-opacity:1"
         id="path4439" /></g><g
       id="g4441"><g
         id="g4443"
         clip-path="url(#clipPath4447)"><g
           id="g4449"
           transform="translate(488.5,19.5)"><path
             d="m 0,0 h -465 c -8.837,0 -16,7.163 -16,16 0,8.837 7.163,16 16,16 H 0 C 8.837,32 16,24.837 16,16 16,7.163 8.837,0 0,0 Z"
             style="fill:none;stroke:#000000;stroke-width:15;stroke-linecap:round;stroke-linejoin:round;stroke-miterlimit:10;stroke-dasharray:none;stroke-opacity:1"
             id="path4451" /></g><g
           id="g4453"
           transform="translate(473,320.042)"><path
             d="m 0,0 v -134.542 h -356 v 112"
             style="fill:none;stroke:#000000;stroke-width:15;stroke-linecap:round;stroke-linejoin:round;stroke-miterlimit:10;stroke-dasharray:none;stroke-opacity:1"
             id="path4455" /></g><g
           id="g4457"
           transform="translate(473,374.042)"><path
             d="M 0,0 V -21.906"
             style="fill:none;stroke:#000000;stroke-width:15;stroke-linecap:round;stroke-linejoin:round;stroke-miterlimit:10;stroke-dasharray:none;stroke-opacity:1"
             id="path4459" /></g><g
           id="g4461"
           transform="translate(147,185.5)"><path
             d="m 0,0 v 94 l 296,63.971 V 0 Z"
             style="fill:none;stroke:#000000;stroke-width:15;stroke-linecap:round;stroke-linejoin:round;stroke-miterlimit:10;stroke-dasharray:none;stroke-opacity:1"
             id="path4463" /></g><g
           id="g4465"
           transform="translate(215,294.1963)"><path
             d="M 0,0 V -108.696"
             style="fill:none;stroke:#000000;stroke-width:15;stroke-linecap:round;stroke-linejoin:round;stroke-miterlimit:10;stroke-dasharray:none;stroke-opacity:1"
             id="path4467" /></g><g
           id="g4469"
           transform="translate(295,309.7305)"><path
             d="M 0,0 V -124.23"
             style="fill:none;stroke:#000000;stroke-width:15;stroke-linecap:round;stroke-linejoin:round;stroke-miterlimit:10;stroke-dasharray:none;stroke-opacity:1"
             id="path4471" /></g><g
           id="g4473"
           transform="translate(375,327.167)"><path
             d="M 0,0 V -141.667"
             style="fill:none;stroke:#000000;stroke-width:15;stroke-linecap:round;stroke-linejoin:round;stroke-miterlimit:10;stroke-dasharray:none;stroke-opacity:1"
             id="path4475" /></g><g
           id="g4477"
           transform="translate(501.666,397.6299)"><path
             d="m 0,0 c -1.73,8.103 -9.703,13.266 -17.802,11.536 l -383.993,-81.995 c -8.101,-1.73 -13.267,-9.7 -11.537,-17.801 1.505,-7.046 7.728,-11.87 14.654,-11.87 1.038,0 2.092,0.109 3.148,0.333 l 383.993,81.996 C -3.436,-16.071 1.73,-8.102 0,0 Z"
             style="fill:none;stroke:#000000;stroke-width:15;stroke-linecap:round;stroke-linejoin:round;stroke-miterlimit:10;stroke-dasharray:none;stroke-opacity:1"
             id="path4479" /></g><g
           id="g4481"
           transform="translate(39,104.6943)"><path
             d="m 0,0 v 80.806 h 434 v -134 H 0 v 20.078"
             style="fill:none;stroke:#000000;stroke-width:15;stroke-linecap:round;stroke-linejoin:round;stroke-miterlimit:10;stroke-dasharray:none;stroke-opacity:1"
             id="path4483" /></g><path
           d="m 267.5,51.5 h -190 v 100 h 190 z"
           style="fill:none;stroke:#000000;stroke-width:15;stroke-linecap:round;stroke-linejoin:round;stroke-miterlimit:10;stroke-dasharray:none;stroke-opacity:1"
           id="path4485" /><g
           id="g4487"
           transform="translate(161.8604,486.0674)"><path
             d="m 0,0 -35.262,6.204 c -8.154,1.431 -15.936,-4.015 -17.372,-12.176 -1.435,-8.159 4.016,-15.938 12.175,-17.374 L 175.536,-61.35 c 6.686,-1.325 15.873,3.469 17.371,12.177 1.436,8.158 -4.015,15.938 -12.175,17.373 L 31.843,-5.603"
             style="fill:none;stroke:#000000;stroke-width:15;stroke-linecap:round;stroke-linejoin:round;stroke-miterlimit:10;stroke-dasharray:none;stroke-opacity:1"
             id="path4489" /></g><path
           d="m 198.729,372 h -60 v 50 h 60 z"
           style="fill:none;stroke:#000000;stroke-width:15;stroke-linecap:round;stroke-linejoin:round;stroke-miterlimit:10;stroke-dasharray:none;stroke-opacity:1"
           id="path4491" /><path
           d="m 414,91.5 h -88 v 60 h 88 z"
           style="fill:none;stroke:#000000;stroke-width:15;stroke-linecap:round;stroke-linejoin:round;stroke-miterlimit:10;stroke-dasharray:none;stroke-opacity:1"
           id="path4493" /><g
           id="g4495"
           transform="translate(370,148.9619)"><path
             d="M 0,0 V -57.094"
             style="fill:none;stroke:#000000;stroke-width:15;stroke-linecap:round;stroke-linejoin:round;stroke-miterlimit:10;stroke-dasharray:none;stroke-opacity:1"
             id="path4497" /></g></g></g></g></svg>
