<svg height="512pt" viewBox="0 -10 512 512" width="512pt" xmlns="http://www.w3.org/2000/svg"><path d="m64.019531 48.894531v72.175781c0 1.683594.84375 2.523438 2.523438 2.523438h10.207031c1.683594 0 2.523438-.839844 2.523438-2.523438v-22.695312c0-.882812.480468-1.320312 1.441406-1.320312h15.128906c6.246094 0 11.089844-1.703126 14.53125-5.105469 3.441406-3.402344 5.164062-8.226563 5.164062-14.472657v-11.527343c0-6.246094-1.722656-11.066407-5.164062-14.472657-3.441406-3.402343-8.285156-5.101562-14.53125-5.101562h-29.300781c-1.679688 0-2.523438.839844-2.523438 2.519531zm15.253907 12.011719c0-.882812.4375-1.320312 1.320312-1.320312h12.730469c2.5625 0 4.363281.539062 5.402343 1.617187 1.039063 1.082031 1.5625 2.90625 1.5625 5.464844v10.089843c0 2.480469-.519531 4.261719-1.5625 5.34375-1.039062 1.082032-2.84375 1.621094-5.402343 1.621094h-12.730469c-.882812 0-1.320312-.441406-1.320312-1.320312zm0 0"/><path d="m504.496094 476.585938h-21.421875c.441406-1.65625.699219-3.382813.699219-5.175782v-45.460937c4.304687-5.347657 6.886718-12.136719 6.886718-19.523438v-62.941406c0-6.609375-.960937-13.171875-2.851562-19.507813l-2.222656-7.421874c-1.3125-4.398438-3.058594-8.609376-5.1875-12.59375h12.921874c10.101563 0 18.316407-8.214844 18.316407-18.3125v-8.128907c0-8.964843-7.292969-16.257812-16.257813-16.257812h-18.152344c-10.007812 0-18.15625 8.074219-18.300781 18.046875-4.609375-4.585938-8.386719-10.011719-11.046875-15.949219l-16.476562-36.8125c-5.300782-11.84375-16.660156-19.777344-29.449219-20.828125v-4.34375c0-4.144531-3.355469-7.503906-7.5-7.503906s-7.503906 3.359375-7.503906 7.503906v4.214844h-150.339844v-4.214844c0-4.144531-3.359375-7.503906-7.503906-7.503906-4.140625 0-7.5 3.359375-7.5 7.503906v5.027344c-10.863281 2.359375-20.183594 9.746094-24.839844 20.148437l-16.476563 36.808594c-2.621093 5.855469-6.328124 11.214844-10.851562 15.765625-.257812-9.878906-8.351562-17.839844-18.292969-17.839844h-18.148437c-8.964844 0-16.257813 7.292969-16.257813 16.257813v8.128906c0 10.097656 8.214844 18.3125 18.3125 18.3125h12.707031c-2.121093 3.980469-3.863281 8.183594-5.175781 12.574219l-2.21875 7.421875c-1.894531 6.335937-2.855469 12.898437-2.855469 19.507812v62.941407c0 7.949218 2.988282 15.207031 7.898438 20.722656v44.261718c0 1.789063.257812 3.519532.699219 5.175782h-31.566407v-42.054688c0-14.746094-10.640624-27.042968-24.644531-29.644531v-241.746094c41.574219-3.800781 74.25-38.847656 74.25-81.394531 0-29.820312-16.246093-57.28125-42.394531-71.667969-3.632812-1.996093-8.191406-.675781-10.191406 2.957031-1.996094 3.628907-.671875 8.191407 2.957031 10.1875 21.355469 11.75 34.625 34.175782 34.625 58.523438 0 36.804688-29.941406 66.746094-66.746094 66.746094-36.804687 0-66.746093-29.941406-66.746093-66.746094s29.941406-66.742188 66.742187-66.742188c4.144531 0 7.503906-3.359374 7.503906-7.503906 0-4.144531-3.359375-7.503906-7.503906-7.503906-45.078125 0-81.75 36.671875-81.75 81.75 0 42.546875 32.675781 77.589844 74.25 81.394531v241.746094c-14.003906 2.597656-24.644531 14.898437-24.644531 29.640625v42.054688h-42.742188c-4.144531 0-7.503906 3.359374-7.503906 7.503906 0 4.144531 3.359375 7.503906 7.503906 7.503906h496.992188c4.144531 0 7.503906-3.359375 7.503906-7.503906 0-4.144532-3.359375-7.503906-7.503906-7.503906zm-404.964844 0h-34.277344v-42.054688c0-8.355469 6.796875-15.152344 15.152344-15.152344h3.972656c8.355469 0 15.152344 6.796875 15.152344 15.152344zm374.386719-197.011719c0-1.824219 1.484375-3.308594 3.308593-3.308594h18.152344c.691406 0 1.25.5625 1.25 1.253906v8.128907c0 1.824218-1.484375 3.308593-3.308594 3.308593h-19.402343zm-338.867188 9.402343c-1.824219 0-3.308593-1.484374-3.308593-3.308593v-8.128907c0-.691406.5625-1.253906 1.25-1.253906h18.152343c1.824219 0 3.308594 1.484375 3.308594 3.3125v9.378906zm58.722657 182.433594c0 2.855469-2.320313 5.175782-5.175782 5.175782h-23.007812c-2.855469 0-5.179688-2.320313-5.179688-5.175782v-34.90625c2.644532.726563 5.425782 1.128906 8.300782 1.128906h25.0625zm14.308593 5.175782c.441407-1.65625.699219-3.382813.699219-5.175782v-33.777344h26.25c2.484375 0 4.972656-.597656 7.183594-1.730468l12.945312-6.605469c.109375-.058594.234375-.085937.359375-.085937h117.128907c.125 0 .25.027343.359374.085937l12.945313 6.605469c2.210937 1.132812 4.699219 1.730468 7.183594 1.730468h27.261719v33.777344c0 1.792969.257812 3.519532.699218 5.175782zm260.6875-5.175782c0 2.855469-2.324219 5.175782-5.175781 5.175782h-23.011719c-2.855469 0-5.175781-2.320313-5.175781-5.175782v-33.777344h24.050781c3.242188 0 6.371094-.5 9.3125-1.421874zm6.886719-64.984375c0 8.933594-7.265625 16.199219-16.199219 16.199219h-66.320312c-.125 0-.25-.03125-.359375-.085938l-12.945313-6.609374c-2.214843-1.128907-4.699219-1.726563-7.183593-1.726563h-117.128907c-2.484375 0-4.96875.597656-7.183593 1.726563l-12.941407 6.609374c-.113281.054688-.238281.085938-.363281.085938h-66.320312c-8.933594 0-16.199219-7.265625-16.199219-16.199219v-62.941406c0-5.152344.75-10.269531 2.226562-15.207031l2.21875-7.421875c2.152344-7.199219 5.753907-13.761719 10.578125-19.371094.082032-.089844.164063-.179687.242188-.273437 2.042968-2.34375 4.296875-4.519532 6.753906-6.496094 8.347656-6.722656 15.074219-15.441406 19.453125-25.226563l16.476563-36.804687c3.285156-7.339844 10.605468-12.085938 18.648437-12.085938h169.953125c8.042969 0 15.359375 4.746094 18.648438 12.082032l16.472656 36.808593c4.378906 9.785157 11.105468 18.503907 19.457031 25.226563 8.40625 6.761718 14.480469 15.800781 17.574219 26.140625l2.21875 7.421875c1.476562 4.941406 2.226562 10.058594 2.226562 15.210937v62.9375zm0 0"/><path d="m383.109375 343.59375h-138.050781c-4.691406 0-9 2.355469-11.53125 6.304688-2.53125 3.945312-2.875 8.847656-.917969 13.109374l9.484375 20.667969c3.78125 8.234375 12.078125 13.558594 21.140625 13.558594h102.527344c9.398437 0 17.820312-5.605469 21.449219-14.273437l8.535156-20.375c1.773437-4.238282 1.316406-9.054688-1.230469-12.878907-2.546875-3.828125-6.808594-6.113281-11.40625-6.113281zm-9.738281 33.570312c-1.289063 3.074219-4.277344 5.0625-7.609375 5.0625h-102.527344c-3.214844 0-6.160156-1.886718-7.5-4.808593l-8.636719-18.816407h134.046875zm0 0"/><path d="m198.261719 307.558594h236.902343c4.144532 0 7.503907-3.359375 7.503907-7.503906 0-4.144532-3.359375-7.503907-7.503907-7.503907h-236.902343c-4.144531 0-7.5 3.359375-7.5 7.503907 0 4.144531 3.355469 7.503906 7.5 7.503906zm0 0"/><path d="m190.277344 345.648438c-13.46875 0-24.425782 10.957031-24.425782 24.421874 0 13.46875 10.957032 24.425782 24.425782 24.425782s24.425781-10.957032 24.425781-24.425782c0-13.464843-10.957031-24.421874-24.425781-24.421874zm0 33.84375c-5.191406 0-9.417969-4.226563-9.417969-9.421876 0-5.191406 4.222656-9.417968 9.417969-9.417968 5.195312 0 9.421875 4.226562 9.421875 9.417968-.003907 5.195313-4.226563 9.421876-9.421875 9.421876zm0 0"/><path d="m435.164062 345.648438c-13.46875 0-24.425781 10.957031-24.425781 24.421874 0 13.46875 10.957031 24.425782 24.425781 24.425782s24.425782-10.957032 24.425782-24.425782c0-13.464843-10.957032-24.421874-24.425782-24.421874zm0 33.84375c-5.191406 0-9.417968-4.226563-9.417968-9.421876 0-5.191406 4.226562-9.417968 9.417968-9.417968 5.195313 0 9.421876 4.226562 9.421876 9.417968 0 5.195313-4.226563 9.421876-9.421876 9.421876zm0 0"/></svg>