<svg height="512" viewBox="0 0 32 32" width="512" xmlns="http://www.w3.org/2000/svg"><g id="House_x2C__smart_x2C__smart_house" fill="rgb(0,0,0)"><g id="home_house_1_"><path d="m26.5 31h-7c-.276 0-.5-.224-.5-.5s.224-.5.5-.5h6.5v-12.5c0-.276.224-.5.5-.5s.5.224.5.5v13c0 .276-.224.5-.5.5z"/><path d="m12.5 31h-7c-.276 0-.5-.224-.5-.5s.224-.5.5-.5h7c.276 0 .5.224.5.5s-.224.5-.5.5z"/><g><path d="m5.5 15h-1.823l3.448-3.576c-.332-.135-.562-.446-.604-.816l-4.381 4.545c-.139.145-.179.358-.1.542.078.185.26.305.46.305h2.5v14.5c0 .276.224.5.5.5s.5-.224.5-.5v-15c0-.276-.224-.5-.5-.5z"/><path d="m29.86 15.153-13.5-14c-.189-.195-.531-.195-.721 0l-5.16 5.351c.007 0 .013-.004.021-.004.378 0 .695.218.865.527l4.635-4.807 12.323 12.78h-19.663l7.364-7.797 5.197 4.797h-4.874c.089.149.153.314.153.5 0 .187-.064.351-.153.5h6.153c.206 0 .391-.126.466-.318s.024-.41-.127-.549l-6.5-6c-.2-.186-.516-.174-.702.024l-8.5 9c-.138.145-.175.358-.096.541s.26.302.459.302h22c.2 0 .382-.12.46-.305.079-.184.039-.398-.1-.542z"/></g><g><path d="m15.5 14c-.827 0-1.5-.673-1.5-1.5 0-.276.224-.5.5-.5s.5.224.5.5.225.5.5.5.5-.224.5-.5-.225-.5-.5-.5c-.276 0-.5-.224-.5-.5s.224-.5.5-.5c.827 0 1.5.673 1.5 1.5s-.673 1.5-1.5 1.5z"/><path d="m10.5 9c-.827 0-1.5-.673-1.5-1.5s.673-1.5 1.5-1.5 1.5.673 1.5 1.5-.673 1.5-1.5 1.5zm0-2c-.275 0-.5.224-.5.5s.225.5.5.5.5-.224.5-.5-.225-.5-.5-.5z"/><path d="m7.5 12c-.827 0-1.5-.673-1.5-1.5s.673-1.5 1.5-1.5 1.5.673 1.5 1.5-.673 1.5-1.5 1.5zm0-2c-.275 0-.5.224-.5.5s.225.5.5.5.5-.224.5-.5-.225-.5-.5-.5z"/></g></g><g><path d="m12.5 31c-.276 0-.5-.224-.5-.5v-2.293l-2.854-2.854c-.093-.093-.146-.22-.146-.353v-2c0-.276.224-.5.5-.5s.5.224.5.5v1.793l2.854 2.854c.093.093.146.22.146.353v2.5c0 .276-.224.5-.5.5z"/><path d="m14.5 31c-.276 0-.5-.224-.5-.5v-3.793l-1.854-1.854c-.093-.093-.146-.22-.146-.353v-5c0-.276.224-.5.5-.5s.5.224.5.5v4.793l1.854 1.854c.093.093.146.22.146.353v4c0 .276-.224.5-.5.5z"/><path d="m19.5 31c-.276 0-.5-.224-.5-.5v-2.5c0-.133.053-.26.146-.354l2.854-2.853v-1.793c0-.276.224-.5.5-.5s.5.224.5.5v2c0 .133-.053.26-.146.354l-2.854 2.853v2.293c0 .276-.224.5-.5.5z"/><path d="m17.5 31c-.276 0-.5-.224-.5-.5v-4c0-.133.053-.26.146-.354l1.854-1.853v-4.793c0-.276.224-.5.5-.5s.5.224.5.5v5c0 .133-.053.26-.146.354l-1.854 1.853v3.793c0 .276-.224.5-.5.5z"/><g><path d="m9.5 23c-.827 0-1.5-.673-1.5-1.5s.673-1.5 1.5-1.5 1.5.673 1.5 1.5-.673 1.5-1.5 1.5zm0-2c-.275 0-.5.224-.5.5s.225.5.5.5.5-.224.5-.5-.225-.5-.5-.5z"/><path d="m22.5 23c-.827 0-1.5-.673-1.5-1.5s.673-1.5 1.5-1.5 1.5.673 1.5 1.5-.673 1.5-1.5 1.5zm0-2c-.275 0-.5.224-.5.5s.225.5.5.5.5-.224.5-.5-.225-.5-.5-.5z"/><path d="m19.5 20c-.827 0-1.5-.673-1.5-1.5s.673-1.5 1.5-1.5 1.5.673 1.5 1.5-.673 1.5-1.5 1.5zm0-2c-.275 0-.5.224-.5.5s.225.5.5.5.5-.224.5-.5-.225-.5-.5-.5z"/><path d="m12.5 20c-.827 0-1.5-.673-1.5-1.5 0-.276.224-.5.5-.5s.5.224.5.5.225.5.5.5.5-.224.5-.5-.225-.5-.5-.5c-.276 0-.5-.224-.5-.5s.224-.5.5-.5c.827 0 1.5.673 1.5 1.5s-.673 1.5-1.5 1.5z"/></g></g></g></svg>