<?xml version="1.0" encoding="UTF-8" standalone="no"?>
<!-- Created with Inkscape (http://www.inkscape.org/) -->

<svg
   version="1.1"
   id="svg2262"
   xml:space="preserve"
   width="682.66669"
   height="682.66669"
   viewBox="0 0 682.66669 682.66669"
   xmlns="http://www.w3.org/2000/svg"
   xmlns:svg="http://www.w3.org/2000/svg"><defs
     id="defs2266"><clipPath
       clipPathUnits="userSpaceOnUse"
       id="clipPath2280"><path
         d="M 0,512 H 512 V 0 H 0 Z"
         id="path2278" /></clipPath></defs><g
     id="g2268"
     transform="matrix(1.3333333,0,0,-1.3333333,0,682.66667)"><g
       id="g2270"
       transform="translate(317.0693,323.6416)"><path
         d="M 0,0 -61.081,37.948 -191.45,-43.046 V -229.185 H 69.287 v 186.139 l -35.309,21.937"
         style="fill:none;stroke:#000000;stroke-width:15;stroke-linecap:round;stroke-linejoin:round;stroke-miterlimit:10;stroke-dasharray:none;stroke-opacity:1"
         id="path2272" /></g><g
       id="g2274"><g
         id="g2276"
         clip-path="url(#clipPath2280)"><g
           id="g2282"
           transform="translate(351.1992,302.7637)"><path
             d="m 0,0 c 30.289,-18.715 63.164,-39.027 63.164,-39.027 8.798,-5.468 20.407,-1.925 24.637,7.52 3.486,7.783 0.68,16.941 -6.57,21.447 L -88.17,94.647 c -4.694,2.68 -9.389,2.68 -14.082,0 L -271.654,-10.06 c -7.25,-4.506 -10.055,-13.664 -6.569,-21.447 4.23,-9.445 15.839,-12.988 24.637,-7.52 l 158.375,97.853 c 0,0 32.172,-19.877 61.18,-37.8"
             style="fill:none;stroke:#000000;stroke-width:15;stroke-linecap:round;stroke-linejoin:round;stroke-miterlimit:10;stroke-dasharray:none;stroke-opacity:1"
             id="path2284" /></g><g
           id="g2286"
           transform="translate(215.166,129.042)"><path
             d="M 0,0 V -34.585 H 81.645 V 73.464 H 0 V 39.898"
             style="fill:none;stroke:#000000;stroke-width:15;stroke-linecap:round;stroke-linejoin:round;stroke-miterlimit:10;stroke-dasharray:none;stroke-opacity:1"
             id="path2288" /></g><g
           id="g2290"
           transform="translate(291.2041,379.9961)"><path
             d="m 0,0 v 37.173 c 0,5.522 4.477,10 10,10 h 41.796 c 5.522,0 10,4.477 10,10 V 85.67"
             style="fill:none;stroke:#000000;stroke-width:15;stroke-linecap:round;stroke-linejoin:round;stroke-miterlimit:10;stroke-dasharray:none;stroke-opacity:1"
             id="path2292" /></g><g
           id="g2294"
           transform="translate(353,466.3335)"><path
             d="m 0,0 c 10.522,0 19.083,8.561 19.083,19.083 0,10.522 -8.561,19.084 -19.083,19.084 -10.522,0 -19.083,-8.562 -19.083,-19.084 C -19.083,8.561 -10.522,0 0,0 Z"
             style="fill:none;stroke:#000000;stroke-width:15;stroke-linecap:round;stroke-linejoin:round;stroke-miterlimit:10;stroke-dasharray:none;stroke-opacity:1"
             id="path2296" /></g><g
           id="g2298"
           transform="translate(342.0537,348.5444)"><path
             d="m 0,0 h 65.948 c 5.524,0 10,4.477 10,10 v 77.798 c 0,5.523 4.478,10 10,10 h 37.804"
             style="fill:none;stroke:#000000;stroke-width:15;stroke-linecap:round;stroke-linejoin:round;stroke-miterlimit:10;stroke-dasharray:none;stroke-opacity:1"
             id="path2300" /></g><g
           id="g2302"
           transform="translate(220.7959,379.9961)"><path
             d="m 0,0 v 37.173 c 0,5.522 -4.477,10 -10,10 h -41.796 c -5.522,0 -10,4.477 -10,10 V 85.67"
             style="fill:none;stroke:#000000;stroke-width:15;stroke-linecap:round;stroke-linejoin:round;stroke-miterlimit:10;stroke-dasharray:none;stroke-opacity:1"
             id="path2304" /></g><g
           id="g2306"
           transform="translate(159,466.3335)"><path
             d="m 0,0 c -10.522,0 -19.083,8.561 -19.083,19.083 0,10.522 8.561,19.084 19.083,19.084 10.522,0 19.083,-8.562 19.083,-19.084 C 19.083,8.561 10.522,0 0,0 Z"
             style="fill:none;stroke:#000000;stroke-width:15;stroke-linecap:round;stroke-linejoin:round;stroke-miterlimit:10;stroke-dasharray:none;stroke-opacity:1"
             id="path2308" /></g><g
           id="g2310"
           transform="translate(169.9463,348.5444)"><path
             d="m 0,0 h -65.948 c -5.524,0 -10,4.477 -10,10 v 77.798 c 0,5.523 -4.478,10 -10,10 h -37.804"
             style="fill:none;stroke:#000000;stroke-width:15;stroke-linecap:round;stroke-linejoin:round;stroke-miterlimit:10;stroke-dasharray:none;stroke-opacity:1"
             id="path2312" /></g><g
           id="g2314"
           transform="translate(26.583,428.814)"><path
             d="m 0,0 c -10.522,0 -19.083,8.561 -19.083,19.083 0,10.523 8.561,19.084 19.083,19.084 10.522,0 19.084,-8.561 19.084,-19.084 C 19.084,8.561 10.522,0 0,0 Z"
             style="fill:none;stroke:#000000;stroke-width:15;stroke-linecap:round;stroke-linejoin:round;stroke-miterlimit:10;stroke-dasharray:none;stroke-opacity:1"
             id="path2316" /></g><g
           id="g2318"
           transform="translate(485.417,428.814)"><path
             d="m 0,0 c -10.522,0 -19.084,8.561 -19.084,19.083 0,10.523 8.562,19.084 19.084,19.084 10.522,0 19.083,-8.561 19.083,-19.084 C 19.083,8.561 10.522,0 0,0 Z"
             style="fill:none;stroke:#000000;stroke-width:15;stroke-linecap:round;stroke-linejoin:round;stroke-miterlimit:10;stroke-dasharray:none;stroke-opacity:1"
             id="path2320" /></g><g
           id="g2322"
           transform="translate(114.0078,7.5)"><path
             d="m 0,0 c 10.522,0 19.083,8.561 19.083,19.083 0,10.523 -8.561,19.084 -19.083,19.084 -10.522,0 -19.083,-8.561 -19.083,-19.084 C -19.083,8.561 -10.522,0 0,0 Z"
             style="fill:none;stroke:#000000;stroke-width:15;stroke-linecap:round;stroke-linejoin:round;stroke-miterlimit:10;stroke-dasharray:none;stroke-opacity:1"
             id="path2324" /></g><g
           id="g2326"
           transform="translate(185.5078,94.457)"><path
             d="m 0,0 v -57.874 c 0,-5.522 -4.477,-10 -10,-10 h -42.417"
             style="fill:none;stroke:#000000;stroke-width:15;stroke-linecap:round;stroke-linejoin:round;stroke-miterlimit:10;stroke-dasharray:none;stroke-opacity:1"
             id="path2328" /></g><g
           id="g2330"
           transform="translate(397.9922,7.5)"><path
             d="m 0,0 c -10.522,0 -19.083,8.561 -19.083,19.083 0,10.523 8.561,19.084 19.083,19.084 10.522,0 19.083,-8.561 19.083,-19.084 C 19.083,8.561 10.522,0 0,0 Z"
             style="fill:none;stroke:#000000;stroke-width:15;stroke-linecap:round;stroke-linejoin:round;stroke-miterlimit:10;stroke-dasharray:none;stroke-opacity:1"
             id="path2332" /></g><g
           id="g2334"
           transform="translate(326.4922,94.457)"><path
             d="m 0,0 v -57.874 c 0,-5.522 4.477,-10 10,-10 h 42.417"
             style="fill:none;stroke:#000000;stroke-width:15;stroke-linecap:round;stroke-linejoin:round;stroke-miterlimit:10;stroke-dasharray:none;stroke-opacity:1"
             id="path2336" /></g><g
           id="g2338"
           transform="translate(386.3799,219.1074)"><path
             d="m 0,0 h 30.135 c 5.522,0 10,-4.477 10,-10 v -66.299 c 0,-5.523 4.476,-10 10,-10 h 38.902 c 5.523,0 10,-4.477 10,-10 v -37.142"
             style="fill:none;stroke:#000000;stroke-width:15;stroke-linecap:round;stroke-linejoin:round;stroke-miterlimit:10;stroke-dasharray:none;stroke-opacity:1"
             id="path2340" /></g><g
           id="g2342"
           transform="translate(485.417,47.5)"><path
             d="m 0,0 c -10.522,0 -19.084,8.561 -19.084,19.083 0,10.523 8.562,19.084 19.084,19.084 10.522,0 19.083,-8.561 19.083,-19.084 C 19.083,8.561 10.522,0 0,0 Z"
             style="fill:none;stroke:#000000;stroke-width:15;stroke-linecap:round;stroke-linejoin:round;stroke-miterlimit:10;stroke-dasharray:none;stroke-opacity:1"
             id="path2344" /></g><g
           id="g2346"
           transform="translate(485.417,166.5835)"><path
             d="m 0,0 c -10.522,0 -19.084,8.561 -19.084,19.083 0,10.522 8.562,19.084 19.084,19.084 10.522,0 19.083,-8.562 19.083,-19.084 C 19.083,8.561 10.522,0 0,0 Z"
             style="fill:none;stroke:#000000;stroke-width:15;stroke-linecap:round;stroke-linejoin:round;stroke-miterlimit:10;stroke-dasharray:none;stroke-opacity:1"
             id="path2348" /></g><g
           id="g2350"
           transform="translate(426.5146,185.6665)"><path
             d="M 0,0 H 39.818"
             style="fill:none;stroke:#000000;stroke-width:15;stroke-linecap:round;stroke-linejoin:round;stroke-miterlimit:10;stroke-dasharray:none;stroke-opacity:1"
             id="path2352" /></g><g
           id="g2354"
           transform="translate(125.6201,219.1074)"><path
             d="m 0,0 h -30.135 c -5.522,0 -10,-4.477 -10,-10 v -66.299 c 0,-5.523 -4.476,-10 -10,-10 h -38.902 c -5.523,0 -10,-4.477 -10,-10 v -37.142"
             style="fill:none;stroke:#000000;stroke-width:15;stroke-linecap:round;stroke-linejoin:round;stroke-miterlimit:10;stroke-dasharray:none;stroke-opacity:1"
             id="path2356" /></g><g
           id="g2358"
           transform="translate(26.583,47.5)"><path
             d="m 0,0 c 10.522,0 19.084,8.561 19.084,19.083 0,10.523 -8.562,19.084 -19.084,19.084 -10.522,0 -19.083,-8.561 -19.083,-19.084 C -19.083,8.561 -10.522,0 0,0 Z"
             style="fill:none;stroke:#000000;stroke-width:15;stroke-linecap:round;stroke-linejoin:round;stroke-miterlimit:10;stroke-dasharray:none;stroke-opacity:1"
             id="path2360" /></g><g
           id="g2362"
           transform="translate(26.583,166.5835)"><path
             d="m 0,0 c 10.522,0 19.084,8.561 19.084,19.083 0,10.522 -8.562,19.084 -19.084,19.084 -10.522,0 -19.083,-8.562 -19.083,-19.084 C -19.083,8.561 -10.522,0 0,0 Z"
             style="fill:none;stroke:#000000;stroke-width:15;stroke-linecap:round;stroke-linejoin:round;stroke-miterlimit:10;stroke-dasharray:none;stroke-opacity:1"
             id="path2364" /></g><g
           id="g2366"
           transform="translate(85.4854,185.6665)"><path
             d="M 0,0 H -38.818"
             style="fill:none;stroke:#000000;stroke-width:15;stroke-linecap:round;stroke-linejoin:round;stroke-miterlimit:10;stroke-dasharray:none;stroke-opacity:1"
             id="path2368" /></g></g></g></g></svg>
