<?xml version="1.0" encoding="UTF-8" standalone="no"?>
<!-- Created with Inkscape (http://www.inkscape.org/) -->

<svg
   version="1.1"
   id="svg1431"
   xml:space="preserve"
   width="682.66669"
   height="682.66669"
   viewBox="0 0 682.66669 682.66669"
   xmlns="http://www.w3.org/2000/svg"
   xmlns:svg="http://www.w3.org/2000/svg"><defs
     id="defs1435"><clipPath
       clipPathUnits="userSpaceOnUse"
       id="clipPath1445"><path
         d="M 0,512 H 512 V 0 H 0 Z"
         id="path1443" /></clipPath></defs><g
     id="g1437"
     transform="matrix(1.3333333,0,0,-1.3333333,0,682.66667)"><g
       id="g1439"><g
         id="g1441"
         clip-path="url(#clipPath1445)"><g
           id="g1447"
           transform="translate(99.894,392.2686)"><path
             d="m 0,0 c -54.341,-37.956 -89.895,-100.956 -89.895,-172.269 -0.001,-115.363 94.637,-210 209.999,-210 115.98,0 210,94.02 210,210 0,42.376 6.591,52.028 26.835,68.195 27.529,21.987 45.167,55.835 45.167,93.807 0,65.922 -54.078,120 -120,120 -37.972,0 -71.82,-17.639 -93.807,-45.168 -16.167,-20.243 -25.819,-26.834 -68.194,-26.834 -12.796,0 -25.323,-1.148 -37.488,-3.34"
             style="fill:none;stroke:#000000;stroke-width:20;stroke-linecap:round;stroke-linejoin:round;stroke-miterlimit:22.926;stroke-dasharray:none;stroke-opacity:1"
             id="path1449" /></g><g
           id="g1451"
           transform="translate(382,452.002)"><path
             d="m 0,0 c -21.428,0 -41.388,-9.656 -54.737,-26.371 -30.609,-38.324 -58.782,-45.631 -107.264,-45.631 -88.381,0 -160,-71.619 -160,-160 0,-87.764 72.235,-160 160,-160 88.381,0 160,71.619 160,160 0,48.482 7.306,76.655 45.631,107.264 C 60.345,-111.389 70,-91.429 70,-70 70,-31.678 38.323,0 0,0 Z"
             style="fill:none;stroke:#000000;stroke-width:20;stroke-linecap:round;stroke-linejoin:round;stroke-miterlimit:22.926;stroke-dasharray:none;stroke-opacity:1"
             id="path1453" /></g><g
           id="g1455"
           transform="translate(219.999,383.7119)"><path
             d="M 0,0 V 42.576"
             style="fill:none;stroke:#000000;stroke-width:20;stroke-linecap:round;stroke-linejoin:round;stroke-miterlimit:22.926;stroke-dasharray:none;stroke-opacity:1"
             id="path1457" /></g><g
           id="g1459"
           transform="translate(104.2368,335.7617)"><path
             d="M 0,0 -30.106,30.105"
             style="fill:none;stroke:#000000;stroke-width:20;stroke-linecap:round;stroke-linejoin:round;stroke-miterlimit:22.926;stroke-dasharray:none;stroke-opacity:1"
             id="path1461" /></g><g
           id="g1463"
           transform="translate(56.2866,220)"><path
             d="M 0,0 H -42.576"
             style="fill:none;stroke:#000000;stroke-width:20;stroke-linecap:round;stroke-linejoin:round;stroke-miterlimit:22.926;stroke-dasharray:none;stroke-opacity:1"
             id="path1465" /></g><g
           id="g1467"
           transform="translate(104.2363,104.2378)"><path
             d="M 0,0 -30.105,-30.105"
             style="fill:none;stroke:#000000;stroke-width:20;stroke-linecap:round;stroke-linejoin:round;stroke-miterlimit:22.926;stroke-dasharray:none;stroke-opacity:1"
             id="path1469" /></g><g
           id="g1471"
           transform="translate(219.998,56.2876)"><path
             d="M 0,0 V -42.576"
             style="fill:none;stroke:#000000;stroke-width:20;stroke-linecap:round;stroke-linejoin:round;stroke-miterlimit:22.926;stroke-dasharray:none;stroke-opacity:1"
             id="path1473" /></g><g
           id="g1475"
           transform="translate(335.7603,104.2373)"><path
             d="M 0,0 30.106,-30.105"
             style="fill:none;stroke:#000000;stroke-width:20;stroke-linecap:round;stroke-linejoin:round;stroke-miterlimit:22.926;stroke-dasharray:none;stroke-opacity:1"
             id="path1477" /></g><g
           id="g1479"
           transform="translate(383.7104,219.9995)"><path
             d="M 0,0 H 42.576"
             style="fill:none;stroke:#000000;stroke-width:20;stroke-linecap:round;stroke-linejoin:round;stroke-miterlimit:22.926;stroke-dasharray:none;stroke-opacity:1"
             id="path1481" /></g><g
           id="g1483"
           transform="translate(433.064,433.0649)"><path
             d="M 0,0 32.223,32.223"
             style="fill:none;stroke:#000000;stroke-width:20;stroke-linecap:round;stroke-linejoin:round;stroke-miterlimit:22.926;stroke-dasharray:none;stroke-opacity:1"
             id="path1485" /></g><g
           id="g1487"
           transform="translate(363.3096,451.7559)"><path
             d="M 0,0 -11.794,44.018"
             style="fill:none;stroke:#000000;stroke-width:20;stroke-linecap:round;stroke-linejoin:round;stroke-miterlimit:22.926;stroke-dasharray:none;stroke-opacity:1"
             id="path1489" /></g><g
           id="g1491"
           transform="translate(451.7539,363.3105)"><path
             d="M 0,0 44.018,-11.794"
             style="fill:none;stroke:#000000;stroke-width:20;stroke-linecap:round;stroke-linejoin:round;stroke-miterlimit:22.926;stroke-dasharray:none;stroke-opacity:1"
             id="path1493" /></g><g
           id="g1495"
           transform="translate(129.0845,184.1987)"><path
             d="M 0,0 C 10.892,0 11.648,10.146 22.541,10.146 33.433,10.146 34.189,0 45.081,0 55.973,0 56.73,10.146 67.622,10.146 78.514,10.146 79.271,0 90.163,0 101.054,0 101.812,10.146 112.703,10.146 123.595,10.146 124.352,0 135.244,0 146.136,0 146.893,10.146 157.785,10.146 168.676,10.146 169.433,0 180.325,0"
             style="fill:none;stroke:#000000;stroke-width:20;stroke-linecap:round;stroke-linejoin:round;stroke-miterlimit:22.926;stroke-dasharray:none;stroke-opacity:1"
             id="path1497" /></g><g
           id="g1499"
           transform="translate(191.0845,280.1992)"><path
             d="M 0,0 C 10.892,0 11.649,10.145 22.541,10.145 33.433,10.145 34.189,0 45.082,0 55.973,0 56.73,10.145 67.622,10.145 78.514,10.145 79.271,0 90.163,0 101.055,0 101.812,10.145 112.703,10.145 123.595,10.145 124.352,0 135.244,0"
             style="fill:none;stroke:#000000;stroke-width:20;stroke-linecap:round;stroke-linejoin:round;stroke-miterlimit:22.926;stroke-dasharray:none;stroke-opacity:1"
             id="path1501" /></g><g
           id="g1503"
           transform="translate(306.0439,353.9487)"><path
             d="M 0,0 C 10.892,0 11.648,10.146 22.541,10.146 33.433,10.146 34.189,0 45.082,0 55.973,0 56.73,10.146 67.622,10.146 78.514,10.146 79.271,0 90.163,0"
             style="fill:none;stroke:#000000;stroke-width:20;stroke-linecap:round;stroke-linejoin:round;stroke-miterlimit:22.926;stroke-dasharray:none;stroke-opacity:1"
             id="path1505" /></g><g
           id="g1507"
           transform="translate(139.3311,413.9473)"><path
             d="M 0,0 H 0.008"
             style="fill:none;stroke:#000000;stroke-width:20;stroke-linecap:round;stroke-linejoin:round;stroke-miterlimit:2.613;stroke-dasharray:none;stroke-opacity:1"
             id="path1509" /></g></g></g></g></svg>
