<svg width="512" height="512" fill="#393939" viewBox="0 0 512 512"  xmlns="http://www.w3.org/2000/svg">
<path d="M376.661 393.213H59.038C35.139 393.213 15.696 373.771 15.696 349.872V162.129C15.696 138.23 35.139 118.787 59.038 118.787H107.463C111.797 118.787 115.311 115.274 115.311 110.939C115.311 106.604 111.797 103.091 107.463 103.091H59.038C26.484 103.091 0 129.575 0 162.129V349.872C0 382.426 26.484 408.909 59.038 408.909H376.661C380.995 408.909 384.509 405.396 384.509 401.061C384.509 396.726 380.995 393.213 376.661 393.213Z" />
<path d="M452.962 103.091H138.855C134.521 103.091 131.007 106.604 131.007 110.939C131.007 115.274 134.521 118.787 138.855 118.787H452.962C476.861 118.787 496.304 138.23 496.304 162.129V349.872C496.304 373.771 476.861 393.213 452.962 393.213H408.053C403.719 393.213 400.205 396.726 400.205 401.061C400.205 405.396 403.719 408.909 408.053 408.909H452.962C485.516 408.909 512 382.425 512 349.872V162.129C512 129.575 485.516 103.091 452.962 103.091Z" />
<path d="M452.963 139.715H59.038C46.679 139.715 36.624 149.771 36.624 162.129V349.871C36.624 362.23 46.679 372.285 59.038 372.285H452.963C465.322 372.285 475.376 362.23 475.376 349.871V162.129C475.376 149.77 465.322 139.715 452.963 139.715ZM459.679 349.871C459.679 353.575 456.666 356.589 452.962 356.589H59.038C55.334 356.589 52.32 353.575 52.32 349.871V319.965H459.679V349.871ZM459.679 304.269H52.32V207.731H459.679V304.269ZM459.679 192.035H52.32V162.129C52.32 158.425 55.334 155.411 59.038 155.411H452.963C456.666 155.411 459.679 158.425 459.679 162.129V192.035Z" />
<path d="M100.322 217.31H81.7904L68.8984 297.883H80.5244L82.7114 283.265H98.2504L100.437 297.883H113.214L100.322 217.31ZM84.3224 272.329L90.4234 231.582L96.5244 272.329H84.3224Z" />
<path d="M153.154 254.947C158.794 252.3 161.326 247.005 161.326 238.717V235.839C161.326 223.408 155.686 217.307 142.564 217.307H123.457V297.88H143.37C156.031 297.881 162.592 291.205 162.592 278.774V272.212C162.593 263.695 159.946 257.594 153.154 254.947ZM136.119 228.819H142.22C146.709 228.819 148.666 231.351 148.666 237.107V241.595C148.666 248.041 145.788 250.114 141.069 250.114H136.119V228.819ZM149.932 278.43C149.932 284.415 147.63 286.372 143.371 286.372H136.119V261.624H141.759C147.514 261.624 149.931 263.926 149.931 271.408V278.43H149.932Z" />
<path d="M211.281 244.473V236.646C211.281 223.754 204.835 216.388 192.404 216.388C179.973 216.388 173.527 223.755 173.527 236.646V278.544C173.527 291.436 179.972 298.802 192.404 298.802C204.835 298.802 211.281 291.435 211.281 278.544V267.84H199.31V279.35C199.31 285.105 196.778 287.176 192.749 287.176C188.72 287.176 186.188 285.105 186.188 279.35V235.84C186.188 230.085 188.72 227.898 192.749 227.898C196.778 227.898 199.31 230.085 199.31 235.84V244.473H211.281Z" />
<path d="M268.025 251.838H245.004V263.348H268.025V251.838Z" />
<path d="M325.001 217.309C323.044 222.719 320.857 227.438 311.072 227.438V236.416H320.857V297.882H333.518V217.309H325.001Z" />
<path d="M365.862 286.371C365.747 285.795 365.747 285.22 365.747 284.644C365.747 271.407 390.956 261.968 390.956 236.646C390.956 223.754 384.51 216.388 372.079 216.388C359.648 216.388 353.202 223.755 353.202 236.646V244.473H365.172V235.84C365.172 230.085 367.704 227.898 371.734 227.898C375.763 227.898 378.295 229.855 378.295 237.106C378.295 260.357 353.203 264.271 353.203 287.982V297.881H389.805V286.371H389.804H365.862Z" />
<path d="M440.219 238.718V236.646C440.219 223.754 433.773 216.388 421.342 216.388C408.911 216.388 402.465 223.755 402.465 236.646V241.02H414.435V235.84C414.435 230.085 416.968 227.898 420.997 227.898C425.026 227.898 427.558 229.855 427.558 237.106V241.594C427.558 248.04 424.68 250.113 419.961 250.113H415.013V261.623H419.271C425.026 261.623 427.559 264.387 427.559 271.867V278.198C427.559 285.334 425.027 287.291 420.998 287.291C416.969 287.291 414.436 285.104 414.436 279.349V271.867H402.466V278.543C402.466 291.435 408.912 298.801 421.343 298.801C433.774 298.801 440.22 291.434 440.22 278.543V272.212C440.22 264.04 437.688 258.054 431.357 255.292C437.456 252.761 440.219 247.351 440.219 238.718Z" />
<path d="M128.938 182.458C133.686 182.458 137.536 178.608 137.536 173.86C137.536 169.111 133.686 165.262 128.938 165.262C124.189 165.262 120.34 169.111 120.34 173.86C120.34 178.608 124.189 182.458 128.938 182.458Z" />
<path d="M128.938 346.911C133.686 346.911 137.536 343.061 137.536 338.313C137.536 333.564 133.686 329.715 128.938 329.715C124.189 329.715 120.34 333.564 120.34 338.313C120.34 343.061 124.189 346.911 128.938 346.911Z" />
<path d="M383.067 182.458C387.815 182.458 391.665 178.608 391.665 173.86C391.665 169.111 387.815 165.262 383.067 165.262C378.318 165.262 374.469 169.111 374.469 173.86C374.469 178.608 378.318 182.458 383.067 182.458Z" />
<path d="M383.067 346.911C387.815 346.911 391.665 343.061 391.665 338.313C391.665 333.564 387.815 329.715 383.067 329.715C378.318 329.715 374.469 333.564 374.469 338.313C374.469 343.061 378.318 346.911 383.067 346.911Z" />
</svg>
