<svg width="512" height="512" viewBox="0 0 512 512" fill="#393939" xmlns="http://www.w3.org/2000/svg">
<path d="M82 281.701H56C50.762 281.701 46.5 285.963 46.5 291.201V338.172C46.5 343.41 50.762 347.672 56 347.672H82C87.238 347.672 91.5 343.41 91.5 338.172V291.201C91.5 285.963 87.238 281.701 82 281.701ZM76.5 332.672H61.5V296.701H76.5V332.672Z" />
<path d="M499.5 198.015C506.393 198.015 512 192.408 512 185.515V138.172C512 131.279 506.393 125.672 499.5 125.672H416.5V102.672C416.5 79.2369 397.435 60.1719 374 60.1719H198.073C186.329 44.1229 167.366 33.6719 146 33.6719C110.435 33.6719 81.5 62.6069 81.5 98.1719C81.5 108.004 83.72 117.325 87.672 125.672H12.5C5.607 125.672 0 131.279 0 138.172V185.515C0 192.408 5.607 198.015 12.5 198.015H19.5V436.632H12.5C5.607 436.632 0 442.239 0 449.132V465.828C0 472.721 5.607 478.328 12.5 478.328H499.5C506.393 478.328 512 472.721 512 465.828V449.132C512 442.239 506.393 436.632 499.5 436.632H492.5V198.015H499.5ZM206.246 75.1719H374C389.164 75.1719 401.5 87.5079 401.5 102.672V125.672H204.328C208.279 117.325 210.5 108.004 210.5 98.1719C210.5 90.0709 208.985 82.3209 206.246 75.1719ZM497 140.672V157.672H170.888C179.993 153.849 188.033 147.987 194.457 140.672H497ZM99.338 81.6719H113.591L126.165 117.648C127.175 120.535 129.834 122.487 132.863 122.642C131.656 123.973 130.915 125.734 130.915 127.672C130.915 131.814 134.273 135.172 138.415 135.172C142.557 135.172 145.915 131.814 145.915 127.672C145.915 125.748 145.185 124 143.994 122.672H155.836C154.646 124 153.915 125.748 153.915 127.672C153.915 131.814 157.273 135.172 161.415 135.172C165.557 135.172 168.915 131.814 168.915 127.672C168.915 125.737 168.176 123.979 166.973 122.649C170.036 122.525 172.732 120.561 173.751 117.648L184.08 88.1069C184.882 85.8129 184.523 83.2729 183.117 81.2909C181.71 79.3089 179.431 78.1319 177.001 78.1319H128.245L125.996 71.6979C124.944 68.6879 122.104 66.6729 118.916 66.6729H107.846C116.933 55.6859 130.663 48.6729 146.001 48.6729C173.295 48.6729 195.501 70.8789 195.501 98.1729C195.501 125.467 173.295 147.673 146.001 147.673C118.707 147.673 96.501 125.467 96.501 98.1729C96.5 92.3879 97.507 86.8359 99.338 81.6719ZM133.486 93.1309H166.432L161.348 107.672H138.568L133.486 93.1309ZM15 140.672H97.543C103.967 147.987 112.006 153.849 121.112 157.672H15V140.672ZM188.659 436.632H129C124.858 436.632 121.5 439.99 121.5 444.132C121.5 448.274 124.858 451.632 129 451.632H188.659V463.328H15V451.632H94C98.142 451.632 101.5 448.274 101.5 444.132C101.5 439.99 98.142 436.632 94 436.632H34.5V418.672H188.659V436.632ZM34.5 403.672V239.086H103.5V403.671H34.5V403.672ZM188.659 403.672H118.5V239.086H188.659V403.672ZM308.341 463.328H203.659V276.701H308.341V463.328ZM308.341 261.701H203.659V239.087H308.341V261.701ZM497 451.632V463.328H323.341V451.632H497ZM401 308.5C405.142 308.5 408.5 305.142 408.5 301V239.086H477.5V403.671H408.5V336C408.5 331.858 405.142 328.5 401 328.5C396.858 328.5 393.5 331.858 393.5 336V403.672H323.341V239.086H393.5V301C393.5 305.142 396.858 308.5 401 308.5ZM477.5 418.672V436.632H323.341V418.672H477.5ZM168 198.015H477.5V224.086H34.5V198.015H133C137.142 198.015 140.5 194.657 140.5 190.515C140.5 186.373 137.142 183.015 133 183.015H15V172.672H497V183.015H168C163.858 183.015 160.5 186.373 160.5 190.515C160.5 194.657 163.858 198.015 168 198.015Z" />
<path d="M286.865 388.283C291.007 388.283 294.365 384.925 294.365 380.783V346.588C294.365 342.446 291.007 339.088 286.865 339.088C282.723 339.088 279.365 342.446 279.365 346.588V380.783C279.365 384.925 282.723 388.283 286.865 388.283Z" />
<path d="M223 338.826H251C256.238 338.826 260.5 334.564 260.5 329.326V295.172C260.5 289.934 256.238 285.672 251 285.672H223C217.762 285.672 213.5 289.934 213.5 295.172V329.326C213.5 334.564 217.762 338.826 223 338.826ZM228.5 300.672H245.5V323.826H228.5V300.672Z" />
<path d="M223 387.672H251C256.238 387.672 260.5 383.41 260.5 378.172V355.582C260.5 350.344 256.238 346.082 251 346.082H223C217.762 346.082 213.5 350.344 213.5 355.582V378.172C213.5 383.41 217.762 387.672 223 387.672ZM228.5 361.082H245.5V372.672H228.5V361.082Z" />
<path d="M427 350.286H459C464.238 350.286 468.5 346.024 468.5 340.786V291.201C468.5 285.963 464.238 281.701 459 281.701H427C421.762 281.701 417.5 285.963 417.5 291.201V340.786C417.5 346.024 421.762 350.286 427 350.286ZM432.5 296.701H453.5V335.286H432.5V296.701Z" />
<path d="M240 108.672H359C363.142 108.672 366.5 105.314 366.5 101.172C366.5 97.0299 363.142 93.6719 359 93.6719H240C235.858 93.6719 232.5 97.0299 232.5 101.172C232.5 105.314 235.858 108.672 240 108.672Z" />
</svg>
