<?xml version="1.0" encoding="UTF-8" standalone="no"?>
<!-- Created with Inkscape (http://www.inkscape.org/) -->

<svg
   version="1.1"
   id="svg2916"
   stroke='#000000'
   xml:space="preserve"
   width="682.66669"
   height="682.66669"
   viewBox="0 0 682.66669 682.66669"
   xmlns="http://www.w3.org/2000/svg"
   xmlns:svg="http://www.w3.org/2000/svg"><defs
     id="defs2920"><clipPath
       clipPathUnits="userSpaceOnUse"
       id="clipPath2938"><path
         d="M 0,512 H 512 V 0 H 0 Z"
         id="path2936" /></clipPath></defs><g
     id="g2922"
     transform="matrix(1.3333333,0,0,-1.3333333,0,682.66667)"><g
       id="g2924"
       transform="translate(133.4609,274.3779)"><path
         d="M 0,0 V -83.414"
         style="fill:none;stroke-width:15;stroke-linecap:round;stroke-linejoin:round;stroke-miterlimit:10;stroke-dasharray:none;stroke-opacity:1"
         id="path2926" /></g><g
       id="g2928"
       transform="translate(92.1045,244.3857)"><path
         d="M 0,0 H 82.713"
         style="fill:none;stroke-width:15;stroke-linecap:round;stroke-linejoin:round;stroke-miterlimit:10;stroke-dasharray:none;stroke-opacity:1"
         id="path2930" /></g><g
       id="g2932"><g
         id="g2934"
         clip-path="url(#clipPath2938)"><g
           id="g2940"
           transform="translate(416.6348,44.9121)"><path
             d="M 0,0 H 66.896 C 77.193,0 85.63,-8.419 85.63,-18.721 V -32.39 c 0,-2.767 -2.259,-5.022 -5.033,-5.022 h -197.116 c -2.774,0 -5.062,2.255 -5.062,5.022 v 13.669 c 0,10.302 8.437,18.721 18.763,18.721 h 66.496"
             style="fill:none;stroke-width:15;stroke-linecap:round;stroke-linejoin:round;stroke-miterlimit:10;stroke-dasharray:none;stroke-opacity:1"
             id="path2942" /></g><g
           id="g2944"
           transform="translate(423.0703,202.1504)"><path
             d="M 0,0 V -89.491 H -51.167 V 0"
             style="fill:none;stroke-width:15;stroke-linecap:round;stroke-linejoin:round;stroke-miterlimit:10;stroke-dasharray:none;stroke-opacity:1"
             id="path2946" /></g><g
           id="g2948"
           transform="translate(371.9033,202.1504)"><path
             d="M 0,0 V 89.492"
             style="fill:none;stroke-width:15;stroke-linecap:round;stroke-linejoin:round;stroke-miterlimit:10;stroke-dasharray:none;stroke-opacity:1"
             id="path2950" /></g><g
           id="g2952"
           transform="translate(423.0703,291.6426)"><path
             d="M 0,0 V -89.492"
             style="fill:none;stroke-width:15;stroke-linecap:round;stroke-linejoin:round;stroke-miterlimit:10;stroke-dasharray:none;stroke-opacity:1"
             id="path2954" /></g><g
           id="g2956"
           transform="translate(371.9033,291.6426)"><path
             d="M 0,0 V 89.492"
             style="fill:none;stroke-width:15;stroke-linecap:round;stroke-linejoin:round;stroke-miterlimit:10;stroke-dasharray:none;stroke-opacity:1"
             id="path2958" /></g><g
           id="g2960"
           transform="translate(423.0703,381.1348)"><path
             d="M 0,0 V -89.492"
             style="fill:none;stroke-width:15;stroke-linecap:round;stroke-linejoin:round;stroke-miterlimit:10;stroke-dasharray:none;stroke-opacity:1"
             id="path2962" /></g><g
           id="g2964"
           transform="translate(371.9033,322.4629)"><path
             d="M 0,0 51.167,-52.451 0,-104.902 51.167,-157.354 0,-209.804"
             style="fill:none;stroke-width:15;stroke-linecap:round;stroke-linejoin:round;stroke-miterlimit:10;stroke-dasharray:none;stroke-opacity:1"
             id="path2966" /></g><g
           id="g2968"
           transform="translate(371.9033,381.1348)"><path
             d="M 0,0 V 46.229 H 51.167 V 0"
             style="fill:none;stroke-width:15;stroke-linecap:round;stroke-linejoin:round;stroke-miterlimit:10;stroke-dasharray:none;stroke-opacity:1"
             id="path2970" /></g><g
           id="g2972"
           transform="translate(371.9033,427.3643)"><path
             d="M 0,0 51.167,-52.451 0,-104.901"
             style="fill:none;stroke-width:15;stroke-linecap:round;stroke-linejoin:round;stroke-miterlimit:10;stroke-dasharray:none;stroke-opacity:1"
             id="path2974" /></g><g
           id="g2976"
           transform="translate(349.7959,504.5)"><path
             d="m 0,0 h 95.383 c 2.688,0 4.861,-2.169 4.861,-4.852 v -67.432 c 0,-2.654 -2.173,-4.852 -4.861,-4.852 H 0 c -2.688,0 -4.862,2.198 -4.862,4.852 V -4.852 C -4.862,-2.169 -2.688,0 0,0 Z"
             style="fill:none;stroke-width:15;stroke-linecap:round;stroke-linejoin:round;stroke-miterlimit:10;stroke-dasharray:none;stroke-opacity:1"
             id="path2978" /></g><g
           id="g2980"
           transform="translate(323.2539,491.459)"><path
             d="m 0,0 h 21.68 m 0,-51.053 H 0"
             style="fill:none;stroke-width:15;stroke-linecap:round;stroke-linejoin:round;stroke-miterlimit:10;stroke-dasharray:none;stroke-opacity:1"
             id="path2982" /></g><g
           id="g2984"
           transform="translate(323.2539,440.4062)"><path
             d="M 0,0 H -89.691"
             style="fill:none;stroke-width:15;stroke-linecap:round;stroke-linejoin:round;stroke-miterlimit:10;stroke-dasharray:none;stroke-opacity:1"
             id="path2986" /></g><g
           id="g2988"
           transform="translate(233.5625,491.459)"><path
             d="M 0,0 H 89.691"
             style="fill:none;stroke-width:15;stroke-linecap:round;stroke-linejoin:round;stroke-miterlimit:10;stroke-dasharray:none;stroke-opacity:1"
             id="path2990" /></g><g
           id="g2992"
           transform="translate(233.5625,440.4062)"><path
             d="m 0,0 h -107.366 c -3.432,0 -6.235,2.226 -6.235,4.908 v 41.236 c 0,2.71 2.803,4.909 6.235,4.909 H 0"
             style="fill:none;stroke-width:15;stroke-linecap:round;stroke-linejoin:round;stroke-miterlimit:10;stroke-dasharray:none;stroke-opacity:1"
             id="path2994" /></g><g
           id="g2996"
           transform="translate(450.04,491.459)"><path
             d="M 0,0 50.938,-49.455 M -157.675,-51.053 -105.106,0"
             style="fill:none;stroke-width:15;stroke-linecap:round;stroke-linejoin:round;stroke-miterlimit:10;stroke-dasharray:none;stroke-opacity:1"
             id="path2998" /></g><g
           id="g3000"
           transform="translate(134.6621,491.459)"><path
             d="M 0,0 52.567,-51.053 105.136,0 157.703,-51.053"
             style="fill:none;stroke-width:15;stroke-linecap:round;stroke-linejoin:round;stroke-miterlimit:10;stroke-dasharray:none;stroke-opacity:1"
             id="path3002" /></g><g
           id="g3004"
           transform="translate(169.3828,440.4062)"><path
             d="M 0,0 V -36.328"
             style="fill:none;stroke-width:15;stroke-linecap:round;stroke-linejoin:round;stroke-miterlimit:10;stroke-dasharray:none;stroke-opacity:1"
             id="path3006" /></g><g
           id="g3008"
           transform="translate(127.2832,370.0625)"><path
             d="m 0,0 h 84.172 c 2.431,0 4.432,-1.97 4.432,-4.395 v -35.072 c 0,-2.426 -2.001,-4.423 -4.432,-4.423 H 0 c -2.431,0 -4.404,1.997 -4.404,4.423 V -4.395 C -4.404,-1.97 -2.431,0 0,0 Z"
             style="fill:none;stroke-width:15;stroke-linecap:round;stroke-linejoin:round;stroke-miterlimit:10;stroke-dasharray:none;stroke-opacity:1"
             id="path3010" /></g><g
           id="g3012"
           transform="translate(169.3828,404.0781)"><path
             d="M 0,0 -32.004,-34.016"
             style="fill:none;stroke-width:15;stroke-linecap:round;stroke-linejoin:round;stroke-miterlimit:10;stroke-dasharray:none;stroke-opacity:1"
             id="path3014" /></g><g
           id="g3016"
           transform="translate(169.3828,404.0781)"><path
             d="M 0,0 32.005,-34.016"
             style="fill:none;stroke-width:15;stroke-linecap:round;stroke-linejoin:round;stroke-miterlimit:10;stroke-dasharray:none;stroke-opacity:1"
             id="path3018" /></g><g
           id="g3020"
           transform="translate(450.04,491.459)"><path
             d="m 0,0 h 46.362 c 3.404,0 6.206,-2.198 6.206,-4.909 v -41.236 c 0,-2.682 -2.802,-4.908 -6.206,-4.908 H 0"
             style="fill:none;stroke-width:15;stroke-linecap:round;stroke-linejoin:round;stroke-miterlimit:10;stroke-dasharray:none;stroke-opacity:1"
             id="path3022" /></g><g
           id="g3024"
           transform="translate(46.0576,153.5527)"><path
             d="m 0,0 h 92.094 c 2.03,0 3.689,-1.685 3.689,-3.71 v -30.592 c 0,-2.054 -1.659,-3.71 -3.689,-3.71 H 0 c -2.03,0 -3.718,1.656 -3.718,3.71 V -3.71 C -3.718,-1.685 -2.03,0 0,0 Z"
             style="fill:none;stroke-width:15;stroke-linecap:round;stroke-linejoin:round;stroke-miterlimit:10;stroke-dasharray:none;stroke-opacity:1"
             id="path3026" /></g><g
           id="g3028"
           transform="translate(92.1045,153.5527)"><path
             d="M 0,0 V -38.012"
             style="fill:none;stroke-width:15;stroke-linecap:round;stroke-linejoin:round;stroke-miterlimit:10;stroke-dasharray:none;stroke-opacity:1"
             id="path3030" /></g><g
           id="g3032"
           transform="translate(46.0576,78.1289)"><path
             d="m 0,0 h 92.094 c 2.03,0 3.689,-1.684 3.689,-3.71 v -30.592 c 0,-2.054 -1.659,-3.709 -3.689,-3.709 H 0 c -2.03,0 -3.718,1.655 -3.718,3.709 V -3.71 C -3.718,-1.684 -2.03,0 0,0 Z"
             style="fill:none;stroke-width:15;stroke-linecap:round;stroke-linejoin:round;stroke-miterlimit:10;stroke-dasharray:none;stroke-opacity:1"
             id="path3034" /></g><g
           id="g3036"
           transform="translate(92.1045,78.1289)"><path
             d="M 0,0 V -38.011"
             style="fill:none;stroke-width:15;stroke-linecap:round;stroke-linejoin:round;stroke-miterlimit:10;stroke-dasharray:none;stroke-opacity:1"
             id="path3038" /></g><g
           id="g3040"
           transform="translate(174.8174,89.9717)"><path
             d="m 0,0 v -77.763 c 0,-2.568 -1.602,-4.709 -3.547,-4.709 h -158.332 c -1.974,0 -3.547,2.141 -3.547,4.709 V 246.16 c 0,2.597 1.573,4.709 3.547,4.709 h 76.906 c 1.459,0 2.26,-1.057 2.26,-2.341 V 100.992 h 80.139 c 0.972,0 2.574,-0.799 2.574,-2.34 v -63.78"
             style="fill:none;stroke-width:15;stroke-linecap:round;stroke-linejoin:round;stroke-miterlimit:10;stroke-dasharray:none;stroke-opacity:1"
             id="path3042" /></g><g
           id="g3044"
           transform="translate(59.2715,306.9668)"><path
             d="M 0,0 H 30.23"
             style="fill:none;stroke-width:15;stroke-linecap:round;stroke-linejoin:round;stroke-miterlimit:10;stroke-dasharray:none;stroke-opacity:1"
             id="path3046" /></g><g
           id="g3048"
           transform="translate(61.874,264.7324)"><path
             d="M 0,0 H 30.23"
             style="fill:none;stroke-width:15;stroke-linecap:round;stroke-linejoin:round;stroke-miterlimit:10;stroke-dasharray:none;stroke-opacity:1"
             id="path3050" /></g><g
           id="g3052"
           transform="translate(329.5459,44.9121)"><path
             d="m 0,0 v 56.417 c 0,6.25 5.12,11.33 11.354,11.33 h 115.518 c 6.264,0 11.384,-5.08 11.384,-11.33 V 0"
             style="fill:none;stroke-width:15;stroke-linecap:round;stroke-linejoin:round;stroke-miterlimit:10;stroke-dasharray:none;stroke-opacity:1"
             id="path3054" /></g></g></g></g></svg>
