<svg width="512" height="512" viewBox="0 0 512 512" fill="#393939" xmlns="http://www.w3.org/2000/svg">
<g clip-path="url(#clip0_1_508)">
<path d="M17.0667 494.934C17.0667 504.359 24.7077 512 34.1333 512H307.2C316.626 512 324.267 504.359 324.267 494.934V309.419L325.461 313.088C327.248 319.289 332.683 323.739 339.115 324.267H349.867H360.619C366.959 323.79 372.368 319.496 374.272 313.43L383.317 285.099C393.68 282.309 403.635 278.178 412.928 272.811L439.296 286.464C444.879 289.279 451.605 288.472 456.363 284.416C459.008 282.112 461.568 279.723 464.213 277.078C466.859 274.432 469.163 271.958 471.467 269.312C475.522 264.554 476.329 257.828 473.515 252.246L459.861 225.878C465.228 216.584 469.359 206.63 472.149 196.267L500.48 187.222C507.054 185.441 511.716 179.605 512 172.8C512 169.302 512 165.803 512 162.134C512 158.464 512 154.966 512 151.382C511.523 145.041 507.229 139.632 501.163 137.728L472.832 128.683C470.042 118.32 465.911 108.366 460.544 99.0723L474.197 72.7043C477.012 67.1217 476.205 60.3957 472.149 55.6376C469.845 52.9923 467.456 50.4323 464.811 47.7869C462.165 45.1416 459.691 42.8376 457.045 40.5336C452.287 36.478 445.561 35.6709 439.979 38.4856L413.611 52.1389C404.317 46.7718 394.363 42.6409 384 39.8509L374.272 11.1789C372.485 4.97802 367.05 0.528049 360.619 0.000265428C353.46 -0.511807 346.274 -0.511807 339.115 0.000265428C332.774 0.477226 327.365 4.77086 325.461 10.8376L316.416 39.5096C306.053 42.2996 296.099 46.4305 286.805 51.7976L260.437 38.1443C254.855 35.3295 248.129 36.1367 243.371 40.1923C240.725 42.4963 238.165 44.8856 235.52 47.5309C232.875 50.1763 230.571 52.6509 228.267 55.2963C224.211 60.0544 223.404 66.7804 226.219 72.3629L239.872 98.7309C234.505 108.024 230.374 117.979 227.584 128.342L202.581 136.534H17.0667C7.64101 136.534 0 144.175 0 153.6V170.667C0 180.093 7.64101 187.734 17.0667 187.734V494.934ZM136.533 409.6H204.8V494.934H136.533V409.6ZM204.8 153.6L236.629 143.446C239.502 142.526 241.676 140.157 242.347 137.216C245.138 125.412 249.836 114.142 256.256 103.851C257.915 101.288 258.077 98.0336 256.683 95.3176L241.493 65.7069C243.371 63.6589 245.248 61.5256 247.211 59.5629C249.173 57.6003 251.392 55.6376 253.44 53.7603L283.136 69.2056C285.776 70.7299 289.029 70.7299 291.669 69.2056C301.961 62.7857 313.231 58.0875 325.035 55.2963C327.976 54.6255 330.344 52.4518 331.264 49.5789L341.333 17.0669C347.017 16.7187 352.716 16.7187 358.4 17.0669L368.555 48.8963C369.475 51.7691 371.843 53.9428 374.784 54.6136C386.588 57.4049 397.858 62.103 408.149 68.5229C410.79 70.0473 414.042 70.0473 416.683 68.5229L446.293 53.7603C448.341 55.6376 450.475 57.5149 452.437 59.4776C454.4 61.4403 456.363 63.5736 458.24 65.7069L442.795 95.4029C441.27 98.0432 441.27 101.296 442.795 103.936C449.215 114.228 453.913 125.497 456.704 137.302C457.375 140.243 459.548 142.611 462.421 143.531L494.933 153.6V162.134V170.667L463.104 180.822C460.231 181.742 458.057 184.11 457.387 187.051C454.595 198.855 449.897 210.125 443.477 220.416C441.953 223.056 441.953 226.309 443.477 228.95L458.24 258.56C456.363 260.608 454.485 262.742 452.523 264.704C450.56 266.667 448.341 268.63 446.293 270.507L416.597 255.062C413.881 253.667 410.627 253.83 408.064 255.488C397.773 261.908 386.503 266.606 374.699 269.398C371.758 270.068 369.389 272.242 368.469 275.115L358.4 307.2C352.716 307.549 347.017 307.549 341.333 307.2L331.179 275.371C330.259 272.498 327.89 270.324 324.949 269.654C313.145 266.862 301.875 262.164 291.584 255.744C289.021 254.086 285.767 253.923 283.051 255.318L253.44 270.507C251.392 268.63 249.259 266.752 247.296 264.79C245.333 262.827 243.371 260.694 241.493 258.56L256.939 228.864C258.333 226.148 258.171 222.894 256.512 220.331C250.092 210.04 245.394 198.77 242.603 186.966C241.932 184.025 239.758 181.656 236.885 180.736L204.8 170.667C204.8 167.936 204.8 165.092 204.8 162.134C204.8 159.175 204.8 156.331 204.8 153.6ZM17.0667 153.6H187.733V162.134V170.667H17.0667V153.6ZM202.581 187.734L227.243 195.584C230.033 205.947 234.164 215.902 239.531 225.195L225.877 251.563C223.063 257.145 223.87 263.872 227.925 268.63C230.229 271.275 232.619 273.835 235.264 276.48C237.909 279.126 240.384 281.43 243.029 283.734C247.787 287.789 254.513 288.596 260.096 285.782L286.464 272.128C293.054 275.947 299.999 279.119 307.2 281.6V494.934H221.867V409.6H230.4C235.113 409.6 238.933 405.78 238.933 401.067C238.933 396.354 235.113 392.534 230.4 392.534H110.933C106.221 392.534 102.4 396.354 102.4 401.067C102.4 405.78 106.221 409.6 110.933 409.6H119.467V494.934H34.1333V187.734H202.581Z" />
<path d="M102.4 307.2H68.2669C58.8412 307.2 51.2002 314.841 51.2002 324.267V358.4C51.2002 367.826 58.8412 375.467 68.2669 375.467H102.4C111.826 375.467 119.467 367.826 119.467 358.4V324.267C119.467 314.841 111.826 307.2 102.4 307.2ZM68.2669 358.4V324.267H102.4V358.4H68.2669Z" />
<path d="M187.733 307.2H153.6C144.174 307.2 136.533 314.841 136.533 324.267V358.4C136.533 367.826 144.174 375.467 153.6 375.467H187.733C197.159 375.467 204.8 367.826 204.8 358.4V324.267C204.8 314.841 197.159 307.2 187.733 307.2ZM153.6 358.4V324.267H187.733V358.4H153.6Z" />
<path d="M221.866 358.4C221.866 367.826 229.507 375.467 238.933 375.467H273.066C282.492 375.467 290.133 367.826 290.133 358.4V324.267C290.133 314.841 282.492 307.2 273.066 307.2H238.933C229.507 307.2 221.866 314.841 221.866 324.267V358.4ZM238.933 324.267H273.066V358.4H238.933V324.267Z" />
<path d="M51.2002 264.534C51.2002 273.96 58.8412 281.601 68.2669 281.601H102.4C111.826 281.601 119.467 273.96 119.467 264.534V230.401C119.467 220.975 111.826 213.334 102.4 213.334H68.2669C58.8412 213.334 51.2002 220.975 51.2002 230.401V264.534ZM102.4 230.401V264.534H68.2669V230.401H102.4Z" />
<path d="M136.533 264.534C136.533 273.96 144.174 281.601 153.6 281.601H187.733C197.159 281.601 204.8 273.96 204.8 264.534V230.401C204.8 220.975 197.159 213.334 187.733 213.334H153.6C144.174 213.334 136.533 220.975 136.533 230.401V264.534ZM187.733 230.401V264.534H153.6V230.401H187.733Z" />
<path d="M349.867 256C401.708 256 443.733 213.974 443.733 162.133C443.733 110.292 401.708 68.2666 349.867 68.2666C298.026 68.2666 256 110.292 256 162.133C256 213.974 298.026 256 349.867 256ZM332.8 236.971V206.421C332.812 203.361 331.184 200.528 328.533 198.997C316.157 191.823 308.2 178.924 307.342 164.644C306.484 150.364 312.839 136.605 324.267 128V153.6C324.304 158.124 326.075 162.461 329.216 165.717L337.749 174.251C344.554 180.666 355.179 180.666 361.984 174.251L370.517 165.717C373.673 162.471 375.447 158.127 375.467 153.6V128C386.957 136.559 393.384 150.315 392.577 164.62C391.769 178.925 383.836 191.87 371.456 199.083C368.805 200.613 367.177 203.446 367.189 206.507V237.056C355.962 239.673 344.283 239.673 333.056 237.056L332.8 236.971ZM349.867 85.3333C385.446 85.4303 416.301 109.952 424.427 144.592C432.554 179.231 415.824 214.916 384 230.827V211.115C399.77 200.1 409.271 182.165 409.525 162.931C409.779 143.697 400.754 125.517 385.28 114.091C380.247 110.608 373.736 110.088 368.213 112.725C362.281 115.51 358.467 121.447 358.4 128V153.6L349.867 162.133L341.333 153.6V128C341.362 121.493 337.689 115.536 331.861 112.64C326.324 110.027 319.811 110.581 314.795 114.091C299.282 125.463 290.195 143.609 290.381 162.843C290.567 182.077 300.003 200.045 315.733 211.115V230.827C284.395 214.683 268.071 179.278 276.145 144.963C284.219 110.648 314.618 86.2359 349.867 85.7599V85.3333Z" />
</g>
<defs>
<clipPath id="clip0_1_508">
<rect width="512" height="512" fill="white"/>
</clipPath>
</defs>
</svg>
