<svg width="512" height="512" viewBox="0 0 512 512" fill="#393939" xmlns="http://www.w3.org/2000/svg">
<path d="M144 256V496H160V377.631C169.944 394.213 184.013 407.936 200.837 417.464C217.661 426.992 236.665 432 256 432C275.335 432 294.339 426.992 311.163 417.464C327.987 407.936 342.056 394.213 352 377.631V496H368V256C367.99 248.136 365.088 240.55 359.846 234.687C354.605 228.824 347.391 225.093 339.577 224.205C342.091 219.936 343.579 215.141 343.923 210.199C344.267 205.257 343.458 200.302 341.56 195.726C339.661 191.15 336.726 187.077 332.984 183.83C329.243 180.582 324.798 178.249 320 177.013V144C319.942 131.265 316.112 118.832 308.992 108.273C301.873 97.7132 291.784 89.5002 280 84.671V40C280 33.6348 277.471 27.5303 272.971 23.0294C268.47 18.5286 262.365 16 256 16C249.635 16 243.53 18.5286 239.029 23.0294C234.529 27.5303 232 33.6348 232 40V84.671C220.216 89.5002 210.127 97.7132 203.008 108.273C195.888 118.832 192.058 131.265 192 144V177.013C187.202 178.249 182.757 180.582 179.016 183.83C175.274 187.077 172.339 191.15 170.44 195.726C168.542 200.302 167.733 205.257 168.077 210.199C168.421 215.141 169.909 219.936 172.423 224.205C164.609 225.093 157.395 228.824 152.154 234.687C146.912 240.55 144.01 248.136 144 256ZM160 283.7C164.86 286.522 170.38 288.006 176 288C177.502 287.998 179.003 287.891 180.49 287.679C177.546 292.614 175.995 298.254 176 304V373C165.547 357.302 159.98 338.859 160 320V283.7ZM287.679 331.51C292.561 334.417 298.131 335.968 303.814 336.001C309.496 336.035 315.084 334.55 320 331.7V391.493C310.675 399.859 299.805 406.32 288 410.514V336C287.998 334.498 287.891 332.997 287.679 331.51ZM320 304C320 307.165 319.062 310.258 317.304 312.889C315.545 315.52 313.047 317.571 310.123 318.782C307.199 319.993 303.982 320.31 300.879 319.693C297.775 319.075 294.924 317.551 292.686 315.314C290.449 313.076 288.925 310.225 288.307 307.121C287.69 304.018 288.007 300.801 289.218 297.877C290.429 294.953 292.48 292.455 295.111 290.696C297.742 288.938 300.835 288 304 288C308.242 288.005 312.309 289.692 315.308 292.692C318.308 295.691 319.995 299.758 320 304ZM256 320C259.165 320 262.258 320.938 264.889 322.696C267.52 324.455 269.571 326.953 270.782 329.877C271.993 332.801 272.31 336.018 271.693 339.121C271.075 342.225 269.551 345.076 267.314 347.314C265.076 349.551 262.225 351.075 259.121 351.693C256.018 352.31 252.801 351.993 249.877 350.782C246.953 349.571 244.455 347.52 242.696 344.889C240.938 342.258 240 339.165 240 336C240.005 331.758 241.692 327.691 244.692 324.692C247.691 321.692 251.758 320.005 256 320ZM192 331.7C196.861 334.52 202.38 336.005 208 336.005C213.62 336.005 219.139 334.52 224 331.7V410.514C212.195 406.32 201.325 399.859 192 391.493V331.7ZM208 320C204.835 320 201.742 319.062 199.111 317.304C196.48 315.545 194.429 313.047 193.218 310.123C192.007 307.199 191.69 303.982 192.307 300.879C192.925 297.775 194.449 294.924 196.686 292.686C198.924 290.449 201.775 288.925 204.879 288.307C207.982 287.69 211.199 288.007 214.123 289.218C217.047 290.429 219.545 292.48 221.304 295.111C223.062 297.742 224 300.835 224 304C223.995 308.242 222.308 312.309 219.308 315.308C216.309 318.308 212.242 319.995 208 320ZM240 414.659V363.7C244.861 366.52 250.38 368.005 256 368.005C261.62 368.005 267.139 366.52 272 363.7V414.664C261.408 416.452 250.592 416.452 240 414.664V414.659ZM336 373V305.774H335.948C335.981 305.187 336 304.596 336 304C336.005 298.254 334.454 292.614 331.51 287.679C332.997 287.891 334.498 287.998 336 288C341.62 288.004 347.141 286.519 352 283.695V320C352.02 338.859 346.453 357.302 336 373ZM352 256C352 259.165 351.062 262.258 349.304 264.889C347.545 267.52 345.047 269.571 342.123 270.782C339.199 271.993 335.982 272.31 332.879 271.693C329.775 271.075 326.924 269.551 324.686 267.314C322.449 265.076 320.925 262.225 320.307 259.121C319.69 256.018 320.007 252.801 321.218 249.877C322.429 246.953 324.48 244.455 327.111 242.696C329.742 240.938 332.835 240 336 240C340.242 240.005 344.309 241.692 347.308 244.692C350.308 247.691 351.995 251.758 352 256ZM328 208C327.996 210.805 327.255 213.56 325.851 215.988C324.447 218.416 322.429 220.433 320 221.835V194.165C322.429 195.567 324.447 197.584 325.851 200.012C327.255 202.44 327.996 205.195 328 208ZM248 62.624C253.176 64.4587 258.824 64.4587 264 62.624V144C264 146.122 263.157 148.157 261.657 149.657C260.157 151.157 258.122 152 256 152C253.878 152 251.843 151.157 250.343 149.657C248.843 148.157 248 146.122 248 144V62.624ZM256 32C257.582 32 259.129 32.4692 260.445 33.3482C261.76 34.2273 262.786 35.4767 263.391 36.9385C263.997 38.4003 264.155 40.0089 263.846 41.5607C263.538 43.1126 262.776 44.538 261.657 45.6569C260.538 46.7757 259.113 47.5376 257.561 47.8463C256.009 48.155 254.4 47.9965 252.939 47.391C251.477 46.7855 250.227 45.7602 249.348 44.4446C248.469 43.129 248 41.5823 248 40C248.002 37.879 248.846 35.8456 250.346 34.3458C251.846 32.846 253.879 32.0024 256 32ZM232 102.443V144C232 150.365 234.529 156.47 239.029 160.971C243.53 165.471 249.635 168 256 168C262.365 168 268.47 165.471 272.971 160.971C277.471 156.47 280 150.365 280 144V102.443C289.151 107.726 296.303 115.881 300.346 125.643C304.39 135.406 305.099 146.229 302.364 156.436C299.63 166.642 293.603 175.661 285.221 182.093C276.838 188.526 266.566 192.012 256 192.012C245.434 192.012 235.162 188.526 226.779 182.093C218.397 175.661 212.37 166.642 209.636 156.436C206.901 146.229 207.61 135.406 211.654 125.643C215.697 115.881 222.849 107.726 232 102.443ZM256 208C265.087 208.001 274.069 206.063 282.347 202.314C290.624 198.566 298.007 193.094 304 186.264V272C299.417 271.996 294.887 272.977 290.717 274.877C286.546 276.777 282.833 279.551 279.829 283.012C276.824 286.472 274.599 290.538 273.304 294.934C272.008 299.33 271.673 303.953 272.321 308.49C267.384 305.551 261.745 304 256 304C250.255 304 244.616 305.551 239.679 308.49C240.327 303.953 239.992 299.33 238.696 294.934C237.401 290.538 235.176 286.472 232.171 283.012C229.167 279.551 225.454 276.777 221.283 274.877C217.113 272.977 212.583 271.996 208 272V186.264C213.993 193.094 221.376 198.566 229.653 202.314C237.931 206.063 246.913 208.001 256 208ZM192 194.165V221.835C189.568 220.435 187.548 218.42 186.144 215.991C184.74 213.562 184 210.806 184 208C184 205.194 184.74 202.438 186.144 200.009C187.548 197.58 189.568 195.565 192 194.165ZM176 240C179.165 240 182.258 240.938 184.889 242.696C187.52 244.455 189.571 246.953 190.782 249.877C191.993 252.801 192.31 256.018 191.693 259.121C191.075 262.225 189.551 265.076 187.314 267.314C185.076 269.551 182.225 271.075 179.121 271.693C176.018 272.31 172.801 271.993 169.877 270.782C166.953 269.571 164.455 267.52 162.696 264.889C160.938 262.258 160 259.165 160 256C160.005 251.758 161.692 247.691 164.692 244.692C167.691 241.692 171.758 240.005 176 240Z" />
</svg>
