<?xml version="1.0" encoding="UTF-8"?>
<svg xmlns="http://www.w3.org/2000/svg" xmlns:xlink="http://www.w3.org/1999/xlink" version="1.1" id="Capa_1" x="0px" y="0px" viewBox="0 0 512 512" style="enable-background:new 0 0 512 512;" xml:space="preserve" width="512" height="512">
<g>
	<path style="fill:none;stroke:#000000;stroke-width:15;stroke-linecap:round;stroke-linejoin:round;stroke-miterlimit:10;" d="&#10;&#9;&#9;M491.774,151.688H42.44c-3.543,0-6.926,1.477-9.334,4.076l-22.214,23.97c-2.181,2.353-3.392,5.442-3.392,8.65v277.435h497V164.414&#10;&#9;&#9;C504.5,157.386,498.802,151.688,491.774,151.688z"/>
	<path style="fill:none;stroke:#000000;stroke-width:15;stroke-linecap:round;stroke-linejoin:round;stroke-miterlimit:10;" d="&#10;&#9;&#9;M150.498,465.819H7.5V358.837h129.655c7.369,0,13.343,5.974,13.343,13.343V465.819z"/>
	<g>
		<path style="fill:none;stroke:#000000;stroke-width:15;stroke-linecap:round;stroke-linejoin:round;stroke-miterlimit:10;" d="&#10;&#9;&#9;&#9;M132.841,187.3H83.008c-1.834,0-3.48,1.126-4.146,2.835L56.09,248.63c-0.96,2.465,0.431,5.219,2.985,5.909l42.441,11.47&#10;&#9;&#9;&#9;c2.307,0.623,3.709,2.958,3.176,5.287l-10.964,47.943c-1.026,4.485,4.599,7.387,7.659,3.951l62.291-69.925&#10;&#9;&#9;&#9;c1.844-2.07,1.366-5.304-0.997-6.752l-34.362-21.062c-1.84-1.128-2.605-3.413-1.815-5.421l10.478-26.651&#10;&#9;&#9;&#9;C138.129,190.458,135.977,187.3,132.841,187.3z"/>
	</g>
	<path style="fill:none;stroke:#000000;stroke-width:15;stroke-linecap:round;stroke-linejoin:round;stroke-miterlimit:10;" d="&#10;&#9;&#9;M419.635,151.688H263.038v-26.606c0-3.912,3.171-7.083,7.083-7.083h142.432c3.912,0,7.083,3.171,7.083,7.083V151.688z"/>
	<path style="fill:none;stroke:#000000;stroke-width:15;stroke-linecap:round;stroke-linejoin:round;stroke-miterlimit:10;" d="&#10;&#9;&#9;M148.859,151.688H70.561v-26.606c0-3.912,3.171-7.083,7.083-7.083h64.133c3.912,0,7.083,3.171,7.083,7.083V151.688z"/>
	<g>
		
			<line style="fill:none;stroke:#000000;stroke-width:15;stroke-linecap:round;stroke-linejoin:round;stroke-miterlimit:10;" x1="43.535" y1="394.11" x2="59.795" y2="394.11"/>
		
			<line style="fill:none;stroke:#000000;stroke-width:15;stroke-linecap:round;stroke-linejoin:round;stroke-miterlimit:10;" x1="98.202" y1="394.11" x2="114.462" y2="394.11"/>
	</g>
	
		<line style="fill:none;stroke:#000000;stroke-width:15;stroke-linecap:round;stroke-linejoin:round;stroke-miterlimit:10;" x1="70.869" y1="428.018" x2="87.129" y2="428.018"/>
	<g>
		
			<line style="fill:none;stroke:#000000;stroke-width:15;stroke-linecap:round;stroke-linejoin:round;stroke-miterlimit:10;" x1="326.501" y1="221.781" x2="419.932" y2="221.781"/>
		
			<line style="fill:none;stroke:#000000;stroke-width:15;stroke-linecap:round;stroke-linejoin:round;stroke-miterlimit:10;" x1="326.501" y1="256.57" x2="419.932" y2="256.57"/>
		
			<line style="fill:none;stroke:#000000;stroke-width:15;stroke-linecap:round;stroke-linejoin:round;stroke-miterlimit:10;" x1="326.501" y1="291.359" x2="419.932" y2="291.359"/>
		
			<line style="fill:none;stroke:#000000;stroke-width:15;stroke-linecap:round;stroke-linejoin:round;stroke-miterlimit:10;" x1="326.501" y1="326.148" x2="419.932" y2="326.148"/>
		
			<line style="fill:none;stroke:#000000;stroke-width:15;stroke-linecap:round;stroke-linejoin:round;stroke-miterlimit:10;" x1="326.501" y1="360.937" x2="419.932" y2="360.937"/>
		
			<line style="fill:none;stroke:#000000;stroke-width:15;stroke-linecap:round;stroke-linejoin:round;stroke-miterlimit:10;" x1="326.501" y1="395.726" x2="419.932" y2="395.726"/>
	</g>
	<g>
		
			<line style="fill:none;stroke:#000000;stroke-width:15;stroke-linecap:round;stroke-linejoin:round;stroke-miterlimit:10;" x1="199.378" y1="199.908" x2="235.709" y2="199.908"/>
		
			<line style="fill:none;stroke:#000000;stroke-width:15;stroke-linecap:round;stroke-linejoin:round;stroke-miterlimit:10;" x1="199.378" y1="238.22" x2="235.709" y2="238.22"/>
		
			<line style="fill:none;stroke:#000000;stroke-width:15;stroke-linecap:round;stroke-linejoin:round;stroke-miterlimit:10;" x1="199.378" y1="276.532" x2="235.709" y2="276.532"/>
		
			<line style="fill:none;stroke:#000000;stroke-width:15;stroke-linecap:round;stroke-linejoin:round;stroke-miterlimit:10;" x1="199.378" y1="314.844" x2="235.709" y2="314.844"/>
	</g>
	<path style="fill:none;stroke:#000000;stroke-width:15;stroke-linecap:round;stroke-linejoin:round;stroke-miterlimit:10;" d="&#10;&#9;&#9;M183.968,504.5h283.355c5.313,0,10.312-2.514,13.48-6.779l23.697-31.902H7.5l23.697,31.902c3.168,4.265,8.167,6.779,13.48,6.779&#10;&#9;&#9;h110.291"/>
	<path style="fill:none;stroke:#000000;stroke-width:15;stroke-linecap:round;stroke-linejoin:round;stroke-miterlimit:10;" d="&#10;&#9;&#9;M286.798,368.945v46.25c0,5.604,4.543,10.146,10.146,10.146h152.545c5.604,0,10.146-4.542,10.146-10.146V202.312&#10;&#9;&#9;c0-5.604-4.543-10.146-10.146-10.146H296.944c-5.604,0-10.146,4.542-10.146,10.146v137.632"/>
	<path style="fill:none;stroke:#000000;stroke-width:15;stroke-linecap:round;stroke-linejoin:round;stroke-miterlimit:10;" d="&#10;&#9;&#9;M328.215,47.121l-1.045,1.076c-4.062,4.18-6.334,9.779-6.334,15.607V118h44.79V72.891l20.016-20.601h47.398&#10;&#9;&#9;c4.473,0,8.099-3.626,8.099-8.1V15.599c0-4.473-3.626-8.099-8.099-8.099h-56.863c-6.051,0-11.845,2.45-16.062,6.789l-11.616,11.956&#10;&#9;&#9;"/>
</g>















</svg>
