<svg width="512" height="512" viewBox="0 0 512 512" fill="#393939" xmlns="http://www.w3.org/2000/svg">
<g clip-path="url(#clip0_1_288)">
<path d="M503.467 494.933H486.4C481.687 494.933 477.867 498.753 477.867 503.466C477.867 508.179 481.687 512 486.4 512H503.467C508.18 512 512 508.18 512 503.467C512 498.754 508.18 494.933 503.467 494.933Z" />
<path d="M452.267 494.933H315.733V486.4C315.718 472.268 304.265 460.815 290.133 460.8V273.067C290.114 266.998 286.862 261.398 281.6 258.374V145.067C281.567 134.254 274.732 124.632 264.533 121.039V51.2C264.555 32.358 279.824 17.088 298.666 17.067H349.866V59.734C349.881 73.866 361.334 85.319 375.466 85.334H426.666C440.798 85.319 452.251 73.866 452.266 59.734V25.6C452.251 11.468 440.798 0.015 426.666 0H298.666C270.402 0.031 247.497 22.936 247.466 51.2V121.039C237.267 124.631 230.433 134.253 230.399 145.067V258.374C225.137 261.398 221.885 266.998 221.866 273.067V460.8C207.734 460.815 196.281 472.268 196.266 486.4V494.933H8.533C3.82 494.933 0 498.753 0 503.466C0 508.179 3.82 512 8.533 512H452.266C456.979 512 460.799 508.18 460.799 503.467C460.799 498.754 456.979 494.933 452.267 494.933ZM366.933 17.067H426.666C431.376 17.073 435.193 20.89 435.199 25.6V34.133H366.932V17.067H366.933ZM366.933 51.2H435.2V59.733C435.194 64.443 431.377 68.26 426.667 68.266H375.467C370.757 68.26 366.94 64.443 366.934 59.733L366.933 51.2ZM247.467 145.067C247.467 140.354 251.287 136.534 256 136.534C260.713 136.534 264.533 140.354 264.533 145.067V256H247.466L247.467 145.067ZM238.933 273.067H273.066V298.667H238.933V273.067ZM238.933 315.733H273.066V460.8H238.933V315.733ZM298.667 494.933H213.334V486.4C213.34 481.69 217.157 477.873 221.867 477.867H290.134C294.844 477.873 298.661 481.69 298.667 486.4V494.933Z" />
<path d="M349.866 93.867C349.866 91.604 348.967 89.434 347.366 87.834C345.766 86.233 343.596 85.334 341.333 85.334C339.07 85.334 336.9 86.233 335.3 87.834L309.7 113.434C307.522 115.585 306.663 118.738 307.449 121.696C308.235 124.654 310.546 126.965 313.504 127.751C316.462 128.537 319.615 127.678 321.766 125.5L347.366 99.9C348.967 98.3 349.866 96.13 349.866 93.867Z" />
<path d="M480.367 125.5C481.965 127.103 484.136 128.003 486.4 128C489.851 127.999 492.962 125.92 494.282 122.732C495.602 119.544 494.873 115.874 492.433 113.434L466.833 87.8344C463.492 84.5534 458.132 84.5784 454.821 87.8884C451.51 91.1984 451.486 96.5594 454.767 99.9004L480.367 125.5Z" />
<path d="M346.05 152.7C350.266 154.806 355.391 153.098 357.5 148.883L374.567 114.75C375.939 112.022 375.749 108.768 374.068 106.218C372.387 103.668 369.472 102.211 366.424 102.396C363.376 102.581 360.659 104.381 359.3 107.116L342.233 141.249C341.22 143.273 341.054 145.617 341.77 147.765C342.486 149.913 344.025 151.688 346.05 152.7Z" />
<path d="M392.533 110.933V145.066C392.533 149.779 396.354 153.599 401.066 153.599C405.778 153.599 409.599 149.778 409.599 145.066V110.933C409.599 106.22 405.779 102.4 401.066 102.4C396.353 102.4 392.533 106.221 392.533 110.933Z" />
<path d="M437.899 102.837C435.752 102.121 433.408 102.288 431.383 103.3C429.358 104.312 427.819 106.087 427.103 108.234C426.387 110.381 426.554 112.725 427.566 114.75L444.633 148.883C446.747 153.087 451.865 154.786 456.074 152.682C460.283 150.578 461.994 145.464 459.9 141.25L442.833 107.117C441.821 105.092 440.046 103.552 437.899 102.837Z" />
</g>
<defs>
<clipPath id="clip0_1_288">
<rect width="512" height="512" fill="white"/>
</clipPath>
</defs>
</svg>
