<svg width="512" height="512" viewBox="0 0 512 512" fill="#393939" xmlns="http://www.w3.org/2000/svg">
<g clip-path="url(#clip0_1_273)">
<path d="M436.459 166.333V96.525C436.459 91.8895 440.217 88.1316 444.852 88.1316C449.488 88.1316 453.246 91.8895 453.246 96.525C453.246 110.432 464.519 121.705 478.426 121.705C492.333 121.705 503.606 110.432 503.606 96.525C503.632 70.1 485.996 46.9157 460.523 39.8871C435.05 32.8585 408.02 43.7185 394.492 66.4177C380.963 43.7185 353.933 32.8585 328.46 39.8871C302.987 46.9157 285.351 70.1 285.377 96.525V149.194C273.687 153.586 262.514 159.243 252.055 166.065C230.207 180.1 203.375 184.048 178.411 176.901C123.641 161.681 65.2212 182.582 32.5353 229.089C-0.150496 275.597 -0.0256963 337.643 32.847 384.019C65.7196 430.395 124.223 451.06 178.931 435.62C203.763 428.551 230.441 432.602 252.055 446.725C279.239 464.722 311.134 474.291 343.736 474.23C350.443 474.228 357.144 473.838 363.805 473.063C433.836 464.865 491.263 413.744 507.514 345.133C523.766 276.523 495.372 205.073 436.459 166.333ZM310.557 239.214C321.19 239.169 330.649 232.451 334.193 222.427H387.642C390.76 231.338 398.62 237.742 407.978 238.993C417.335 240.245 426.602 236.132 431.951 228.352C454.234 253.197 464.787 286.406 460.934 319.556C454.776 373.715 412.23 416.556 358.114 423.089C353.472 423.621 348.803 423.881 344.131 423.869C321.238 423.903 298.843 417.188 279.745 404.564C245.89 382.583 204.21 376.243 165.351 387.165C154.372 390.217 142.895 391.048 131.592 389.607C100.711 385.243 74.7959 364.117 64.299 334.749C53.802 305.38 60.4542 272.613 81.5725 249.664C102.691 226.714 134.793 217.366 164.931 225.39C203.918 236.363 245.74 230.07 279.77 208.107C281.591 206.899 283.497 205.841 285.377 204.75V214.033C285.377 227.94 296.65 239.214 310.557 239.214ZM335.737 205.64V188.853H386.098V205.64H335.737ZM386.098 172.066H335.737V155.279H386.098V172.066ZM386.098 138.492H335.737V96.525C335.737 91.8895 339.495 88.1316 344.131 88.1316C348.766 88.1316 352.524 91.8895 352.524 96.525C352.524 110.432 363.798 121.705 377.705 121.705C380.57 121.678 383.41 121.155 386.098 120.161V138.492ZM444.852 54.5578C468.019 54.5856 486.792 73.3587 486.819 96.525C486.819 101.161 483.062 104.918 478.426 104.918C473.79 104.918 470.032 101.161 470.032 96.525C470.032 82.6183 458.759 71.3447 444.852 71.3447C430.945 71.3447 419.672 82.6183 419.672 96.525V214.033C419.672 218.669 415.914 222.427 411.278 222.427C406.643 222.427 402.885 218.669 402.885 214.033V96.525C402.913 73.3587 421.686 54.5856 444.852 54.5578ZM344.131 54.5578C367.297 54.5856 386.07 73.3587 386.098 96.525C386.098 101.161 382.34 104.918 377.705 104.918C373.069 104.918 369.311 101.161 369.311 96.525C369.311 82.6183 358.038 71.3447 344.131 71.3447C330.224 71.3447 318.951 82.6183 318.951 96.525V214.033C318.951 218.669 315.193 222.427 310.557 222.427C305.922 222.427 302.164 218.669 302.164 214.033V96.525C302.191 73.3587 320.965 54.5856 344.131 54.5578ZM494.373 323.148C486.467 392.903 431.632 448.065 361.925 456.385C326.645 460.682 290.986 452.286 261.33 432.699C235.643 415.923 203.949 411.096 174.432 419.463C141.18 428.871 105.471 423.136 76.8371 403.787C48.2036 384.439 29.5607 353.447 25.8851 319.086C22.1379 285.835 32.8697 252.578 55.3461 227.79C85.1093 194.672 131.035 181.221 173.962 193.05C203.572 201.481 235.38 196.75 261.254 180.065C268.902 175.092 276.975 170.803 285.377 167.248V185.781C280.25 188.213 275.292 190.986 270.537 194.082C240.574 213.41 203.743 218.914 169.438 209.19C133.147 199.227 94.3289 210.318 68.7793 237.95C43.2297 265.581 35.2075 305.148 47.9772 340.549C60.7469 375.95 92.1799 401.284 129.485 406.243C143.001 407.95 156.721 406.957 169.849 403.322C204.04 393.704 240.717 399.273 270.512 418.607C292.354 433.026 317.958 440.695 344.131 440.656C349.459 440.667 354.784 440.37 360.078 439.766C421.937 432.263 470.555 383.274 477.587 321.36C482.016 283.247 469.778 245.076 444.013 216.644C441.495 213.857 438.977 211.364 436.459 208.964V186.922C478.328 219.024 500.307 270.723 494.373 323.148Z" />
<path d="M243.41 323.148C238.267 323.087 233.404 320.796 230.081 316.87C223.708 310.161 214.86 306.362 205.606 306.362C196.352 306.362 187.504 310.161 181.131 316.87C177.854 320.844 172.973 323.145 167.823 323.145C162.672 323.145 157.792 320.844 154.515 316.87C148.154 310.157 139.313 306.354 130.065 306.354C120.817 306.354 111.976 310.157 105.615 316.87C102.311 320.797 97.4598 323.09 92.328 323.148C87.6924 323.148 83.9346 326.906 83.9346 331.542C83.9346 336.177 87.6924 339.935 92.328 339.935C101.57 339.902 110.399 336.105 116.778 329.418C120.05 325.448 124.925 323.149 130.069 323.149C135.213 323.149 140.088 325.448 143.36 329.418C149.725 336.13 158.569 339.931 167.819 339.931C177.069 339.931 185.912 336.13 192.277 329.418C195.562 325.443 200.449 323.141 205.606 323.141C210.763 323.141 215.65 325.443 218.935 329.418C225.324 336.106 234.161 339.903 243.41 339.935C248.046 339.935 251.803 336.177 251.803 331.542C251.803 326.906 248.046 323.148 243.41 323.148Z" />
<path d="M268.523 272.787C263.392 272.73 258.541 270.441 255.236 266.517C248.875 259.804 240.034 256.002 230.786 256.002C221.538 256.002 212.696 259.804 206.336 266.517C203.03 270.441 198.179 272.73 193.049 272.787C188.413 272.787 184.655 276.545 184.655 281.181C184.655 285.816 188.413 289.574 193.049 289.574C202.29 289.541 211.119 285.743 217.499 279.057C220.771 275.087 225.646 272.788 230.79 272.788C235.934 272.788 240.809 275.087 244.081 279.057C250.446 285.769 259.289 289.57 268.539 289.57C277.789 289.57 286.633 285.769 292.998 279.057C296.283 275.082 301.17 272.78 306.327 272.78C311.483 272.78 316.371 275.082 319.655 279.057C326.044 285.745 334.882 289.542 344.131 289.574C348.766 289.574 352.524 285.816 352.524 281.181C352.524 276.545 348.766 272.787 344.131 272.787C338.988 272.726 334.124 270.435 330.802 266.509C324.428 259.8 315.58 256.001 306.327 256.001C297.073 256.001 288.225 259.8 281.851 266.509C278.529 270.435 273.666 272.726 268.523 272.787Z" />
<path d="M323.105 306.361C313.866 306.393 305.039 310.191 298.664 316.878C295.358 320.802 290.507 323.092 285.377 323.148C280.741 323.148 276.983 326.906 276.983 331.542C276.983 336.177 280.741 339.935 285.377 339.935C294.618 339.902 303.447 336.105 309.827 329.418C313.099 325.448 317.974 323.149 323.118 323.149C328.262 323.149 333.137 325.448 336.409 329.418C342.774 336.13 351.618 339.931 360.867 339.931C370.117 339.931 378.961 336.13 385.326 329.418C388.611 325.443 393.498 323.141 398.655 323.141C403.811 323.141 408.699 325.443 411.984 329.418C418.372 336.106 427.21 339.903 436.459 339.935C441.094 339.935 444.852 336.177 444.852 331.542C444.852 326.906 441.094 323.148 436.459 323.148C431.316 323.087 426.452 320.796 423.13 316.87C416.757 310.161 407.909 306.362 398.655 306.362C389.401 306.362 380.553 310.161 374.179 316.87C370.903 320.844 366.022 323.145 360.872 323.145C355.721 323.145 350.84 320.844 347.564 316.87C341.179 310.187 332.348 306.393 323.105 306.361Z" />
</g>
<defs>
<clipPath id="clip0_1_273">
<rect width="512" height="512" fill="white"/>
</clipPath>
</defs>
</svg>
