<svg width="512" height="512" viewBox="0 0 512 512" fill="#393939" xmlns="http://www.w3.org/2000/svg">
<path d="M472 112H416V96H424C426.122 96 428.157 95.1571 429.657 93.6569C431.157 92.1566 432 90.1217 432 88V80H440C446.365 80 452.47 77.4714 456.971 72.9706C461.471 68.4697 464 62.3652 464 56V16H448V56C448 58.1217 447.157 60.1566 445.657 61.6569C444.157 63.1571 442.122 64 440 64H432V56C432 53.8783 431.157 51.8434 429.657 50.3431C428.157 48.8429 426.122 48 424 48H280C277.878 48 275.843 48.8429 274.343 50.3431C272.843 51.8434 272 53.8783 272 56V88C272 90.1217 272.843 92.1566 274.343 93.6569C275.843 95.1571 277.878 96 280 96H288V112H40C33.6348 112 27.5303 114.529 23.0294 119.029C18.5286 123.53 16 129.635 16 136V456C16 458.122 16.8429 460.157 18.3431 461.657C19.8434 463.157 21.8783 464 24 464H56V488C56 490.122 56.8429 492.157 58.3431 493.657C59.8434 495.157 61.8783 496 64 496H144C146.122 496 148.157 495.157 149.657 493.657C151.157 492.157 152 490.122 152 488V464H360V488C360 490.122 360.843 492.157 362.343 493.657C363.843 495.157 365.878 496 368 496H448C450.122 496 452.157 495.157 453.657 493.657C455.157 492.157 456 490.122 456 488V464H488C490.122 464 492.157 463.157 493.657 461.657C495.157 460.157 496 458.122 496 456V136C496 129.635 493.471 123.53 488.971 119.029C484.47 114.529 478.365 112 472 112ZM288 64H416V80H288V64ZM400 96V112H384V96H400ZM368 96V112H336V96H368ZM320 96V112H304V96H320ZM136 480H72V464H136V480ZM440 480H376V464H440V480ZM480 448H32V416H480V448ZM88 360H72V344H88V360ZM88 200H72V184H88V200ZM104 400V160H216V400H104ZM232 400V160H264V400H232ZM280 400V160H424V400H280ZM480 400H440V152C440 149.878 439.157 147.843 437.657 146.343C436.157 144.843 434.122 144 432 144H96C93.8783 144 91.8434 144.843 90.3431 146.343C88.8429 147.843 88 149.878 88 152V168H64C61.8783 168 59.8434 168.843 58.3431 170.343C56.8429 171.843 56 173.878 56 176V208C56 210.122 56.8429 212.157 58.3431 213.657C59.8434 215.157 61.8783 216 64 216H88V328H64C61.8783 328 59.8434 328.843 58.3431 330.343C56.8429 331.843 56 333.878 56 336V368C56 370.122 56.8429 372.157 58.3431 373.657C59.8434 375.157 61.8783 376 64 376H88V400H32V136C32 133.878 32.8429 131.843 34.3431 130.343C35.8434 128.843 37.8783 128 40 128H472C474.122 128 476.157 128.843 477.657 130.343C479.157 131.843 480 133.878 480 136V400Z" />
<path d="M192 176H128C125.878 176 123.843 176.843 122.343 178.343C120.843 179.843 120 181.878 120 184V248C120 250.122 120.843 252.157 122.343 253.657C123.843 255.157 125.878 256 128 256H192C194.122 256 196.157 255.157 197.657 253.657C199.157 252.157 200 250.122 200 248V184C200 181.878 199.157 179.843 197.657 178.343C196.157 176.843 194.122 176 192 176ZM184 240H136V192H184V240Z" />
<path d="M350.312 300.912L406.312 228.912C407.232 227.73 407.801 226.314 407.955 224.824C408.11 223.335 407.843 221.832 407.185 220.487C406.527 219.141 405.505 218.008 404.235 217.214C402.965 216.421 401.498 216 400 216H374.136L390.856 188.12C391.586 186.906 391.98 185.521 391.998 184.105C392.017 182.689 391.659 181.294 390.962 180.061C390.265 178.829 389.253 177.803 388.03 177.09C386.807 176.376 385.416 176 384 176H344C342.574 176 341.174 176.381 339.945 177.104C338.715 177.827 337.701 178.866 337.008 180.112L297.008 252.112C296.331 253.33 295.984 254.703 296.001 256.097C296.017 257.49 296.398 258.855 297.104 260.056C297.811 261.257 298.819 262.253 300.028 262.944C301.238 263.636 302.607 264 304 264H336V296C336 297.668 336.522 299.294 337.491 300.651C338.461 302.008 339.831 303.028 341.408 303.568C342.243 303.852 343.119 303.998 344 304C345.218 304 346.42 303.721 347.514 303.186C348.607 302.651 349.565 301.873 350.312 300.912ZM317.6 248L348.72 192H369.872L353.152 219.88C352.423 221.093 352.029 222.478 352.011 223.893C351.992 225.308 352.349 226.703 353.045 227.935C353.741 229.168 354.752 230.193 355.974 230.907C357.196 231.621 358.585 231.998 360 232H383.64L352 272.68V256C352 253.878 351.157 251.843 349.657 250.343C348.157 248.843 346.122 248 344 248H317.6Z" />
<path d="M120 272H200V288H120V272Z" />
<path d="M120 304H152V320H120V304Z" />
<path d="M168 304H200V320H168V304Z" />
<path d="M392 368H376V384H400C402.122 384 404.157 383.157 405.657 381.657C407.157 380.157 408 378.122 408 376V328H392V368Z" />
<path d="M344 368H360V384H344V368Z" />
<path d="M312 368H328V384H312V368Z" />
</svg>
